G04*
G04 #@! TF.GenerationSoftware,Altium Limited,Altium Designer,26.3.0 (6)*
G04*
G04 Layer_Color=65535*
%FSLAX42Y42*%
%MOMM*%
G71*
G04*
G04 #@! TF.SameCoordinates,1A593B57-F37D-45A2-AB21-511494FB62AB*
G04*
G04*
G04 #@! TF.FilePolarity,Positive*
G04*
G01*
G75*
%ADD10C,0.10*%
%ADD11C,0.25*%
%ADD12C,0.20*%
D10*
X-2221Y7891D02*
G03*
X-2231Y7891I-5J0D01*
G01*
X3969Y591D02*
G03*
X3979Y591I5J0D01*
G01*
X3471D02*
G03*
X3461Y591I-5J0D01*
G01*
D02*
G03*
X3471Y591I5J0D01*
G01*
X2734Y578D02*
G03*
X2725Y578I-5J0D01*
G01*
D02*
G03*
X2734Y578I5J0D01*
G01*
X2226D02*
G03*
X2217Y578I-5J0D01*
G01*
D02*
G03*
X2226Y578I5J0D01*
G01*
X1448Y578D02*
G03*
X1438Y578I-5J0D01*
G01*
D02*
G03*
X1448Y578I5J0D01*
G01*
X940D02*
G03*
X930Y578I-5J0D01*
G01*
D02*
G03*
X940Y578I5J0D01*
G01*
X2495Y5460D02*
G03*
X2495Y5470I0J5D01*
G01*
D02*
G03*
X2495Y5460I0J-5D01*
G01*
X4100Y7082D02*
G03*
X4110Y7082I5J0D01*
G01*
D02*
G03*
X4100Y7082I-5J0D01*
G01*
X3979Y591D02*
G03*
X3969Y591I-5J0D01*
G01*
X373Y6489D02*
X627D01*
X373Y6235D02*
Y6489D01*
Y6235D02*
X627D01*
Y6489D01*
X373Y6235D02*
X627D01*
X373Y5981D02*
Y6235D01*
Y5981D02*
X627D01*
Y6235D01*
X373Y5981D02*
X627D01*
X373Y5727D02*
Y5981D01*
Y5727D02*
X627D01*
Y5981D01*
X373Y5727D02*
X627D01*
X373Y5473D02*
Y5727D01*
Y5473D02*
X627D01*
Y5727D01*
X5683Y2313D02*
Y2567D01*
X5429Y2313D02*
Y2567D01*
X5683D01*
X5429Y2313D02*
X5683D01*
X5175D02*
Y2567D01*
X5429D01*
X5175Y2313D02*
X5429D01*
Y2567D01*
X4921Y2313D02*
Y2567D01*
X5175D01*
X4921Y2313D02*
X5175D01*
Y2567D01*
X4667Y2313D02*
Y2567D01*
X4921D01*
X4667Y2313D02*
X4921D01*
Y2567D01*
X4413Y2313D02*
Y2567D01*
X4667D01*
X4413Y2313D02*
X4667D01*
Y2567D01*
X4159Y2313D02*
Y2567D01*
X4413D01*
X4159Y2313D02*
X4413D01*
Y2567D01*
X3905Y2313D02*
Y2567D01*
X4159D01*
X3905Y2313D02*
X4159D01*
Y2567D01*
X3651Y2313D02*
Y2567D01*
X3905D01*
X3651Y2313D02*
X3905D01*
Y2567D01*
X3397Y2313D02*
Y2567D01*
X3651D01*
X3397Y2313D02*
X3651D01*
Y2567D01*
X3143Y2313D02*
Y2567D01*
X3397D01*
X3143Y2313D02*
X3397D01*
Y2567D01*
X2889Y2313D02*
Y2567D01*
X3143D01*
X2889Y2313D02*
X3143D01*
Y2567D01*
X2635Y2313D02*
Y2567D01*
X2889D01*
X2635Y2313D02*
X2889D01*
Y2567D01*
X2381Y2313D02*
Y2567D01*
X2635D01*
X2381Y2313D02*
X2635D01*
Y2567D01*
X2127Y2313D02*
Y2567D01*
X2381D01*
X2127Y2313D02*
X2381D01*
Y2567D01*
X1873Y2313D02*
Y2567D01*
X2127D01*
X1873Y2313D02*
X2127D01*
Y2567D01*
X1619Y2313D02*
Y2567D01*
X1873D01*
X1619Y2313D02*
X1873D01*
Y2567D01*
X1365Y2313D02*
Y2567D01*
X1619D01*
X1365Y2313D02*
X1619D01*
Y2567D01*
X1111Y2313D02*
Y2567D01*
X1365D01*
X1111Y2313D02*
X1365D01*
Y2567D01*
X857Y2313D02*
Y2567D01*
X1111D01*
X857Y2313D02*
X1111D01*
Y2567D01*
X603Y2313D02*
Y2567D01*
X857D01*
X603Y2313D02*
X857D01*
Y2567D01*
X349Y2313D02*
Y2567D01*
X603D01*
X349Y2313D02*
X603D01*
Y2567D01*
X95Y2313D02*
Y2567D01*
X349D01*
X95Y2313D02*
X349D01*
Y2567D01*
X5683Y4853D02*
Y5107D01*
X5429Y4853D02*
Y5107D01*
X5683D01*
X5429Y4853D02*
X5683D01*
X5175D02*
Y5107D01*
X5429D01*
X5175Y4853D02*
X5429D01*
Y5107D01*
X4921Y4853D02*
Y5107D01*
X5175D01*
X4921Y4853D02*
X5175D01*
Y5107D01*
X4667Y4853D02*
Y5107D01*
X4921D01*
X4667Y4853D02*
X4921D01*
Y5107D01*
X4413Y4853D02*
Y5107D01*
X4667D01*
X4413Y4853D02*
X4667D01*
Y5107D01*
X4159Y4853D02*
Y5107D01*
X4413D01*
X4159Y4853D02*
X4413D01*
Y5107D01*
X3905Y4853D02*
Y5107D01*
X4159D01*
X3905Y4853D02*
X4159D01*
Y5107D01*
X3651Y4853D02*
Y5107D01*
X3905D01*
X3651Y4853D02*
X3905D01*
Y5107D01*
X3397Y4853D02*
Y5107D01*
X3651D01*
X3397Y4853D02*
X3651D01*
Y5107D01*
X3143Y4853D02*
Y5107D01*
X3397D01*
X3143Y4853D02*
X3397D01*
Y5107D01*
X2889Y4853D02*
Y5107D01*
X3143D01*
X2889Y4853D02*
X3143D01*
Y5107D01*
X2635Y4853D02*
Y5107D01*
X2889D01*
X2635Y4853D02*
X2889D01*
Y5107D01*
X2381Y4853D02*
Y5107D01*
X2635D01*
X2381Y4853D02*
X2635D01*
Y5107D01*
X2127Y4853D02*
Y5107D01*
X2381D01*
X2127Y4853D02*
X2381D01*
Y5107D01*
X1873Y4853D02*
Y5107D01*
X2127D01*
X1873Y4853D02*
X2127D01*
Y5107D01*
X1619Y4853D02*
Y5107D01*
X1873D01*
X1619Y4853D02*
X1873D01*
Y5107D01*
X1365Y4853D02*
Y5107D01*
X1619D01*
X1365Y4853D02*
X1619D01*
Y5107D01*
X1111Y4853D02*
Y5107D01*
X1365D01*
X1111Y4853D02*
X1365D01*
Y5107D01*
X857Y4853D02*
Y5107D01*
X1111D01*
X857Y4853D02*
X1111D01*
Y5107D01*
X603Y4853D02*
Y5107D01*
X857D01*
X603Y4853D02*
X857D01*
Y5107D01*
X349Y4853D02*
Y5107D01*
X603D01*
X349Y4853D02*
X603D01*
Y5107D01*
X95Y4853D02*
Y5107D01*
X349D01*
X95Y4853D02*
X349D01*
Y5107D01*
X6763Y2661D02*
X7017D01*
X6763Y2407D02*
Y2661D01*
Y2407D02*
X7017D01*
Y2661D01*
X6763Y2407D02*
X7017D01*
X6763Y2153D02*
Y2407D01*
Y2153D02*
X7017D01*
Y2407D01*
X6763Y2153D02*
X7017D01*
X6763Y1899D02*
Y2153D01*
Y1899D02*
X7017D01*
Y2153D01*
X6763Y1899D02*
X7017D01*
X6763Y1645D02*
Y1899D01*
Y1645D02*
X7017D01*
Y1899D01*
X6763Y5201D02*
X7017D01*
X6763Y4947D02*
Y5201D01*
Y4947D02*
X7017D01*
Y5201D01*
X6763Y5455D02*
X7017D01*
X6763Y5201D02*
Y5455D01*
Y5201D02*
X7017D01*
Y5455D01*
X6763Y5709D02*
X7017D01*
X6763Y5455D02*
Y5709D01*
Y5455D02*
X7017D01*
Y5709D01*
X6763Y5963D02*
X7017D01*
X6763Y5709D02*
Y5963D01*
Y5709D02*
X7017D01*
Y5963D01*
X4866Y7307D02*
X5310Y7310D01*
Y7814D01*
X3610Y8322D02*
X5310D01*
X3610Y7310D02*
Y7814D01*
Y7310D02*
X4054D01*
D11*
X310Y6532D02*
X2110D01*
X310Y5432D02*
X2110D01*
Y6532D01*
X310Y5432D02*
Y6532D01*
X6382Y6090D02*
X7144D01*
X6382Y1518D02*
X7144D01*
Y6090D01*
X6382Y1518D02*
Y6090D01*
X879Y8791D02*
X981Y8690D01*
X879D02*
X981Y8791D01*
X879Y8740D02*
X981D01*
X930Y8690D02*
Y8791D01*
X745Y6400D02*
Y6247D01*
X822D01*
X847Y6273D01*
Y6298D01*
X822Y6324D01*
X745D01*
X822D01*
X847Y6349D01*
Y6374D01*
X822Y6400D01*
X745D01*
X898Y6349D02*
Y6273D01*
X923Y6247D01*
X999D01*
Y6349D01*
X1152D02*
X1075D01*
X1050Y6324D01*
Y6273D01*
X1075Y6247D01*
X1152D01*
X1202D02*
Y6400D01*
Y6298D02*
X1279Y6349D01*
X1202Y6298D02*
X1279Y6247D01*
X6505Y2179D02*
X6658D01*
Y2102D01*
X6632Y2077D01*
X6582D01*
X6556Y2102D01*
Y2179D01*
Y2128D02*
X6505Y2077D01*
X6658Y2026D02*
X6505Y1925D01*
X6658D02*
X6505Y2026D01*
X6658Y1874D02*
X6505D01*
Y1798D01*
X6531Y1772D01*
X6556D01*
X6582Y1798D01*
Y1874D01*
Y1798D01*
X6607Y1772D01*
X6632D01*
X6658Y1798D01*
Y1874D01*
Y1620D02*
X6632Y1671D01*
X6582Y1722D01*
X6531D01*
X6505Y1696D01*
Y1645D01*
X6531Y1620D01*
X6556D01*
X6582Y1645D01*
Y1722D01*
X2546Y6518D02*
X2444Y6417D01*
Y6518D02*
X2546Y6417D01*
X2495Y6518D02*
Y6417D01*
X2444Y6467D02*
X2546D01*
X6596Y5090D02*
Y5040D01*
Y5065D01*
X6444D01*
Y5090D01*
Y5040D01*
X6571Y4862D02*
X6596Y4887D01*
Y4938D01*
X6571Y4964D01*
X6469D01*
X6444Y4938D01*
Y4887D01*
X6469Y4862D01*
X6444Y4710D02*
Y4811D01*
X6545Y4710D01*
X6571D01*
X6596Y4735D01*
Y4786D01*
X6571Y4811D01*
X3278Y7099D02*
Y7048D01*
Y7074D01*
X3405D01*
X3430Y7048D01*
Y7023D01*
X3405Y6998D01*
X3430Y7252D02*
Y7150D01*
X3328Y7252D01*
X3303D01*
X3278Y7226D01*
Y7175D01*
X3303Y7150D01*
X1232Y5523D02*
Y5472D01*
Y5498D01*
X1358D01*
X1384Y5472D01*
Y5447D01*
X1358Y5422D01*
X1384Y5574D02*
Y5625D01*
Y5599D01*
X1232D01*
X1257Y5574D01*
X7135Y1303D02*
X7034Y1405D01*
X7135D02*
X7034Y1303D01*
X7135Y1354D02*
X7034D01*
X7084Y1405D02*
Y1303D01*
X6983Y1430D02*
X6932D01*
X6957D01*
Y1278D01*
X6983Y1303D01*
D12*
X2920Y361D02*
X3043D01*
X3289D02*
X3413D01*
X3425D02*
X3918D01*
X3425Y916D02*
X3918D01*
Y361D02*
Y916D01*
X3043Y361D02*
X3289D01*
X2917D02*
Y916D01*
X3410D01*
X1675Y348D02*
X1799D01*
X2045D02*
X2168D01*
X2181D02*
X2674D01*
X2181Y903D02*
X2674D01*
Y348D02*
Y903D01*
X1799Y348D02*
X2045D01*
X1673D02*
Y903D01*
X2166D01*
X389Y348D02*
X512D01*
X759D02*
X882D01*
X894D02*
X1387D01*
X894Y903D02*
X1387D01*
Y348D02*
Y903D01*
X512Y348D02*
X759D01*
X386D02*
Y903D01*
X879D01*
X2550Y5620D02*
X2570D01*
Y5660D01*
X2590D01*
Y5645D02*
Y5660D01*
Y5645D02*
X2740D01*
Y5740D01*
X2710Y6040D02*
X2740D01*
X2710D02*
Y6140D01*
X2570Y6141D02*
X2710Y6140D01*
X2520Y6195D02*
X2570Y6141D01*
X1820Y6195D02*
X2520D01*
X1770Y6141D02*
X1820Y6195D01*
X1630Y6140D02*
X1770Y6141D01*
X1630Y6040D02*
Y6140D01*
X1600Y6040D02*
X1630D01*
X1770Y5620D02*
X1790D01*
X1770D02*
Y5660D01*
X1750D02*
X1770D01*
X1750Y5645D02*
Y5660D01*
X1600Y5645D02*
X1750D01*
X1600D02*
Y5740D01*
X4294Y6753D02*
Y6768D01*
X4586D01*
Y6753D02*
Y6768D01*
X4294Y6753D02*
X4586D01*
X4290Y6593D02*
Y6718D01*
X1155Y1245D02*
Y1375D01*
X859Y1210D02*
X1151D01*
X859Y1200D02*
Y1210D01*
Y1200D02*
X1151D01*
Y1210D01*
X2430Y1260D02*
Y1390D01*
X2134Y1225D02*
X2426D01*
X2134Y1215D02*
Y1225D01*
Y1215D02*
X2426D01*
Y1225D01*
X3690Y1255D02*
Y1385D01*
X3394Y1220D02*
X3686D01*
X3394Y1210D02*
Y1220D01*
Y1210D02*
X3686D01*
Y1220D01*
X4270Y5595D02*
Y5825D01*
X4570D01*
Y5595D02*
Y5825D01*
X4270Y5595D02*
X4570D01*
X4265Y5420D02*
Y5560D01*
X5257Y4522D02*
X5240Y4538D01*
Y4571D01*
X5257Y4588D01*
X5274D01*
X5290Y4571D01*
Y4555D01*
Y4571D01*
X5307Y4588D01*
X5324D01*
X5340Y4571D01*
Y4538D01*
X5324Y4522D01*
X5240Y4621D02*
X5307D01*
X5340Y4655D01*
X5307Y4688D01*
X5240D01*
X5257Y4721D02*
X5240Y4738D01*
Y4771D01*
X5257Y4788D01*
X5274D01*
X5290Y4771D01*
Y4755D01*
Y4771D01*
X5307Y4788D01*
X5324D01*
X5340Y4771D01*
Y4738D01*
X5324Y4721D01*
X5537Y4522D02*
X5520Y4538D01*
Y4571D01*
X5537Y4588D01*
X5554D01*
X5570Y4571D01*
Y4555D01*
Y4571D01*
X5587Y4588D01*
X5604D01*
X5620Y4571D01*
Y4538D01*
X5604Y4522D01*
X5520Y4621D02*
X5587D01*
X5620Y4655D01*
X5587Y4688D01*
X5520D01*
X5537Y4721D02*
X5520Y4738D01*
Y4771D01*
X5537Y4788D01*
X5554D01*
X5570Y4771D01*
Y4755D01*
Y4771D01*
X5587Y4788D01*
X5604D01*
X5620Y4771D01*
Y4738D01*
X5604Y4721D01*
X5531Y2736D02*
X5515Y2719D01*
Y2686D01*
X5531Y2669D01*
X5598D01*
X5615Y2686D01*
Y2719D01*
X5598Y2736D01*
X5565D01*
Y2702D01*
X5615Y2769D02*
X5515D01*
X5615Y2836D01*
X5515D01*
Y2869D02*
X5615D01*
Y2919D01*
X5598Y2936D01*
X5531D01*
X5515Y2919D01*
Y2869D01*
X181Y4626D02*
X165Y4609D01*
Y4576D01*
X181Y4559D01*
X248D01*
X265Y4576D01*
Y4609D01*
X248Y4626D01*
X215D01*
Y4592D01*
X265Y4659D02*
X165D01*
X265Y4726D01*
X165D01*
Y4759D02*
X265D01*
Y4809D01*
X248Y4826D01*
X181D01*
X165Y4809D01*
Y4759D01*
X451Y2806D02*
X435Y2789D01*
Y2756D01*
X451Y2739D01*
X518D01*
X535Y2756D01*
Y2789D01*
X518Y2806D01*
X485D01*
Y2772D01*
X535Y2839D02*
X435D01*
X535Y2906D01*
X435D01*
Y2939D02*
X535D01*
Y2989D01*
X518Y3006D01*
X451D01*
X435Y2989D01*
Y2939D01*
X181Y2816D02*
X165Y2799D01*
Y2766D01*
X181Y2749D01*
X248D01*
X265Y2766D01*
Y2799D01*
X248Y2816D01*
X215D01*
Y2782D01*
X265Y2849D02*
X165D01*
X265Y2916D01*
X165D01*
Y2949D02*
X265D01*
Y2999D01*
X248Y3016D01*
X181D01*
X165Y2999D01*
Y2949D01*
X3065Y939D02*
Y972D01*
Y956D01*
X2965D01*
X2981Y939D01*
X3065Y1089D02*
Y1022D01*
X2998Y1089D01*
X2981D01*
X2965Y1072D01*
Y1039D01*
X2981Y1022D01*
X2965Y1122D02*
X3031D01*
X3065Y1156D01*
X3031Y1189D01*
X2965D01*
X3215Y939D02*
X3315D01*
Y989D01*
X3298Y1006D01*
X3281D01*
X3265Y989D01*
Y939D01*
Y989D01*
X3248Y1006D01*
X3231D01*
X3215Y989D01*
Y939D01*
Y1039D02*
Y1106D01*
Y1072D01*
X3315D01*
Y1139D02*
X3215D01*
X3315Y1206D01*
X3215D01*
X3485Y929D02*
X3585D01*
Y996D01*
X3485Y1096D02*
Y1029D01*
X3585D01*
Y1096D01*
X3535Y1029D02*
Y1062D01*
X3485Y1129D02*
X3585D01*
Y1179D01*
X3568Y1196D01*
X3501D01*
X3485Y1179D01*
Y1129D01*
X3771Y996D02*
X3755Y979D01*
Y946D01*
X3771Y929D01*
X3838D01*
X3855Y946D01*
Y979D01*
X3838Y996D01*
X3805D01*
Y962D01*
X3855Y1029D02*
X3755D01*
X3855Y1096D01*
X3755D01*
Y1129D02*
X3855D01*
Y1179D01*
X3838Y1196D01*
X3771D01*
X3755Y1179D01*
Y1129D01*
X1815Y929D02*
Y962D01*
Y946D01*
X1715D01*
X1731Y929D01*
X1815Y1079D02*
Y1012D01*
X1748Y1079D01*
X1731D01*
X1715Y1062D01*
Y1029D01*
X1731Y1012D01*
X1715Y1112D02*
X1781D01*
X1815Y1146D01*
X1781Y1179D01*
X1715D01*
X1965Y929D02*
X2065D01*
Y979D01*
X2048Y996D01*
X2031D01*
X2015Y979D01*
Y929D01*
Y979D01*
X1998Y996D01*
X1981D01*
X1965Y979D01*
Y929D01*
Y1029D02*
Y1096D01*
Y1062D01*
X2065D01*
Y1129D02*
X1965D01*
X2065Y1196D01*
X1965D01*
X2235Y919D02*
X2335D01*
Y986D01*
X2235Y1086D02*
Y1019D01*
X2335D01*
Y1086D01*
X2285Y1019D02*
Y1052D01*
X2235Y1119D02*
X2335D01*
Y1169D01*
X2318Y1186D01*
X2251D01*
X2235Y1169D01*
Y1119D01*
X2521Y986D02*
X2505Y969D01*
Y936D01*
X2521Y919D01*
X2588D01*
X2605Y936D01*
Y969D01*
X2588Y986D01*
X2555D01*
Y952D01*
X2605Y1019D02*
X2505D01*
X2605Y1086D01*
X2505D01*
Y1119D02*
X2605D01*
Y1169D01*
X2588Y1186D01*
X2521D01*
X2505Y1169D01*
Y1119D01*
X1251Y996D02*
X1235Y979D01*
Y946D01*
X1251Y929D01*
X1318D01*
X1335Y946D01*
Y979D01*
X1318Y996D01*
X1285D01*
Y962D01*
X1335Y1029D02*
X1235D01*
X1335Y1096D01*
X1235D01*
Y1129D02*
X1335D01*
Y1179D01*
X1318Y1196D01*
X1251D01*
X1235Y1179D01*
Y1129D01*
X965Y929D02*
X1065D01*
Y996D01*
X965Y1096D02*
Y1029D01*
X1065D01*
Y1096D01*
X1015Y1029D02*
Y1062D01*
X965Y1129D02*
X1065D01*
Y1179D01*
X1048Y1196D01*
X981D01*
X965Y1179D01*
Y1129D01*
X695Y939D02*
X795D01*
Y989D01*
X778Y1006D01*
X761D01*
X745Y989D01*
Y939D01*
Y989D01*
X728Y1006D01*
X711D01*
X695Y989D01*
Y939D01*
Y1039D02*
Y1106D01*
Y1072D01*
X795D01*
Y1139D02*
X695D01*
X795Y1206D01*
X695D01*
X545Y939D02*
Y972D01*
Y956D01*
X445D01*
X461Y939D01*
X545Y1089D02*
Y1022D01*
X478Y1089D01*
X461D01*
X445Y1072D01*
Y1039D01*
X461Y1022D01*
X445Y1122D02*
X511D01*
X545Y1156D01*
X511Y1189D01*
X445D01*
M02*
