M48
;Layer_Color=9474304
;FILE_FORMAT=2:5
INCH
;TYPE=PLATED
T01F00S00C0.01181
T02F00S00C0.03189
T03F00S00C0.04016
T04F00S00C0.05197
T05F00S00C0.10236
%
T01
X0005906Y0007480
X0015748Y0047244
X0019291Y0087795
X0009055Y0087008
X0002362Y0096063
X0008661Y0103150
X0018898Y0103543
X0015748Y0110236
X0031496
X0047244
X0062992
X0078740
X0094488
X0110236
X0125984
X0141732
X0149606Y0125984
X0133858
X0118110
X0102362
X0086614
X0070866
X0055118
X0039370
X0023622
X0015748Y0141732
X0031496
X0047244
X0062992
X0078740
X0094488
X0110236
X0125984
X0141732
X0125984Y0078740
X0110236
X0118110Y0062992
X0102362
X0110236Y0047244
X0125984
X0149606Y0028740
Y0017717
X0107480Y0022441
X0100394Y0016929
Y0027953
X0078740Y0047244
X0062992
X0070866Y0062992
X0055118
X0062992Y0078740
X0078740
X0031496
X0050000Y0027559
X0055118Y0031496
X0056693Y0022835
X0050000Y0017323
X0156693Y0023228
X0165354Y0031496
X0181102
X0196850
X0212598
X0228346
X0220472Y0047244
X0236220
X0244094Y0062992
X0259842
X0267323Y0066142
X0267717Y0073622
X0251969Y0078740
X0236220
X0220472
X0204724
X0188976
X0173228
X0157480
X0165354Y0062992
X0181102
X0196850
X0212598
X0228346
X0225984Y0095669
X0226378Y0102756
X0218898Y0103543
X0220472Y0110236
X0236220
X0251969
X0267717
X0259842Y0125984
X0244094
X0228346
X0212598
X0196850
X0181102
X0165354
X0157480Y0141732
X0173228
X0188976
X0204724
X0220472
X0236220
X0251969
X0267717
X0204724Y0110236
X0188976
X0173228
X0157480
Y0047244
X0173228
X0188976
X0204724
X0275590Y0008268
X0259842Y0157480
X0244094
X0228346
X0212598
X0196850
X0181102
X0165354
X0157480Y0173228
X0173228
X0188976
X0204724
X0220472
X0236220
X0251969
X0267717
X0259842Y0188976
X0244094
X0228346
Y0220472
X0244094
X0259842
X0251969Y0236220
X0236220
X0220472
X0204724
X0188976
X0181496Y0233465
X0166535Y0227165
X0162992Y0211024
X0161024Y0203543
X0157480Y0267717
X0174803Y0264567
Y0274410
X0188976Y0267717
X0204724
X0220472
X0228346Y0251969
X0244094
X0275590
X0267717Y0267717
X0275590Y0283465
X0259842
X0244094
X0236220Y0299213
X0212598Y0283465
X0196850
Y0251969
X0212598
Y0220472
X0151181Y0221654
Y0203937
X0131496Y0218504
X0119291Y0209842
X0111024Y0222047
X0094882Y0223622
X0094488Y0236220
X0078740
X0086614Y0251969
X0102362
X0118110
X0110236Y0267717
X0125984
X0133858Y0283465
X0149606
X0118110
X0102362
X0086614
X0070866
X0062992Y0267717
X0078740
X0094488
X0070866Y0251969
X0055118
X0047244Y0236220
X0031496
X0027559Y0221260
X0031496Y0204724
X0015748
Y0173228
X0031496
X0047244
X0062992
X0078740
X0094488
X0110236
X0125984
X0141732
X0149606Y0157480
X0133858
X0118110
X0102362
X0086614
X0070866
X0055118
X0039370
X0023622
X0015748Y0267717
X0031496
X0039370Y0283465
X0023622
X0100000Y0214173
X0125984Y0236220
X0141732
X0133858Y0314961
X0118110
X0102362
X0086614
X0070866
X0039370
X0005906Y0325590
X0165354Y0314961
X0181102
X0212598
X0228346
X0244094
X0275197Y0325590
T02
X0008740Y0096063
X0018740
X0028740
X0038740
X0048740
X0058740
X0068740
X0078740
X0088740
X0098740
X0108740
X0118740
X0128740
X0138740
X0148740
X0158740
X0168740
X0178740
X0188740
X0198740
X0208740
X0218740
X0271260Y0099764
Y0089764
Y0079764
Y0069764
Y0199764
Y0209764
Y0219764
Y0229764
X0218740Y0196063
X0208740
X0198740
X0188740
X0178740
X0168740
X0158740
X0148740
X0138740
X0128740
X0118740
X0108740
X0098740
X0088740
X0078740
X0068740
X0058740
X0048740
X0038740
X0028740
X0018740
X0008740
X0019685Y0220472
Y0230472
Y0240472
Y0250472
T03
X0019913Y0022756
X0029913
X0039913
X0049913
X0070571Y0022756
X0080571
X0090571
X0100571
X0119555Y0023256
X0129555
X0139555
X0149555
T04
X0149016Y0317657
X0202165
T05
X0040551Y0297638
X0057480Y0309055
X0057677Y0284646
M30
