G04*
G04 #@! TF.GenerationSoftware,Altium Limited,Altium Designer,26.3.0 (6)*
G04*
G04 Layer_Color=8421504*
%FSLAX42Y42*%
%MOMM*%
G71*
G04*
G04 #@! TF.SameCoordinates,1A593B57-F37D-45A2-AB21-511494FB62AB*
G04*
G04*
G04 #@! TF.FilePolarity,Positive*
G04*
G01*
G75*
%ADD13R,0.30X1.30*%
%ADD14R,1.80X2.20*%
%ADD15R,0.60X1.25*%
%ADD16R,0.95X1.00*%
%ADD17R,0.60X1.30*%
%ADD18R,0.61X3.05*%
%ADD19R,1.00X0.95*%
%ADD20R,0.45X1.40*%
D13*
X2395Y5565D02*
D03*
X2495D02*
D03*
X2445D02*
D03*
X2345D02*
D03*
X2295D02*
D03*
X2245D02*
D03*
X2195D02*
D03*
X2145D02*
D03*
X2095D02*
D03*
X2045D02*
D03*
X1995D02*
D03*
X1945D02*
D03*
X1895D02*
D03*
X1845D02*
D03*
D14*
X2685Y5890D02*
D03*
X1655D02*
D03*
D15*
X4344Y6655D02*
D03*
X4535D02*
D03*
X4440Y6865D02*
D03*
D16*
X1100Y1780D02*
D03*
X940D02*
D03*
X2370Y1770D02*
D03*
X2210D02*
D03*
X3610Y1770D02*
D03*
X3450D02*
D03*
X940Y1560D02*
D03*
X1100D02*
D03*
X2210Y1560D02*
D03*
X2370D02*
D03*
X3460Y1530D02*
D03*
X3620D02*
D03*
X4340Y6160D02*
D03*
X4500D02*
D03*
X4140Y5490D02*
D03*
X3980D02*
D03*
D17*
X1005Y1100D02*
D03*
X910Y1310D02*
D03*
X1100D02*
D03*
X2280Y1115D02*
D03*
X2185Y1325D02*
D03*
X2375D02*
D03*
X3540Y1110D02*
D03*
X3445Y1320D02*
D03*
X3635D02*
D03*
D18*
X4104Y7268D02*
D03*
X4206D02*
D03*
X4308D02*
D03*
X4409D02*
D03*
X4511D02*
D03*
X4612D02*
D03*
X4714D02*
D03*
X4816D02*
D03*
D19*
X4530Y6320D02*
D03*
Y6480D02*
D03*
X4140Y5930D02*
D03*
Y5770D02*
D03*
X4340Y6320D02*
D03*
Y6480D02*
D03*
D20*
X4322Y5490D02*
D03*
X4388D02*
D03*
X4453D02*
D03*
X4517D02*
D03*
Y5930D02*
D03*
X4453D02*
D03*
X4388D02*
D03*
X4322D02*
D03*
M02*
