G04*
G04 #@! TF.GenerationSoftware,Altium Limited,Altium Designer,26.3.0 (6)*
G04*
G04 Layer_Color=8388736*
%FSLAX42Y42*%
%MOMM*%
G71*
G04*
G04 #@! TF.SameCoordinates,1A593B57-F37D-45A2-AB21-511494FB62AB*
G04*
G04*
G04 #@! TF.FilePolarity,Negative*
G04*
G01*
G75*
%ADD13R,0.30X1.30*%
%ADD14R,1.80X2.20*%
%ADD15R,0.60X1.25*%
%ADD16R,0.95X1.00*%
%ADD17R,0.60X1.30*%
%ADD18R,0.61X3.05*%
%ADD19R,1.00X0.95*%
%ADD20R,0.45X1.40*%
%ADD21C,3.50*%
%ADD22C,1.31*%
%ADD23R,1.53X1.53*%
%ADD24C,1.53*%
%ADD25R,3.50X3.50*%
%ADD26C,0.60*%
D13*
X2395Y5565D02*
D03*
X2495D02*
D03*
X2445D02*
D03*
X2345D02*
D03*
X2295D02*
D03*
X2245D02*
D03*
X2195D02*
D03*
X2145D02*
D03*
X2095D02*
D03*
X2045D02*
D03*
X1995D02*
D03*
X1945D02*
D03*
X1895D02*
D03*
X1845D02*
D03*
D14*
X2685Y5890D02*
D03*
X1655D02*
D03*
D15*
X4344Y6655D02*
D03*
X4535D02*
D03*
X4440Y6865D02*
D03*
D16*
X1100Y1780D02*
D03*
X940D02*
D03*
X2370Y1770D02*
D03*
X2210D02*
D03*
X3610Y1770D02*
D03*
X3450D02*
D03*
X940Y1560D02*
D03*
X1100D02*
D03*
X2210Y1560D02*
D03*
X2370D02*
D03*
X3460Y1530D02*
D03*
X3620D02*
D03*
X4340Y6160D02*
D03*
X4500D02*
D03*
X4140Y5490D02*
D03*
X3980D02*
D03*
D17*
X1005Y1100D02*
D03*
X910Y1310D02*
D03*
X1100D02*
D03*
X2280Y1115D02*
D03*
X2185Y1325D02*
D03*
X2375D02*
D03*
X3540Y1110D02*
D03*
X3445Y1320D02*
D03*
X3635D02*
D03*
D18*
X4104Y7268D02*
D03*
X4206D02*
D03*
X4308D02*
D03*
X4409D02*
D03*
X4511D02*
D03*
X4612D02*
D03*
X4714D02*
D03*
X4816D02*
D03*
D19*
X4530Y6320D02*
D03*
Y6480D02*
D03*
X4140Y5930D02*
D03*
Y5770D02*
D03*
X4340Y6320D02*
D03*
Y6480D02*
D03*
D20*
X4322Y5490D02*
D03*
X4388D02*
D03*
X4453D02*
D03*
X4517D02*
D03*
Y5930D02*
D03*
X4453D02*
D03*
X4388D02*
D03*
X4322D02*
D03*
D21*
X1460Y7850D02*
D03*
X1030Y7560D02*
D03*
X1465Y7230D02*
D03*
D22*
X500Y6362D02*
D03*
Y6108D02*
D03*
Y5854D02*
D03*
Y5600D02*
D03*
X5556Y2440D02*
D03*
X5302D02*
D03*
X5048D02*
D03*
X4794D02*
D03*
X4540D02*
D03*
X4286D02*
D03*
X4032D02*
D03*
X3778D02*
D03*
X3524D02*
D03*
X3270D02*
D03*
X3016D02*
D03*
X2762D02*
D03*
X2508D02*
D03*
X2254D02*
D03*
X2000D02*
D03*
X1746D02*
D03*
X1492D02*
D03*
X1238D02*
D03*
X984D02*
D03*
X730D02*
D03*
X476D02*
D03*
X222D02*
D03*
X5556Y4980D02*
D03*
X5302D02*
D03*
X5048D02*
D03*
X4794D02*
D03*
X4540D02*
D03*
X4286D02*
D03*
X4032D02*
D03*
X3778D02*
D03*
X3524D02*
D03*
X3270D02*
D03*
X3016D02*
D03*
X2762D02*
D03*
X2508D02*
D03*
X2254D02*
D03*
X2000D02*
D03*
X1746D02*
D03*
X1492D02*
D03*
X1238D02*
D03*
X984D02*
D03*
X730D02*
D03*
X476D02*
D03*
X222D02*
D03*
X6890Y2534D02*
D03*
Y2280D02*
D03*
Y2026D02*
D03*
Y1772D02*
D03*
Y5074D02*
D03*
Y5328D02*
D03*
Y5582D02*
D03*
Y5836D02*
D03*
D23*
X3799Y591D02*
D03*
X3291D02*
D03*
X2555Y578D02*
D03*
X2047D02*
D03*
X1268Y578D02*
D03*
X760D02*
D03*
D24*
X3545Y591D02*
D03*
X3037D02*
D03*
X2300Y578D02*
D03*
X1792D02*
D03*
X1014Y578D02*
D03*
X506D02*
D03*
D25*
X5135Y8068D02*
D03*
X3785D02*
D03*
D26*
X7000Y7200D02*
D03*
X6800Y6800D02*
D03*
X7000Y6400D02*
D03*
X6800Y4400D02*
D03*
Y3600D02*
D03*
Y2800D02*
D03*
X6600Y7200D02*
D03*
X6400Y6000D02*
D03*
X6600Y5600D02*
D03*
Y4800D02*
D03*
X6400Y4400D02*
D03*
X6600Y4000D02*
D03*
X6400Y3600D02*
D03*
X6600Y3200D02*
D03*
X6400Y2800D02*
D03*
Y2000D02*
D03*
X6600Y1600D02*
D03*
X6200Y8000D02*
D03*
X6000Y7600D02*
D03*
X6200Y7200D02*
D03*
Y6400D02*
D03*
X6000Y6000D02*
D03*
X6200Y5600D02*
D03*
Y4800D02*
D03*
X6000Y4400D02*
D03*
X6200Y4000D02*
D03*
X6000Y3600D02*
D03*
X6200Y3200D02*
D03*
X6000Y2800D02*
D03*
Y2000D02*
D03*
X6200Y1600D02*
D03*
X6000Y1200D02*
D03*
X5800Y8000D02*
D03*
X5600Y6800D02*
D03*
X5800Y6400D02*
D03*
X5600Y6000D02*
D03*
X5800Y5600D02*
D03*
Y4800D02*
D03*
X5600Y4400D02*
D03*
X5800Y4000D02*
D03*
X5600Y3600D02*
D03*
X5800Y3200D02*
D03*
X5600Y2800D02*
D03*
Y2000D02*
D03*
X5800Y1600D02*
D03*
X5600Y1200D02*
D03*
X5800Y800D02*
D03*
X5400Y8000D02*
D03*
Y7200D02*
D03*
X5200Y6800D02*
D03*
X5400Y6400D02*
D03*
X5200Y6000D02*
D03*
X5400Y5600D02*
D03*
X5200Y4400D02*
D03*
X5400Y4000D02*
D03*
X5200Y3600D02*
D03*
X5400Y3200D02*
D03*
X5200Y2800D02*
D03*
Y2000D02*
D03*
X5400Y1600D02*
D03*
X5200Y1200D02*
D03*
X5400Y800D02*
D03*
X5000Y7200D02*
D03*
X4800Y6800D02*
D03*
X5000Y6400D02*
D03*
X4800Y6000D02*
D03*
Y4400D02*
D03*
X5000Y4000D02*
D03*
X4800Y3600D02*
D03*
X5000Y3200D02*
D03*
X4800Y2800D02*
D03*
Y2000D02*
D03*
X5000Y1600D02*
D03*
X4800Y1200D02*
D03*
X5000Y800D02*
D03*
X4600Y8000D02*
D03*
X4400Y4400D02*
D03*
X4600Y4000D02*
D03*
X4400Y3600D02*
D03*
X4600Y3200D02*
D03*
X4400Y2800D02*
D03*
Y2000D02*
D03*
X4600Y1600D02*
D03*
X4400Y1200D02*
D03*
X4600Y800D02*
D03*
X4200Y8000D02*
D03*
X4000Y6800D02*
D03*
Y4400D02*
D03*
X4200Y4000D02*
D03*
X4000Y3600D02*
D03*
X4200Y3200D02*
D03*
X4000Y2800D02*
D03*
Y2000D02*
D03*
X4200Y1600D02*
D03*
X4000Y1200D02*
D03*
X4200Y800D02*
D03*
X3800Y7200D02*
D03*
X3600Y6000D02*
D03*
Y4400D02*
D03*
X3800Y4000D02*
D03*
X3600Y3600D02*
D03*
X3800Y3200D02*
D03*
X3600Y2800D02*
D03*
X3400Y8000D02*
D03*
Y7200D02*
D03*
X3200Y6800D02*
D03*
Y6000D02*
D03*
Y4400D02*
D03*
X3400Y4000D02*
D03*
X3200Y3600D02*
D03*
X3400Y3200D02*
D03*
X3200Y2800D02*
D03*
Y2000D02*
D03*
Y1200D02*
D03*
X3000Y8000D02*
D03*
Y7200D02*
D03*
X2800Y6800D02*
D03*
X3000Y6400D02*
D03*
X2800Y4400D02*
D03*
X3000Y4000D02*
D03*
X2800Y3600D02*
D03*
X3000Y3200D02*
D03*
X2800Y2800D02*
D03*
Y2000D02*
D03*
X3000Y1600D02*
D03*
X2800Y1200D02*
D03*
X2600Y8000D02*
D03*
Y7200D02*
D03*
X2400Y6800D02*
D03*
X2600Y6400D02*
D03*
X2400Y6000D02*
D03*
Y4400D02*
D03*
X2600Y4000D02*
D03*
X2400Y3600D02*
D03*
X2600Y3200D02*
D03*
X2400Y2800D02*
D03*
X2600Y1600D02*
D03*
X2200Y8000D02*
D03*
Y7200D02*
D03*
X2000Y6800D02*
D03*
X2200Y6400D02*
D03*
X2000Y6000D02*
D03*
Y4400D02*
D03*
X2200Y4000D02*
D03*
X2000Y3600D02*
D03*
X2200Y3200D02*
D03*
X2000Y2800D02*
D03*
Y2000D02*
D03*
Y1200D02*
D03*
X1800Y8000D02*
D03*
Y7200D02*
D03*
X1600Y6800D02*
D03*
X1800Y6400D02*
D03*
X1600Y4400D02*
D03*
X1800Y4000D02*
D03*
X1600Y3600D02*
D03*
X1800Y3200D02*
D03*
X1600Y2800D02*
D03*
Y2000D02*
D03*
X1800Y1600D02*
D03*
X1600Y1200D02*
D03*
X1400Y6400D02*
D03*
X1200Y6000D02*
D03*
Y4400D02*
D03*
X1400Y4000D02*
D03*
X1200Y3600D02*
D03*
X1400Y3200D02*
D03*
X1200Y2800D02*
D03*
X1400Y1600D02*
D03*
Y800D02*
D03*
X1000Y8000D02*
D03*
Y7200D02*
D03*
X800Y6800D02*
D03*
Y6000D02*
D03*
Y5200D02*
D03*
Y4400D02*
D03*
X1000Y4000D02*
D03*
X800Y3600D02*
D03*
X1000Y3200D02*
D03*
X800Y2800D02*
D03*
Y2000D02*
D03*
X600Y7200D02*
D03*
X400Y6800D02*
D03*
Y5200D02*
D03*
Y4400D02*
D03*
X600Y4000D02*
D03*
X400Y3600D02*
D03*
X600Y3200D02*
D03*
X400Y2800D02*
D03*
Y1200D02*
D03*
X150Y190D02*
D03*
X7000Y210D02*
D03*
X6990Y8270D02*
D03*
X150D02*
D03*
X700Y5620D02*
D03*
X3340Y5550D02*
D03*
X3030Y5330D02*
D03*
X2820Y5640D02*
D03*
X4090Y5170D02*
D03*
X3840Y5180D02*
D03*
Y5630D02*
D03*
X2540Y5440D02*
D03*
X2410Y5680D02*
D03*
X5750Y2610D02*
D03*
X5740Y2430D02*
D03*
X5560Y2630D02*
D03*
X6790Y1680D02*
D03*
X6800Y1870D02*
D03*
X3800Y450D02*
D03*
X3980Y590D02*
D03*
X3800Y730D02*
D03*
X2730Y570D02*
D03*
X2550Y430D02*
D03*
Y710D02*
D03*
X1270Y440D02*
D03*
X1440Y580D02*
D03*
X1270Y700D02*
D03*
X60Y2440D02*
D03*
X230Y2210D02*
D03*
X490Y2230D02*
D03*
X480Y2630D02*
D03*
X220Y2620D02*
D03*
X4140Y5360D02*
D03*
X4610Y5930D02*
D03*
X4230Y5770D02*
D03*
X4440Y6720D02*
D03*
Y6970D02*
D03*
M02*
