G04*
G04 #@! TF.GenerationSoftware,Altium Limited,Altium Designer,26.3.0 (6)*
G04*
G04 Layer_Physical_Order=2*
G04 Layer_Color=16711680*
%FSLAX42Y42*%
%MOMM*%
G71*
G04*
G04 #@! TF.SameCoordinates,0AA099D0-1225-4A31-BAC4-6EAD77824322*
G04*
G04*
G04 #@! TF.FilePolarity,Positive*
G04*
G01*
G75*
%ADD12C,0.25*%
%ADD13C,0.30*%
%ADD15R,1.00X0.95*%
%ADD19C,2.38*%
%ADD20C,1.50*%
%ADD21C,1.10*%
%ADD22C,1.53*%
%ADD23C,1.31*%
%ADD24R,1.53X1.53*%
%ADD25R,1.52X1.52*%
%ADD26C,1.98*%
%ADD27R,1.53X1.53*%
%ADD28C,1.52*%
%ADD29R,1.50X1.50*%
%ADD30C,0.61*%
%ADD31C,0.35*%
%ADD32C,1.78*%
%ADD33C,1.20*%
%ADD34C,0.60*%
%ADD38R,2.00X1.50*%
%ADD39R,0.85X0.30*%
%ADD40R,0.80X0.80*%
%ADD41R,0.60X1.50*%
%ADD42C,0.40*%
G36*
X11153Y11787D02*
X11178D01*
X11227Y11780D01*
X11275Y11767D01*
X11321Y11748D01*
X11364Y11723D01*
X11404Y11693D01*
X11439Y11658D01*
X11469Y11619D01*
X11494Y11575D01*
X11513Y11529D01*
X11526Y11481D01*
X11532Y11432D01*
X11532Y11407D01*
X11532Y2207D01*
X11532Y2182D01*
X11526Y2133D01*
X11513Y2085D01*
X11494Y2039D01*
X11469Y1996D01*
X11439Y1956D01*
X11404Y1921D01*
X11364Y1891D01*
X11321Y1866D01*
X11275Y1847D01*
X11227Y1834D01*
X11178Y1828D01*
X11153Y1828D01*
X1928D01*
X1879Y1834D01*
X1831Y1847D01*
X1785Y1866D01*
X1741Y1891D01*
X1702Y1921D01*
X1667Y1956D01*
X1637Y1996D01*
X1612Y2039D01*
X1593Y2085D01*
X1580Y2133D01*
X1573Y2182D01*
X1573Y2207D01*
Y11407D01*
Y11432D01*
X1580Y11481D01*
X1593Y11529D01*
X1612Y11575D01*
X1637Y11619D01*
X1667Y11658D01*
X1702Y11693D01*
X1741Y11723D01*
X1785Y11748D01*
X1831Y11767D01*
X1879Y11780D01*
X1928Y11787D01*
X1953Y11787D01*
X11153Y11787D01*
D02*
G37*
%LPC*%
G36*
X8240Y11710D02*
X8202D01*
X8163Y11702D01*
X8127Y11687D01*
X8095Y11665D01*
X8068Y11638D01*
X8046Y11606D01*
X8031Y11570D01*
X8024Y11531D01*
Y11493D01*
X8031Y11454D01*
X8046Y11418D01*
X8068Y11386D01*
X8095Y11359D01*
X8127Y11337D01*
X8163Y11322D01*
X8202Y11315D01*
X8240D01*
X8279Y11322D01*
X8315Y11337D01*
X8347Y11359D01*
X8374Y11386D01*
X8396Y11418D01*
X8411Y11454D01*
X8418Y11493D01*
Y11531D01*
X8411Y11570D01*
X8396Y11606D01*
X8374Y11638D01*
X8347Y11665D01*
X8315Y11687D01*
X8279Y11702D01*
X8240Y11710D01*
D02*
G37*
G36*
X9089Y10854D02*
X9055D01*
X9022Y10845D01*
X8993Y10828D01*
X8969Y10804D01*
X8952Y10775D01*
X8943Y10742D01*
Y10708D01*
X8952Y10675D01*
X8969Y10646D01*
X8993Y10622D01*
X9022Y10605D01*
X9055Y10596D01*
X9089D01*
X9122Y10605D01*
X9151Y10622D01*
X9175Y10646D01*
X9192Y10675D01*
X9201Y10708D01*
Y10742D01*
X9192Y10775D01*
X9175Y10804D01*
X9151Y10828D01*
X9122Y10845D01*
X9089Y10854D01*
D02*
G37*
G36*
X1867D02*
X1833D01*
X1800Y10845D01*
X1771Y10828D01*
X1747Y10804D01*
X1730Y10775D01*
X1721Y10742D01*
Y10708D01*
X1730Y10675D01*
X1747Y10646D01*
X1771Y10622D01*
X1800Y10605D01*
X1833Y10596D01*
X1867D01*
X1900Y10605D01*
X1929Y10622D01*
X1953Y10646D01*
X1970Y10675D01*
X1979Y10708D01*
Y10742D01*
X1970Y10775D01*
X1953Y10804D01*
X1929Y10828D01*
X1900Y10845D01*
X1867Y10854D01*
D02*
G37*
G36*
X9090Y10077D02*
X9054D01*
X9018Y10068D01*
X8986Y10050D01*
X8960Y10024D01*
X8942Y9992D01*
X8933Y9956D01*
Y9920D01*
X8942Y9884D01*
X8960Y9852D01*
X8986Y9826D01*
X9018Y9808D01*
X9054Y9798D01*
X9090D01*
X9126Y9808D01*
X9158Y9826D01*
X9184Y9852D01*
X9202Y9884D01*
X9212Y9920D01*
Y9956D01*
X9202Y9992D01*
X9184Y10024D01*
X9158Y10050D01*
X9126Y10068D01*
X9090Y10077D01*
D02*
G37*
G36*
X2720Y10135D02*
X2682D01*
X2643Y10128D01*
X2607Y10113D01*
X2575Y10091D01*
X2548Y10064D01*
X2526Y10032D01*
X2511Y9996D01*
X2503Y9957D01*
Y9919D01*
X2511Y9880D01*
X2526Y9844D01*
X2548Y9812D01*
X2575Y9785D01*
X2607Y9763D01*
X2643Y9748D01*
X2682Y9740D01*
X2720D01*
X2759Y9748D01*
X2795Y9763D01*
X2827Y9785D01*
X2854Y9812D01*
X2876Y9844D01*
X2891Y9880D01*
X2899Y9919D01*
Y9957D01*
X2891Y9996D01*
X2876Y10032D01*
X2854Y10064D01*
X2827Y10091D01*
X2795Y10113D01*
X2759Y10128D01*
X2720Y10135D01*
D02*
G37*
G36*
X2667Y9476D02*
X2633D01*
X2600Y9467D01*
X2571Y9450D01*
X2547Y9426D01*
X2530Y9397D01*
X2521Y9364D01*
Y9330D01*
X2530Y9297D01*
X2547Y9268D01*
X2571Y9244D01*
X2600Y9227D01*
X2633Y9218D01*
X2667D01*
X2700Y9227D01*
X2729Y9244D01*
X2753Y9268D01*
X2770Y9297D01*
X2779Y9330D01*
Y9364D01*
X2770Y9397D01*
X2753Y9426D01*
X2729Y9450D01*
X2700Y9467D01*
X2667Y9476D01*
D02*
G37*
G36*
X3455Y9487D02*
X3419D01*
X3383Y9477D01*
X3351Y9459D01*
X3325Y9433D01*
X3307Y9401D01*
X3298Y9365D01*
Y9329D01*
X3307Y9293D01*
X3325Y9261D01*
X3351Y9235D01*
X3383Y9217D01*
X3419Y9208D01*
X3455D01*
X3491Y9217D01*
X3523Y9235D01*
X3549Y9261D01*
X3567Y9293D01*
X3577Y9329D01*
Y9365D01*
X3567Y9401D01*
X3549Y9433D01*
X3523Y9459D01*
X3491Y9477D01*
X3455Y9487D01*
D02*
G37*
G36*
X9557Y9484D02*
X9508D01*
X9506Y9484D01*
X9504D01*
X9456Y9474D01*
X9454Y9474D01*
X9452Y9473D01*
X9407Y9454D01*
X9405Y9453D01*
X9403Y9452D01*
X9362Y9425D01*
X9361Y9424D01*
X9359Y9422D01*
X9324Y9388D01*
X9323Y9386D01*
X9322Y9385D01*
X9294Y9344D01*
X9294Y9342D01*
X9292Y9340D01*
X9274Y9295D01*
X9273Y9293D01*
X9272Y9291D01*
X9263Y9242D01*
Y9240D01*
X9262Y9239D01*
Y9189D01*
X9263Y9187D01*
Y9185D01*
X9272Y9137D01*
X9273Y9135D01*
X9274Y9133D01*
X9292Y9088D01*
X9294Y9086D01*
X9294Y9084D01*
X9322Y9043D01*
X9323Y9042D01*
X9324Y9040D01*
X9359Y9005D01*
X9361Y9004D01*
X9362Y9003D01*
X9403Y8975D01*
X9405Y8975D01*
X9407Y8974D01*
X9452Y8955D01*
X9454Y8954D01*
X9456Y8954D01*
X9504Y8944D01*
X9506D01*
X9508Y8944D01*
X9557D01*
X9559Y8944D01*
X9561D01*
X9610Y8954D01*
X9612Y8954D01*
X9614Y8955D01*
X9659Y8974D01*
X9661Y8975D01*
X9663Y8975D01*
X9704Y9003D01*
X9705Y9004D01*
X9707Y9005D01*
X9741Y9040D01*
X9743Y9042D01*
X9744Y9043D01*
X9771Y9084D01*
X9772Y9086D01*
X9773Y9088D01*
X9792Y9133D01*
X9792Y9135D01*
X9793Y9137D01*
X9803Y9185D01*
Y9187D01*
X9803Y9189D01*
Y9239D01*
X9803Y9240D01*
Y9242D01*
X9793Y9291D01*
X9792Y9293D01*
X9792Y9295D01*
X9773Y9340D01*
X9772Y9342D01*
X9771Y9344D01*
X9744Y9385D01*
X9743Y9386D01*
X9741Y9388D01*
X9707Y9422D01*
X9705Y9424D01*
X9704Y9425D01*
X9663Y9452D01*
X9661Y9453D01*
X9659Y9454D01*
X9614Y9473D01*
X9612Y9474D01*
X9610Y9474D01*
X9561Y9484D01*
X9559D01*
X9557Y9484D01*
D02*
G37*
G36*
X11172Y9120D02*
X11128D01*
X11086Y9112D01*
X11046Y9095D01*
X11010Y9071D01*
X10979Y9040D01*
X10955Y9004D01*
X10938Y8964D01*
X10930Y8922D01*
Y8878D01*
X10938Y8836D01*
X10955Y8796D01*
X10979Y8760D01*
X11010Y8729D01*
X11046Y8705D01*
X11086Y8688D01*
X11128Y8680D01*
X11172D01*
X11214Y8688D01*
X11254Y8705D01*
X11290Y8729D01*
X11321Y8760D01*
X11345Y8796D01*
X11362Y8836D01*
X11370Y8878D01*
Y8922D01*
X11362Y8964D01*
X11345Y9004D01*
X11321Y9040D01*
X11290Y9071D01*
X11254Y9095D01*
X11214Y9112D01*
X11172Y9120D01*
D02*
G37*
G36*
X1882Y8693D02*
X1844D01*
X1805Y8686D01*
X1769Y8671D01*
X1737Y8649D01*
X1710Y8622D01*
X1688Y8590D01*
X1673Y8554D01*
X1665Y8515D01*
Y8477D01*
X1673Y8438D01*
X1688Y8402D01*
X1710Y8370D01*
X1737Y8343D01*
X1769Y8321D01*
X1805Y8306D01*
X1844Y8299D01*
X1882D01*
X1921Y8306D01*
X1957Y8321D01*
X1989Y8343D01*
X2016Y8370D01*
X2038Y8402D01*
X2053Y8438D01*
X2060Y8477D01*
Y8515D01*
X2053Y8554D01*
X2038Y8590D01*
X2016Y8622D01*
X1989Y8649D01*
X1957Y8671D01*
X1921Y8686D01*
X1882Y8693D01*
D02*
G37*
G36*
X10232Y8482D02*
X10018D01*
Y8268D01*
X10232D01*
Y8482D01*
D02*
G37*
G36*
X9689D02*
X9661D01*
X9634Y8474D01*
X9610Y8460D01*
X9590Y8440D01*
X9576Y8416D01*
X9568Y8389D01*
Y8361D01*
X9576Y8334D01*
X9590Y8310D01*
X9610Y8290D01*
X9634Y8276D01*
X9661Y8268D01*
X9689D01*
X9716Y8276D01*
X9740Y8290D01*
X9760Y8310D01*
X9774Y8334D01*
X9782Y8361D01*
Y8389D01*
X9774Y8416D01*
X9760Y8440D01*
X9740Y8460D01*
X9716Y8474D01*
X9689Y8482D01*
D02*
G37*
G36*
X9528D02*
X9314D01*
Y8268D01*
X9528D01*
Y8482D01*
D02*
G37*
G36*
X11013Y8200D02*
X10987D01*
X10963Y8193D01*
X10941Y8180D01*
X10924Y8163D01*
X10911Y8141D01*
X10904Y8117D01*
Y8091D01*
X10911Y8067D01*
X10924Y8045D01*
X10941Y8028D01*
X10963Y8015D01*
X10987Y8008D01*
X11013D01*
X11037Y8015D01*
X11059Y8028D01*
X11076Y8045D01*
X11089Y8067D01*
X11096Y8091D01*
Y8117D01*
X11089Y8141D01*
X11076Y8163D01*
X11059Y8180D01*
X11037Y8193D01*
X11013Y8200D01*
D02*
G37*
G36*
X10060Y7757D02*
X9962D01*
X9961Y7756D01*
X9961Y7757D01*
X9863Y7749D01*
X9862Y7749D01*
X9861Y7749D01*
X9764Y7733D01*
X9763Y7733D01*
X9762Y7733D01*
X9667Y7710D01*
X9666Y7710D01*
X9665Y7710D01*
X9572Y7679D01*
X9571Y7679D01*
X9570Y7679D01*
X9480Y7641D01*
X9479Y7641D01*
X9478Y7640D01*
X9391Y7596D01*
X9390Y7595D01*
X9389Y7595D01*
X9306Y7544D01*
X9305Y7543D01*
X9304Y7543D01*
X9225Y7485D01*
X9224Y7484D01*
X9224Y7484D01*
X9149Y7420D01*
X9148Y7420D01*
X9148Y7419D01*
X9078Y7350D01*
X9078Y7349D01*
X9077Y7349D01*
X9013Y7274D01*
X9013Y7273D01*
X9012Y7273D01*
X8955Y7193D01*
X8954Y7192D01*
X8954Y7192D01*
X8902Y7108D01*
X8902Y7107D01*
X8902Y7107D01*
X8857Y7019D01*
X8857Y7018D01*
X8856Y7018D01*
X8819Y6927D01*
X8819Y6926D01*
X8818Y6925D01*
X8788Y6832D01*
X8788Y6831D01*
X8787Y6831D01*
X8765Y6735D01*
X8764Y6734D01*
X8764Y6733D01*
X8749Y6636D01*
X8749Y6636D01*
X8749Y6635D01*
X8741Y6537D01*
X8741Y6536D01*
X8741Y6535D01*
Y6437D01*
X8741Y6436D01*
X8741Y6435D01*
X8749Y6338D01*
X8749Y6337D01*
X8749Y6336D01*
X8764Y6239D01*
X8764Y6238D01*
X8765Y6237D01*
X8787Y6142D01*
X8788Y6141D01*
X8788Y6140D01*
X8818Y6047D01*
X8819Y6046D01*
X8819Y6045D01*
X8856Y5955D01*
X8857Y5954D01*
X8857Y5953D01*
X8902Y5866D01*
X8902Y5865D01*
X8902Y5864D01*
X8954Y5781D01*
X8954Y5780D01*
X8955Y5779D01*
X9012Y5700D01*
X9013Y5699D01*
X9013Y5698D01*
X9077Y5624D01*
X9078Y5623D01*
X9078Y5623D01*
X9148Y5553D01*
X9148Y5553D01*
X9149Y5552D01*
X9224Y5488D01*
X9224Y5488D01*
X9225Y5487D01*
X9304Y5430D01*
X9305Y5429D01*
X9306Y5429D01*
X9389Y5377D01*
X9390Y5377D01*
X9391Y5377D01*
X9478Y5332D01*
X9479Y5332D01*
X9480Y5331D01*
X9570Y5294D01*
X9571Y5294D01*
X9572Y5293D01*
X9665Y5263D01*
X9666Y5263D01*
X9667Y5262D01*
X9762Y5239D01*
X9763Y5239D01*
X9764Y5239D01*
X9861Y5224D01*
X9862Y5224D01*
X9863Y5224D01*
X9961Y5216D01*
X9961Y5216D01*
X9962Y5216D01*
X10060D01*
X10061Y5216D01*
X10062Y5216D01*
X10160Y5224D01*
X10161Y5224D01*
X10161Y5224D01*
X10259Y5239D01*
X10259Y5239D01*
X10260Y5239D01*
X10356Y5262D01*
X10356Y5263D01*
X10357Y5263D01*
X10451Y5293D01*
X10451Y5294D01*
X10452Y5294D01*
X10543Y5331D01*
X10543Y5332D01*
X10544Y5332D01*
X10632Y5377D01*
X10632Y5377D01*
X10633Y5377D01*
X10717Y5429D01*
X10718Y5429D01*
X10718Y5430D01*
X10798Y5487D01*
X10798Y5488D01*
X10799Y5488D01*
X10874Y5552D01*
X10874Y5553D01*
X10875Y5553D01*
X10944Y5623D01*
X10945Y5623D01*
X10945Y5624D01*
X11009Y5698D01*
X11010Y5699D01*
X11010Y5700D01*
X11068Y5779D01*
X11068Y5780D01*
X11069Y5781D01*
X11120Y5864D01*
X11120Y5865D01*
X11121Y5866D01*
X11165Y5953D01*
X11166Y5954D01*
X11166Y5955D01*
X11204Y6045D01*
X11204Y6046D01*
X11204Y6047D01*
X11235Y6140D01*
X11235Y6141D01*
X11235Y6142D01*
X11258Y6237D01*
X11258Y6238D01*
X11258Y6239D01*
X11274Y6336D01*
X11274Y6337D01*
X11274Y6338D01*
X11282Y6435D01*
X11282Y6436D01*
X11282Y6437D01*
Y6535D01*
X11282Y6536D01*
X11282Y6537D01*
X11274Y6635D01*
X11274Y6636D01*
X11274Y6636D01*
X11258Y6733D01*
X11258Y6734D01*
X11258Y6735D01*
X11235Y6831D01*
X11235Y6831D01*
X11235Y6832D01*
X11204Y6925D01*
X11204Y6926D01*
X11204Y6927D01*
X11166Y7018D01*
X11166Y7018D01*
X11165Y7019D01*
X11121Y7107D01*
X11120Y7107D01*
X11120Y7108D01*
X11069Y7192D01*
X11068Y7192D01*
X11068Y7193D01*
X11010Y7273D01*
X11010Y7273D01*
X11009Y7274D01*
X10945Y7349D01*
X10945Y7349D01*
X10944Y7350D01*
X10875Y7419D01*
X10874Y7420D01*
X10874Y7420D01*
X10799Y7484D01*
X10798Y7484D01*
X10798Y7485D01*
X10718Y7543D01*
X10718Y7543D01*
X10717Y7544D01*
X10633Y7595D01*
X10632Y7595D01*
X10632Y7596D01*
X10544Y7640D01*
X10543Y7641D01*
X10543Y7641D01*
X10452Y7679D01*
X10451Y7679D01*
X10451Y7679D01*
X10357Y7710D01*
X10356Y7710D01*
X10356Y7710D01*
X10260Y7733D01*
X10259Y7733D01*
X10259Y7733D01*
X10161Y7749D01*
X10161Y7749D01*
X10160Y7749D01*
X10062Y7757D01*
X10061Y7756D01*
X10060Y7757D01*
D02*
G37*
G36*
X11013Y7946D02*
X10987D01*
X10963Y7939D01*
X10941Y7926D01*
X10924Y7909D01*
X10911Y7887D01*
X10904Y7863D01*
Y7837D01*
X10911Y7813D01*
X10924Y7791D01*
X10941Y7774D01*
X10963Y7761D01*
X10987Y7754D01*
X11013D01*
X11037Y7761D01*
X11059Y7774D01*
X11076Y7791D01*
X11089Y7813D01*
X11096Y7837D01*
Y7863D01*
X11089Y7887D01*
X11076Y7909D01*
X11059Y7926D01*
X11037Y7939D01*
X11013Y7946D01*
D02*
G37*
G36*
Y7692D02*
X10987D01*
X10963Y7685D01*
X10941Y7672D01*
X10924Y7655D01*
X10911Y7633D01*
X10904Y7609D01*
Y7583D01*
X10911Y7559D01*
X10924Y7537D01*
X10941Y7520D01*
X10963Y7507D01*
X10987Y7500D01*
X11013D01*
X11037Y7507D01*
X11059Y7520D01*
X11076Y7537D01*
X11089Y7559D01*
X11096Y7583D01*
Y7609D01*
X11089Y7633D01*
X11076Y7655D01*
X11059Y7672D01*
X11037Y7685D01*
X11013Y7692D01*
D02*
G37*
G36*
X6042Y7621D02*
X6016D01*
X5992Y7614D01*
X5970Y7601D01*
X5953Y7584D01*
X5940Y7562D01*
X5933Y7538D01*
Y7512D01*
X5940Y7488D01*
X5953Y7466D01*
X5970Y7449D01*
X5992Y7436D01*
X6016Y7429D01*
X6042D01*
X6066Y7436D01*
X6088Y7449D01*
X6105Y7466D01*
X6118Y7488D01*
X6124Y7512D01*
Y7538D01*
X6118Y7562D01*
X6105Y7584D01*
X6088Y7601D01*
X6066Y7614D01*
X6042Y7621D01*
D02*
G37*
G36*
X5534D02*
X5508D01*
X5484Y7614D01*
X5462Y7601D01*
X5445Y7584D01*
X5432Y7562D01*
X5426Y7538D01*
Y7512D01*
X5432Y7488D01*
X5445Y7466D01*
X5462Y7449D01*
X5484Y7436D01*
X5508Y7429D01*
X5534D01*
X5558Y7436D01*
X5580Y7449D01*
X5597Y7466D01*
X5610Y7488D01*
X5617Y7512D01*
Y7538D01*
X5610Y7562D01*
X5597Y7584D01*
X5580Y7601D01*
X5558Y7614D01*
X5534Y7621D01*
D02*
G37*
G36*
X5280D02*
X5254D01*
X5230Y7614D01*
X5208Y7601D01*
X5191Y7584D01*
X5178Y7562D01*
X5172Y7538D01*
Y7512D01*
X5178Y7488D01*
X5191Y7466D01*
X5208Y7449D01*
X5230Y7436D01*
X5254Y7429D01*
X5280D01*
X5304Y7436D01*
X5326Y7449D01*
X5343Y7466D01*
X5356Y7488D01*
X5362Y7512D01*
Y7538D01*
X5356Y7562D01*
X5343Y7584D01*
X5326Y7601D01*
X5304Y7614D01*
X5280Y7621D01*
D02*
G37*
G36*
X8082Y7486D02*
X7868D01*
Y7272D01*
X8082D01*
Y7486D01*
D02*
G37*
G36*
X7207D02*
X6993D01*
Y7272D01*
X7207D01*
Y7486D01*
D02*
G37*
G36*
X4539Y7276D02*
X4511D01*
X4484Y7269D01*
X4460Y7255D01*
X4440Y7235D01*
X4426Y7211D01*
X4419Y7184D01*
Y7156D01*
X4426Y7129D01*
X4440Y7105D01*
X4460Y7085D01*
X4484Y7071D01*
X4511Y7064D01*
X4539D01*
X4566Y7071D01*
X4590Y7085D01*
X4610Y7105D01*
X4624Y7129D01*
X4631Y7156D01*
Y7184D01*
X4624Y7211D01*
X4610Y7235D01*
X4590Y7255D01*
X4566Y7269D01*
X4539Y7276D01*
D02*
G37*
G36*
X7989Y7232D02*
X7961D01*
X7934Y7224D01*
X7910Y7210D01*
X7890Y7190D01*
X7876Y7166D01*
X7868Y7139D01*
Y7111D01*
X7876Y7084D01*
X7890Y7060D01*
X7910Y7040D01*
X7934Y7026D01*
X7961Y7018D01*
X7989D01*
X8016Y7026D01*
X8040Y7040D01*
X8060Y7060D01*
X8074Y7084D01*
X8082Y7111D01*
Y7139D01*
X8074Y7166D01*
X8060Y7190D01*
X8040Y7210D01*
X8016Y7224D01*
X7989Y7232D01*
D02*
G37*
G36*
X7114D02*
X7086D01*
X7059Y7224D01*
X7035Y7210D01*
X7015Y7190D01*
X7001Y7166D01*
X6993Y7139D01*
Y7111D01*
X7001Y7084D01*
X7015Y7060D01*
X7035Y7040D01*
X7059Y7026D01*
X7086Y7018D01*
X7114D01*
X7141Y7026D01*
X7165Y7040D01*
X7185Y7060D01*
X7199Y7084D01*
X7207Y7111D01*
Y7139D01*
X7199Y7166D01*
X7185Y7190D01*
X7165Y7210D01*
X7141Y7224D01*
X7114Y7232D01*
D02*
G37*
G36*
X5563Y7131D02*
X5537D01*
X5513Y7124D01*
X5491Y7111D01*
X5474Y7094D01*
X5461Y7072D01*
X5454Y7048D01*
Y7022D01*
X5461Y6998D01*
X5474Y6976D01*
X5491Y6959D01*
X5513Y6946D01*
X5537Y6939D01*
X5563D01*
X5587Y6946D01*
X5609Y6959D01*
X5626Y6976D01*
X5639Y6998D01*
X5646Y7022D01*
Y7048D01*
X5639Y7072D01*
X5626Y7094D01*
X5609Y7111D01*
X5587Y7124D01*
X5563Y7131D01*
D02*
G37*
G36*
X4539Y6976D02*
X4511D01*
X4484Y6969D01*
X4460Y6955D01*
X4440Y6935D01*
X4426Y6911D01*
X4419Y6884D01*
Y6856D01*
X4426Y6829D01*
X4440Y6805D01*
X4460Y6785D01*
X4484Y6771D01*
X4511Y6764D01*
X4539D01*
X4566Y6771D01*
X4590Y6785D01*
X4610Y6805D01*
X4624Y6829D01*
X4631Y6856D01*
Y6884D01*
X4624Y6911D01*
X4610Y6935D01*
X4590Y6955D01*
X4566Y6969D01*
X4539Y6976D01*
D02*
G37*
G36*
X4631Y6676D02*
X4419D01*
Y6464D01*
X4631D01*
Y6676D01*
D02*
G37*
G36*
X8545Y6513D02*
X8405D01*
Y6378D01*
X8442D01*
Y6292D01*
X8415D01*
Y6172D01*
X8535D01*
Y6292D01*
X8508D01*
Y6378D01*
X8545D01*
Y6513D01*
D02*
G37*
G36*
X8535Y6128D02*
X8415D01*
Y6102D01*
X8402Y6100D01*
X8394Y6108D01*
X8376Y6116D01*
X8356D01*
X8338Y6108D01*
X8324Y6094D01*
X8316Y6076D01*
Y6056D01*
X8324Y6038D01*
X8338Y6024D01*
X8356Y6016D01*
X8376D01*
X8394Y6024D01*
X8402Y6032D01*
X8415Y6030D01*
Y6008D01*
X8535D01*
Y6128D01*
D02*
G37*
G36*
X6356Y6010D02*
X6144D01*
Y5797D01*
X6356D01*
Y6010D01*
D02*
G37*
G36*
X5670Y5992D02*
X5530D01*
Y5858D01*
X5564D01*
Y5792D01*
X5540D01*
Y5672D01*
X5660D01*
Y5792D01*
X5636D01*
Y5858D01*
X5670D01*
Y5992D01*
D02*
G37*
G36*
X8633Y5796D02*
X8607D01*
X8583Y5789D01*
X8561Y5776D01*
X8544Y5759D01*
X8531Y5737D01*
X8524Y5713D01*
Y5687D01*
X8531Y5663D01*
X8544Y5641D01*
X8561Y5624D01*
X8583Y5611D01*
X8607Y5605D01*
X8633D01*
X8657Y5611D01*
X8679Y5624D01*
X8696Y5641D01*
X8709Y5663D01*
X8715Y5687D01*
Y5713D01*
X8709Y5737D01*
X8696Y5759D01*
X8679Y5776D01*
X8657Y5789D01*
X8633Y5796D01*
D02*
G37*
G36*
X8379D02*
X8353D01*
X8329Y5789D01*
X8307Y5776D01*
X8290Y5759D01*
X8277Y5737D01*
X8270Y5713D01*
Y5687D01*
X8277Y5663D01*
X8290Y5641D01*
X8307Y5624D01*
X8329Y5611D01*
X8353Y5605D01*
X8379D01*
X8403Y5611D01*
X8425Y5624D01*
X8442Y5641D01*
X8455Y5663D01*
X8461Y5687D01*
Y5713D01*
X8455Y5737D01*
X8442Y5759D01*
X8425Y5776D01*
X8403Y5789D01*
X8379Y5796D01*
D02*
G37*
G36*
X8125D02*
X8099D01*
X8075Y5789D01*
X8053Y5776D01*
X8036Y5759D01*
X8023Y5737D01*
X8016Y5713D01*
Y5687D01*
X8023Y5663D01*
X8036Y5641D01*
X8053Y5624D01*
X8075Y5611D01*
X8099Y5605D01*
X8125D01*
X8149Y5611D01*
X8171Y5624D01*
X8188Y5641D01*
X8201Y5663D01*
X8207Y5687D01*
Y5713D01*
X8201Y5737D01*
X8188Y5759D01*
X8171Y5776D01*
X8149Y5789D01*
X8125Y5796D01*
D02*
G37*
G36*
X7871D02*
X7845D01*
X7821Y5789D01*
X7799Y5776D01*
X7782Y5759D01*
X7769Y5737D01*
X7762Y5713D01*
Y5687D01*
X7769Y5663D01*
X7782Y5641D01*
X7799Y5624D01*
X7821Y5611D01*
X7845Y5605D01*
X7871D01*
X7895Y5611D01*
X7917Y5624D01*
X7934Y5641D01*
X7947Y5663D01*
X7953Y5687D01*
Y5713D01*
X7947Y5737D01*
X7934Y5759D01*
X7917Y5776D01*
X7895Y5789D01*
X7871Y5796D01*
D02*
G37*
G36*
X7617D02*
X7591D01*
X7567Y5789D01*
X7545Y5776D01*
X7528Y5759D01*
X7515Y5737D01*
X7508Y5713D01*
Y5687D01*
X7515Y5663D01*
X7528Y5641D01*
X7545Y5624D01*
X7567Y5611D01*
X7591Y5605D01*
X7617D01*
X7641Y5611D01*
X7663Y5624D01*
X7680Y5641D01*
X7693Y5663D01*
X7699Y5687D01*
Y5713D01*
X7693Y5737D01*
X7680Y5759D01*
X7663Y5776D01*
X7641Y5789D01*
X7617Y5796D01*
D02*
G37*
G36*
X7363D02*
X7337D01*
X7313Y5789D01*
X7291Y5776D01*
X7274Y5759D01*
X7261Y5737D01*
X7254Y5713D01*
Y5687D01*
X7261Y5663D01*
X7274Y5641D01*
X7291Y5624D01*
X7313Y5611D01*
X7337Y5605D01*
X7363D01*
X7387Y5611D01*
X7409Y5624D01*
X7426Y5641D01*
X7439Y5663D01*
X7445Y5687D01*
Y5713D01*
X7439Y5737D01*
X7426Y5759D01*
X7409Y5776D01*
X7387Y5789D01*
X7363Y5796D01*
D02*
G37*
G36*
X6855D02*
X6829D01*
X6805Y5789D01*
X6783Y5776D01*
X6766Y5759D01*
X6753Y5737D01*
X6746Y5713D01*
Y5687D01*
X6753Y5663D01*
X6766Y5641D01*
X6783Y5624D01*
X6805Y5611D01*
X6829Y5605D01*
X6855D01*
X6879Y5611D01*
X6901Y5624D01*
X6918Y5641D01*
X6931Y5663D01*
X6937Y5687D01*
Y5713D01*
X6931Y5737D01*
X6918Y5759D01*
X6901Y5776D01*
X6879Y5789D01*
X6855Y5796D01*
D02*
G37*
G36*
X4197Y6020D02*
X4153D01*
X4111Y6012D01*
X4071Y5995D01*
X4035Y5971D01*
X4004Y5940D01*
X3980Y5904D01*
X3963Y5864D01*
X3955Y5822D01*
Y5778D01*
X3963Y5736D01*
X3980Y5696D01*
X4004Y5660D01*
X4035Y5629D01*
X4071Y5605D01*
X4111Y5588D01*
X4153Y5580D01*
X4197D01*
X4239Y5588D01*
X4279Y5605D01*
X4315Y5629D01*
X4346Y5660D01*
X4370Y5696D01*
X4387Y5736D01*
X4395Y5778D01*
Y5822D01*
X4387Y5864D01*
X4370Y5904D01*
X4346Y5940D01*
X4315Y5971D01*
X4279Y5995D01*
X4239Y6012D01*
X4197Y6020D01*
D02*
G37*
G36*
X6264Y5756D02*
X6236D01*
X6209Y5749D01*
X6185Y5735D01*
X6165Y5715D01*
X6151Y5691D01*
X6144Y5664D01*
Y5636D01*
X6151Y5609D01*
X6165Y5585D01*
X6185Y5565D01*
X6209Y5551D01*
X6236Y5544D01*
X6264D01*
X6291Y5551D01*
X6315Y5565D01*
X6335Y5585D01*
X6349Y5609D01*
X6356Y5636D01*
Y5664D01*
X6349Y5691D01*
X6335Y5715D01*
X6315Y5735D01*
X6291Y5749D01*
X6264Y5756D01*
D02*
G37*
G36*
X4527Y5431D02*
X4506D01*
X4485Y5425D01*
X4467Y5415D01*
X4452Y5400D01*
X4441Y5381D01*
X4435Y5361D01*
Y5339D01*
X4441Y5319D01*
X4452Y5300D01*
X4467Y5285D01*
X4485Y5275D01*
X4506Y5269D01*
X4527D01*
X4548Y5275D01*
X4566Y5285D01*
X4581Y5300D01*
X4592Y5319D01*
X4597Y5339D01*
Y5361D01*
X4592Y5381D01*
X4581Y5400D01*
X4566Y5415D01*
X4548Y5425D01*
X4527Y5431D01*
D02*
G37*
G36*
X5660Y5628D02*
X5540D01*
Y5508D01*
X5564D01*
Y5379D01*
X5563Y5379D01*
X5541Y5366D01*
X5524Y5349D01*
X5511Y5327D01*
X5504Y5303D01*
Y5277D01*
X5511Y5253D01*
X5524Y5231D01*
X5541Y5214D01*
X5563Y5201D01*
X5587Y5194D01*
X5613D01*
X5637Y5201D01*
X5659Y5214D01*
X5676Y5231D01*
X5689Y5253D01*
X5696Y5277D01*
Y5303D01*
X5689Y5327D01*
X5676Y5349D01*
X5659Y5366D01*
X5637Y5379D01*
X5636Y5379D01*
Y5508D01*
X5660D01*
Y5628D01*
D02*
G37*
G36*
X6214Y5210D02*
X6186D01*
X6159Y5203D01*
X6135Y5189D01*
X6115Y5169D01*
X6101Y5145D01*
X6094Y5118D01*
Y5090D01*
X6101Y5063D01*
X6115Y5039D01*
X6135Y5019D01*
X6159Y5005D01*
X6186Y4997D01*
X6214D01*
X6241Y5005D01*
X6265Y5019D01*
X6285Y5039D01*
X6299Y5063D01*
X6306Y5090D01*
Y5118D01*
X6299Y5145D01*
X6285Y5169D01*
X6265Y5189D01*
X6241Y5203D01*
X6214Y5210D01*
D02*
G37*
G36*
X4391Y5151D02*
X4323D01*
X4309Y5148D01*
X4298Y5140D01*
X4251Y5093D01*
X4243Y5081D01*
X4240Y5068D01*
Y4944D01*
X4243Y4930D01*
X4251Y4918D01*
X4266Y4903D01*
X4262Y4891D01*
X4205D01*
X4190Y4888D01*
X4176Y4879D01*
X4176Y4879D01*
X4021Y4724D01*
X4012Y4710D01*
X4009Y4695D01*
X4009Y4695D01*
Y4337D01*
X3991Y4326D01*
X3974Y4309D01*
X3961Y4287D01*
X3954Y4263D01*
Y4237D01*
X3961Y4213D01*
X3974Y4191D01*
X3991Y4174D01*
X4013Y4161D01*
X4037Y4154D01*
X4063D01*
X4087Y4161D01*
X4109Y4174D01*
X4126Y4191D01*
X4139Y4213D01*
X4146Y4237D01*
Y4263D01*
X4139Y4287D01*
X4126Y4309D01*
X4109Y4326D01*
X4091Y4337D01*
Y4678D01*
X4222Y4809D01*
X4390D01*
X4406Y4812D01*
X4409Y4814D01*
X4600D01*
X4603Y4815D01*
X4662D01*
X4662Y4815D01*
Y4815D01*
X4668Y4810D01*
X4672Y4808D01*
X4672Y4808D01*
X4672Y4807D01*
X4690Y4800D01*
X4710D01*
X4728Y4808D01*
X4742Y4822D01*
X4750Y4840D01*
Y4860D01*
X4742Y4878D01*
X4728Y4892D01*
X4727Y4893D01*
Y4907D01*
X4728Y4908D01*
X4742Y4922D01*
X4750Y4940D01*
Y4960D01*
X4746Y4969D01*
X4756Y4979D01*
X4765Y4975D01*
X4785D01*
X4803Y4983D01*
X4817Y4997D01*
X4825Y5015D01*
Y5035D01*
X4817Y5053D01*
X4803Y5067D01*
X4785Y5075D01*
X4765D01*
X4747Y5067D01*
X4740Y5061D01*
X4668D01*
X4662Y5073D01*
Y5135D01*
X4603D01*
X4600Y5136D01*
X4420D01*
X4416Y5140D01*
X4404Y5148D01*
X4391Y5151D01*
D02*
G37*
G36*
X11013Y5151D02*
X10987D01*
X10963Y5145D01*
X10941Y5132D01*
X10924Y5115D01*
X10911Y5093D01*
X10904Y5069D01*
Y5043D01*
X10911Y5019D01*
X10924Y4997D01*
X10941Y4980D01*
X10963Y4967D01*
X10987Y4960D01*
X11013D01*
X11037Y4967D01*
X11059Y4980D01*
X11076Y4997D01*
X11089Y5019D01*
X11096Y5043D01*
Y5069D01*
X11089Y5093D01*
X11076Y5115D01*
X11059Y5132D01*
X11037Y5145D01*
X11013Y5151D01*
D02*
G37*
G36*
X6306Y4956D02*
X6094D01*
Y4744D01*
X6306D01*
Y4956D01*
D02*
G37*
G36*
X11013Y4897D02*
X10987D01*
X10963Y4891D01*
X10941Y4878D01*
X10924Y4861D01*
X10911Y4839D01*
X10904Y4815D01*
Y4789D01*
X10911Y4765D01*
X10924Y4743D01*
X10941Y4726D01*
X10963Y4713D01*
X10987Y4706D01*
X11013D01*
X11037Y4713D01*
X11059Y4726D01*
X11076Y4743D01*
X11089Y4765D01*
X11096Y4789D01*
Y4815D01*
X11089Y4839D01*
X11076Y4861D01*
X11059Y4878D01*
X11037Y4891D01*
X11013Y4897D01*
D02*
G37*
G36*
X4527Y4655D02*
X4506D01*
X4485Y4647D01*
X4470Y4631D01*
X4462Y4611D01*
Y4589D01*
X4470Y4569D01*
X4485Y4553D01*
X4506Y4545D01*
X4527D01*
X4548Y4553D01*
X4563Y4569D01*
X4572Y4589D01*
Y4611D01*
X4563Y4631D01*
X4548Y4647D01*
X4527Y4655D01*
D02*
G37*
G36*
X9272Y4920D02*
X9228D01*
X9186Y4912D01*
X9146Y4895D01*
X9110Y4871D01*
X9079Y4840D01*
X9055Y4804D01*
X9038Y4764D01*
X9030Y4722D01*
Y4678D01*
X9038Y4636D01*
X9055Y4596D01*
X9079Y4560D01*
X9110Y4529D01*
X9146Y4505D01*
X9186Y4488D01*
X9228Y4480D01*
X9272D01*
X9314Y4488D01*
X9354Y4505D01*
X9390Y4529D01*
X9421Y4560D01*
X9445Y4596D01*
X9462Y4636D01*
X9470Y4678D01*
Y4722D01*
X9462Y4764D01*
X9445Y4804D01*
X9421Y4840D01*
X9390Y4871D01*
X9354Y4895D01*
X9314Y4912D01*
X9272Y4920D01*
D02*
G37*
G36*
X11013Y4644D02*
X10987D01*
X10963Y4637D01*
X10941Y4624D01*
X10924Y4607D01*
X10911Y4585D01*
X10904Y4561D01*
Y4535D01*
X10911Y4511D01*
X10924Y4489D01*
X10941Y4472D01*
X10963Y4459D01*
X10987Y4453D01*
X11013D01*
X11037Y4459D01*
X11059Y4472D01*
X11076Y4489D01*
X11089Y4511D01*
X11096Y4535D01*
Y4561D01*
X11089Y4585D01*
X11076Y4607D01*
X11059Y4624D01*
X11037Y4637D01*
X11013Y4644D01*
D02*
G37*
G36*
X8295Y4545D02*
X8195D01*
Y4355D01*
X8209D01*
Y4324D01*
X8150Y4264D01*
X8149Y4265D01*
X8125Y4272D01*
X8099D01*
X8075Y4265D01*
X8053Y4252D01*
X8036Y4235D01*
X8023Y4213D01*
X8016Y4189D01*
Y4163D01*
X8023Y4139D01*
X8036Y4117D01*
X8053Y4100D01*
X8075Y4087D01*
X8099Y4081D01*
X8125D01*
X8149Y4087D01*
X8171Y4100D01*
X8188Y4117D01*
X8201Y4139D01*
X8207Y4163D01*
Y4189D01*
X8201Y4213D01*
X8200Y4214D01*
X8270Y4284D01*
X8278Y4295D01*
X8281Y4309D01*
Y4355D01*
X8295D01*
Y4545D01*
D02*
G37*
G36*
X11013Y4390D02*
X10987D01*
X10963Y4383D01*
X10941Y4370D01*
X10924Y4353D01*
X10911Y4331D01*
X10904Y4307D01*
Y4281D01*
X10911Y4257D01*
X10924Y4235D01*
X10941Y4218D01*
X10963Y4205D01*
X10987Y4199D01*
X11013D01*
X11037Y4205D01*
X11059Y4218D01*
X11076Y4235D01*
X11089Y4257D01*
X11096Y4281D01*
Y4307D01*
X11089Y4331D01*
X11076Y4353D01*
X11059Y4370D01*
X11037Y4383D01*
X11013Y4390D01*
D02*
G37*
G36*
X8555Y4545D02*
X8455D01*
Y4355D01*
X8505D01*
X8582Y4277D01*
X8582Y4274D01*
X8581Y4264D01*
X8561Y4252D01*
X8544Y4235D01*
X8531Y4213D01*
X8524Y4189D01*
Y4163D01*
X8531Y4139D01*
X8544Y4117D01*
X8561Y4100D01*
X8583Y4087D01*
X8607Y4081D01*
X8633D01*
X8657Y4087D01*
X8679Y4100D01*
X8696Y4117D01*
X8709Y4139D01*
X8715Y4163D01*
Y4189D01*
X8709Y4213D01*
X8696Y4235D01*
X8679Y4252D01*
X8657Y4265D01*
X8656Y4265D01*
Y4290D01*
X8653Y4304D01*
X8645Y4315D01*
X8555Y4405D01*
Y4545D01*
D02*
G37*
G36*
X8425D02*
X8325D01*
Y4355D01*
X8335D01*
Y4267D01*
X8329Y4265D01*
X8307Y4252D01*
X8290Y4235D01*
X8277Y4213D01*
X8270Y4189D01*
Y4163D01*
X8277Y4139D01*
X8290Y4117D01*
X8307Y4100D01*
X8329Y4087D01*
X8353Y4081D01*
X8379D01*
X8403Y4087D01*
X8425Y4100D01*
X8442Y4117D01*
X8455Y4139D01*
X8461Y4163D01*
Y4189D01*
X8455Y4213D01*
X8442Y4235D01*
X8425Y4252D01*
X8406Y4263D01*
Y4355D01*
X8425D01*
Y4545D01*
D02*
G37*
G36*
X7871Y4272D02*
X7845D01*
X7821Y4265D01*
X7799Y4252D01*
X7782Y4235D01*
X7769Y4213D01*
X7762Y4189D01*
Y4163D01*
X7769Y4139D01*
X7782Y4117D01*
X7799Y4100D01*
X7821Y4087D01*
X7845Y4081D01*
X7871D01*
X7895Y4087D01*
X7917Y4100D01*
X7934Y4117D01*
X7947Y4139D01*
X7953Y4163D01*
Y4189D01*
X7947Y4213D01*
X7934Y4235D01*
X7917Y4252D01*
X7895Y4265D01*
X7871Y4272D01*
D02*
G37*
G36*
X7617D02*
X7591D01*
X7567Y4265D01*
X7545Y4252D01*
X7528Y4235D01*
X7515Y4213D01*
X7508Y4189D01*
Y4163D01*
X7515Y4139D01*
X7528Y4117D01*
X7545Y4100D01*
X7567Y4087D01*
X7591Y4081D01*
X7617D01*
X7641Y4087D01*
X7663Y4100D01*
X7680Y4117D01*
X7693Y4139D01*
X7699Y4163D01*
Y4189D01*
X7693Y4213D01*
X7680Y4235D01*
X7663Y4252D01*
X7641Y4265D01*
X7617Y4272D01*
D02*
G37*
G36*
X7363D02*
X7337D01*
X7313Y4265D01*
X7291Y4252D01*
X7274Y4235D01*
X7261Y4213D01*
X7254Y4189D01*
Y4163D01*
X7261Y4139D01*
X7274Y4117D01*
X7291Y4100D01*
X7313Y4087D01*
X7337Y4081D01*
X7363D01*
X7387Y4087D01*
X7409Y4100D01*
X7426Y4117D01*
X7439Y4139D01*
X7445Y4163D01*
Y4189D01*
X7439Y4213D01*
X7426Y4235D01*
X7409Y4252D01*
X7387Y4265D01*
X7363Y4272D01*
D02*
G37*
G36*
X7109D02*
X7083D01*
X7059Y4265D01*
X7037Y4252D01*
X7020Y4235D01*
X7007Y4213D01*
X7000Y4189D01*
Y4163D01*
X7007Y4139D01*
X7020Y4117D01*
X7037Y4100D01*
X7059Y4087D01*
X7083Y4081D01*
X7109D01*
X7133Y4087D01*
X7155Y4100D01*
X7172Y4117D01*
X7185Y4139D01*
X7191Y4163D01*
Y4189D01*
X7185Y4213D01*
X7172Y4235D01*
X7155Y4252D01*
X7133Y4265D01*
X7109Y4272D01*
D02*
G37*
G36*
X6855D02*
X6829D01*
X6805Y4265D01*
X6783Y4252D01*
X6766Y4235D01*
X6753Y4213D01*
X6746Y4189D01*
Y4163D01*
X6753Y4139D01*
X6766Y4117D01*
X6783Y4100D01*
X6805Y4087D01*
X6829Y4081D01*
X6855D01*
X6879Y4087D01*
X6901Y4100D01*
X6918Y4117D01*
X6931Y4139D01*
X6937Y4163D01*
Y4189D01*
X6931Y4213D01*
X6918Y4235D01*
X6901Y4252D01*
X6879Y4265D01*
X6855Y4272D01*
D02*
G37*
G36*
X10389Y4255D02*
X10361D01*
X10334Y4248D01*
X10311Y4234D01*
X10291Y4214D01*
X10277Y4191D01*
X10270Y4164D01*
Y4136D01*
X10277Y4109D01*
X10291Y4086D01*
X10311Y4066D01*
X10334Y4052D01*
X10361Y4045D01*
X10389D01*
X10416Y4052D01*
X10439Y4066D01*
X10459Y4086D01*
X10473Y4109D01*
X10480Y4136D01*
Y4164D01*
X10473Y4191D01*
X10459Y4214D01*
X10439Y4234D01*
X10416Y4248D01*
X10389Y4255D01*
D02*
G37*
G36*
X9830D02*
X9620D01*
Y4045D01*
X9830D01*
Y4255D01*
D02*
G37*
G36*
X6225Y4545D02*
X6175D01*
X6173Y4545D01*
X6171D01*
X6123Y4535D01*
X6121Y4535D01*
X6119Y4534D01*
X6074Y4515D01*
X6072Y4514D01*
X6070Y4514D01*
X6029Y4486D01*
X6028Y4485D01*
X6026Y4484D01*
X5991Y4449D01*
X5990Y4447D01*
X5989Y4446D01*
X5961Y4405D01*
X5961Y4403D01*
X5960Y4401D01*
X5941Y4356D01*
X5940Y4354D01*
X5940Y4352D01*
X5930Y4304D01*
Y4302D01*
X5930Y4300D01*
Y4250D01*
X5930Y4248D01*
Y4246D01*
X5940Y4198D01*
X5940Y4196D01*
X5941Y4194D01*
X5960Y4149D01*
X5961Y4147D01*
X5961Y4145D01*
X5989Y4104D01*
X5990Y4103D01*
X5991Y4101D01*
X6026Y4066D01*
X6028Y4065D01*
X6029Y4064D01*
X6070Y4036D01*
X6072Y4036D01*
X6074Y4035D01*
X6119Y4016D01*
X6121Y4015D01*
X6123Y4015D01*
X6171Y4005D01*
X6173D01*
X6175Y4005D01*
X6225D01*
X6227Y4005D01*
X6229D01*
X6277Y4015D01*
X6279Y4015D01*
X6281Y4016D01*
X6326Y4035D01*
X6328Y4036D01*
X6330Y4036D01*
X6371Y4064D01*
X6372Y4065D01*
X6374Y4066D01*
X6409Y4101D01*
X6410Y4103D01*
X6411Y4104D01*
X6439Y4145D01*
X6439Y4147D01*
X6440Y4149D01*
X6459Y4194D01*
X6460Y4196D01*
X6460Y4198D01*
X6470Y4246D01*
Y4248D01*
X6470Y4250D01*
Y4300D01*
X6470Y4302D01*
Y4304D01*
X6460Y4352D01*
X6460Y4354D01*
X6459Y4356D01*
X6440Y4401D01*
X6439Y4403D01*
X6439Y4405D01*
X6411Y4446D01*
X6410Y4447D01*
X6409Y4449D01*
X6374Y4484D01*
X6372Y4485D01*
X6371Y4486D01*
X6330Y4514D01*
X6328Y4514D01*
X6326Y4515D01*
X6281Y4534D01*
X6279Y4535D01*
X6277Y4535D01*
X6229Y4545D01*
X6227D01*
X6225Y4545D01*
D02*
G37*
G36*
X4046Y3826D02*
X4010D01*
X3974Y3817D01*
X3942Y3799D01*
X3916Y3773D01*
X3898Y3741D01*
X3888Y3705D01*
Y3669D01*
X3898Y3633D01*
X3916Y3601D01*
X3942Y3575D01*
X3974Y3557D01*
X4010Y3547D01*
X4046D01*
X4082Y3557D01*
X4114Y3575D01*
X4140Y3601D01*
X4158Y3633D01*
X4167Y3669D01*
Y3705D01*
X4158Y3741D01*
X4140Y3773D01*
X4114Y3799D01*
X4082Y3817D01*
X4046Y3826D01*
D02*
G37*
G36*
X10418Y3884D02*
X10380D01*
X10341Y3877D01*
X10305Y3862D01*
X10273Y3840D01*
X10246Y3813D01*
X10224Y3781D01*
X10209Y3745D01*
X10201Y3706D01*
Y3668D01*
X10209Y3629D01*
X10224Y3593D01*
X10246Y3561D01*
X10273Y3534D01*
X10305Y3512D01*
X10341Y3497D01*
X10380Y3489D01*
X10418D01*
X10457Y3497D01*
X10493Y3512D01*
X10525Y3534D01*
X10552Y3561D01*
X10574Y3593D01*
X10589Y3629D01*
X10596Y3668D01*
Y3706D01*
X10589Y3745D01*
X10574Y3781D01*
X10552Y3813D01*
X10525Y3840D01*
X10493Y3862D01*
X10457Y3877D01*
X10418Y3884D01*
D02*
G37*
G36*
X3456Y3174D02*
X3418D01*
X3379Y3166D01*
X3343Y3151D01*
X3311Y3129D01*
X3284Y3102D01*
X3262Y3070D01*
X3247Y3034D01*
X3240Y2995D01*
Y2957D01*
X3247Y2918D01*
X3262Y2882D01*
X3284Y2850D01*
X3311Y2823D01*
X3343Y2801D01*
X3379Y2786D01*
X3418Y2779D01*
X3456D01*
X3495Y2786D01*
X3531Y2801D01*
X3563Y2823D01*
X3590Y2850D01*
X3612Y2882D01*
X3627Y2918D01*
X3635Y2957D01*
Y2995D01*
X3627Y3034D01*
X3612Y3070D01*
X3590Y3102D01*
X3563Y3129D01*
X3531Y3151D01*
X3495Y3166D01*
X3456Y3174D01*
D02*
G37*
G36*
X11267Y3029D02*
X11233D01*
X11200Y3020D01*
X11171Y3003D01*
X11147Y2979D01*
X11130Y2950D01*
X11121Y2917D01*
Y2883D01*
X11130Y2850D01*
X11147Y2821D01*
X11171Y2797D01*
X11200Y2780D01*
X11233Y2771D01*
X11267D01*
X11300Y2780D01*
X11329Y2797D01*
X11353Y2821D01*
X11370Y2850D01*
X11379Y2883D01*
Y2917D01*
X11370Y2950D01*
X11353Y2979D01*
X11329Y3003D01*
X11300Y3020D01*
X11267Y3029D01*
D02*
G37*
G36*
X4045D02*
X4011D01*
X3978Y3020D01*
X3949Y3003D01*
X3925Y2979D01*
X3908Y2950D01*
X3899Y2917D01*
Y2883D01*
X3908Y2850D01*
X3925Y2821D01*
X3949Y2797D01*
X3978Y2780D01*
X4011Y2771D01*
X4045D01*
X4078Y2780D01*
X4107Y2797D01*
X4131Y2821D01*
X4148Y2850D01*
X4157Y2883D01*
Y2917D01*
X4148Y2950D01*
X4131Y2979D01*
X4107Y3003D01*
X4078Y3020D01*
X4045Y3029D01*
D02*
G37*
G36*
X2667Y2254D02*
X2633D01*
X2600Y2245D01*
X2571Y2228D01*
X2547Y2204D01*
X2530Y2175D01*
X2521Y2142D01*
Y2108D01*
X2530Y2075D01*
X2547Y2046D01*
X2571Y2022D01*
X2600Y2005D01*
X2633Y1996D01*
X2667D01*
X2700Y2005D01*
X2729Y2022D01*
X2753Y2046D01*
X2770Y2075D01*
X2779Y2108D01*
Y2142D01*
X2770Y2175D01*
X2753Y2204D01*
X2729Y2228D01*
X2700Y2245D01*
X2667Y2254D01*
D02*
G37*
G36*
X4898Y2311D02*
X4860D01*
X4821Y2303D01*
X4785Y2288D01*
X4753Y2266D01*
X4726Y2239D01*
X4704Y2207D01*
X4689Y2171D01*
X4681Y2132D01*
Y2094D01*
X4689Y2055D01*
X4704Y2019D01*
X4726Y1987D01*
X4753Y1960D01*
X4785Y1938D01*
X4821Y1923D01*
X4860Y1916D01*
X4898D01*
X4937Y1923D01*
X4973Y1938D01*
X5005Y1960D01*
X5032Y1987D01*
X5054Y2019D01*
X5069Y2055D01*
X5076Y2094D01*
Y2132D01*
X5069Y2171D01*
X5054Y2207D01*
X5032Y2239D01*
X5005Y2266D01*
X4973Y2288D01*
X4937Y2303D01*
X4898Y2311D01*
D02*
G37*
%LPD*%
D12*
X8475Y6233D02*
Y6445D01*
X8473Y6066D02*
X8475Y6068D01*
X8366Y6066D02*
X8473D01*
D13*
X4600Y4950D02*
X4700D01*
X4700Y4950D01*
X8505Y4405D02*
Y4450D01*
Y4405D02*
X8620Y4290D01*
Y4176D02*
Y4290D01*
X8371Y4445D02*
X8375Y4450D01*
X8371Y4181D02*
Y4445D01*
X8366Y4176D02*
X8371Y4181D01*
X8245Y4309D02*
Y4450D01*
X8112Y4176D02*
X8245Y4309D01*
X5600Y5732D02*
Y5925D01*
X5600Y5285D02*
Y5567D01*
X4433Y4850D02*
X4600D01*
X4390D02*
X4433D01*
X4406Y5100D02*
X4600D01*
X4323Y5115D02*
X4391D01*
X4406Y5100D01*
X4276Y4944D02*
Y5068D01*
Y4944D02*
X4325Y4894D01*
X4276Y5068D02*
X4323Y5115D01*
X4325Y4850D02*
Y4894D01*
X4668Y5025D02*
X4775D01*
X4653Y5010D02*
X4668Y5025D01*
X4638Y5010D02*
X4653D01*
X4628Y5000D02*
X4638Y5010D01*
X4600Y5000D02*
X4628D01*
X4693Y4850D02*
X4700D01*
X4653Y4890D02*
X4693Y4850D01*
X4637Y4890D02*
X4653D01*
X4628Y4900D02*
X4637Y4890D01*
X4600Y4900D02*
X4628D01*
X4550Y5000D02*
X4600D01*
X4361Y4971D02*
X4380Y4990D01*
X4341Y4971D02*
X4361D01*
X4392Y5000D02*
X4433D01*
X4382Y4990D02*
X4392Y5000D01*
X4380Y4990D02*
X4382D01*
X4350Y5050D02*
X4433D01*
X4500Y4950D02*
X4550Y5000D01*
X4433Y4950D02*
X4500D01*
D15*
X5600Y6085D02*
D03*
X8475Y6605D02*
D03*
X5600Y5925D02*
D03*
X8475Y6445D02*
D03*
D19*
X4525Y7450D02*
D03*
Y6290D02*
D03*
D20*
X9725Y4600D02*
D03*
X10375D02*
D03*
Y4150D02*
D03*
D21*
X4301Y4735D02*
D03*
Y5215D02*
D03*
X4732D02*
D03*
Y4735D02*
D03*
D22*
X10379Y8375D02*
D03*
X6200Y5104D02*
D03*
X6250Y5650D02*
D03*
X7100Y7125D02*
D03*
X7975D02*
D03*
X9675Y8375D02*
D03*
D23*
X11000Y8358D02*
D03*
X5775Y7525D02*
D03*
X7096Y5700D02*
D03*
X4050Y7035D02*
D03*
X5550Y4250D02*
D03*
X5600Y5290D02*
D03*
X4050Y4250D02*
D03*
X5550Y7035D02*
D03*
X8620Y4176D02*
D03*
X8366D02*
D03*
X8112D02*
D03*
X7858D02*
D03*
X7604D02*
D03*
X7350D02*
D03*
X7096D02*
D03*
X6842D02*
D03*
X8620Y5700D02*
D03*
X8366D02*
D03*
X8112D02*
D03*
X7858D02*
D03*
X7604D02*
D03*
X7350D02*
D03*
X6842D02*
D03*
X6029Y7525D02*
D03*
X5521D02*
D03*
X5267D02*
D03*
X11000Y4294D02*
D03*
Y4548D02*
D03*
Y4802D02*
D03*
Y5056D02*
D03*
Y8104D02*
D03*
Y7850D02*
D03*
Y7596D02*
D03*
D24*
X10125Y8375D02*
D03*
X9421D02*
D03*
D25*
X4525Y6570D02*
D03*
D26*
X9072Y10725D02*
D03*
X11250Y2900D02*
D03*
X2650Y9347D02*
D03*
X1850Y10725D02*
D03*
X4028Y2900D02*
D03*
X2650Y2125D02*
D03*
D27*
X6200Y4850D02*
D03*
X6250Y5904D02*
D03*
X7100Y7379D02*
D03*
X7975D02*
D03*
D28*
X4525Y7170D02*
D03*
Y6870D02*
D03*
D29*
X9725Y4150D02*
D03*
D30*
X4517Y5350D02*
D03*
D31*
Y4600D02*
D03*
D32*
X2701Y9938D02*
D03*
X8221Y11512D02*
D03*
X3437Y2976D02*
D03*
X1863Y8496D02*
D03*
X10399Y3687D02*
D03*
X4879Y2113D02*
D03*
D33*
X9072Y9938D02*
D03*
X3437Y9347D02*
D03*
X4028Y3687D02*
D03*
D34*
X8557Y10493D02*
D03*
X11400Y11250D02*
D03*
X11200Y10850D02*
D03*
X11400Y10450D02*
D03*
X11200Y10050D02*
D03*
X11400Y9650D02*
D03*
X11200Y9250D02*
D03*
Y8450D02*
D03*
X11400Y8050D02*
D03*
Y7250D02*
D03*
Y5650D02*
D03*
X11200Y5250D02*
D03*
X11400Y4850D02*
D03*
Y4050D02*
D03*
X11200Y3650D02*
D03*
X11400Y3250D02*
D03*
Y2450D02*
D03*
X11200Y2050D02*
D03*
X11000Y11250D02*
D03*
X10800Y10850D02*
D03*
X11000Y10450D02*
D03*
X10800Y10050D02*
D03*
X11000Y9650D02*
D03*
X10800Y9250D02*
D03*
Y8450D02*
D03*
X11000Y4050D02*
D03*
X10800Y3650D02*
D03*
X11000Y3250D02*
D03*
Y2450D02*
D03*
X10800Y2050D02*
D03*
X10600Y11250D02*
D03*
X10400Y10850D02*
D03*
X10600Y10450D02*
D03*
X10400Y10050D02*
D03*
X10600Y9650D02*
D03*
X10400Y9250D02*
D03*
X10600Y8850D02*
D03*
Y8050D02*
D03*
Y4850D02*
D03*
Y4050D02*
D03*
Y3250D02*
D03*
Y2450D02*
D03*
X10400Y2050D02*
D03*
X10200Y11250D02*
D03*
X10000Y10850D02*
D03*
X10200Y10450D02*
D03*
X10000Y10050D02*
D03*
X10200Y9650D02*
D03*
X10000Y9250D02*
D03*
X10200Y8850D02*
D03*
Y8050D02*
D03*
Y4850D02*
D03*
X10000Y4450D02*
D03*
Y3650D02*
D03*
X10200Y3250D02*
D03*
Y2450D02*
D03*
X10000Y2050D02*
D03*
X9800Y11250D02*
D03*
X9600Y10850D02*
D03*
X9800Y10450D02*
D03*
X9600Y10050D02*
D03*
X9800Y9650D02*
D03*
Y8850D02*
D03*
Y8050D02*
D03*
Y4850D02*
D03*
X9600Y4450D02*
D03*
Y3650D02*
D03*
X9800Y3250D02*
D03*
Y2450D02*
D03*
X9600Y2050D02*
D03*
X9400Y11250D02*
D03*
Y10450D02*
D03*
Y9650D02*
D03*
X9200Y3650D02*
D03*
X9400Y3250D02*
D03*
Y2450D02*
D03*
X9200Y2050D02*
D03*
X9000Y11250D02*
D03*
Y9650D02*
D03*
Y8850D02*
D03*
X8800Y5250D02*
D03*
Y4450D02*
D03*
Y3650D02*
D03*
X9000Y3250D02*
D03*
Y2450D02*
D03*
X8800Y2050D02*
D03*
X8600Y11250D02*
D03*
X8400Y10850D02*
D03*
Y10050D02*
D03*
Y5250D02*
D03*
X8600Y4850D02*
D03*
X8400Y3650D02*
D03*
X8600Y3250D02*
D03*
Y2450D02*
D03*
X8400Y2050D02*
D03*
X8000Y10850D02*
D03*
X8200Y10450D02*
D03*
X8000Y10050D02*
D03*
X8200Y9650D02*
D03*
X8000Y9250D02*
D03*
X8200Y8850D02*
D03*
X8000Y8450D02*
D03*
Y5250D02*
D03*
Y4450D02*
D03*
Y3650D02*
D03*
X8200Y3250D02*
D03*
Y2450D02*
D03*
X8000Y2050D02*
D03*
X7800Y11250D02*
D03*
X7600Y10850D02*
D03*
X7800Y10450D02*
D03*
X7600Y10050D02*
D03*
X7800Y9650D02*
D03*
X7600Y9250D02*
D03*
X7800Y8850D02*
D03*
X7600Y8450D02*
D03*
X7800Y8050D02*
D03*
X7600Y7650D02*
D03*
Y6850D02*
D03*
Y5250D02*
D03*
X7800Y4850D02*
D03*
X7600Y3650D02*
D03*
X7800Y3250D02*
D03*
Y2450D02*
D03*
X7600Y2050D02*
D03*
X7400Y11250D02*
D03*
X7200Y10850D02*
D03*
X7400Y10450D02*
D03*
X7200Y10050D02*
D03*
X7400Y9650D02*
D03*
X7200Y9250D02*
D03*
X7400Y8850D02*
D03*
X7200Y8450D02*
D03*
X7400Y8050D02*
D03*
X7200Y7650D02*
D03*
Y5250D02*
D03*
X7400Y4850D02*
D03*
X7200Y4450D02*
D03*
Y3650D02*
D03*
X7400Y3250D02*
D03*
Y2450D02*
D03*
X7200Y2050D02*
D03*
X7000Y11250D02*
D03*
X6800Y10850D02*
D03*
X7000Y10450D02*
D03*
X6800Y10050D02*
D03*
X7000Y9650D02*
D03*
Y8850D02*
D03*
Y8050D02*
D03*
Y6450D02*
D03*
X6800Y3650D02*
D03*
Y2850D02*
D03*
X7000Y2450D02*
D03*
X6800Y2050D02*
D03*
X6600Y11250D02*
D03*
X6400Y10850D02*
D03*
X6600Y10450D02*
D03*
X6400Y6850D02*
D03*
X6600Y5650D02*
D03*
Y4850D02*
D03*
Y4050D02*
D03*
X6400Y3650D02*
D03*
Y2850D02*
D03*
X6600Y2450D02*
D03*
X6400Y2050D02*
D03*
X6200Y11250D02*
D03*
X6000Y10850D02*
D03*
Y9250D02*
D03*
X6200Y8850D02*
D03*
X6000Y8450D02*
D03*
Y6850D02*
D03*
X6200Y6450D02*
D03*
X6000Y5250D02*
D03*
Y3650D02*
D03*
Y2850D02*
D03*
X6200Y2450D02*
D03*
X6000Y2050D02*
D03*
X5800Y11250D02*
D03*
X5600Y10850D02*
D03*
X5800Y9650D02*
D03*
Y8850D02*
D03*
Y8050D02*
D03*
Y7250D02*
D03*
Y5650D02*
D03*
X5600Y4450D02*
D03*
X5800Y4050D02*
D03*
X5600Y3650D02*
D03*
Y2850D02*
D03*
X5800Y2450D02*
D03*
X5600Y2050D02*
D03*
X5400Y11250D02*
D03*
X5200Y10850D02*
D03*
X5400Y8050D02*
D03*
X5200Y6050D02*
D03*
X5400Y5650D02*
D03*
X5200Y5250D02*
D03*
Y4450D02*
D03*
X5400Y4050D02*
D03*
X5200Y3650D02*
D03*
Y2850D02*
D03*
X5400Y2450D02*
D03*
X5000Y11250D02*
D03*
X4800Y10850D02*
D03*
X5000Y8850D02*
D03*
X4800Y8450D02*
D03*
Y6050D02*
D03*
X5000Y5650D02*
D03*
X4800Y4450D02*
D03*
X5000Y4050D02*
D03*
X4800Y3650D02*
D03*
Y2850D02*
D03*
X5000Y2450D02*
D03*
X4600Y11250D02*
D03*
X4400Y10850D02*
D03*
X4600Y8850D02*
D03*
Y5650D02*
D03*
X4400Y4450D02*
D03*
X4600Y4050D02*
D03*
X4400Y3650D02*
D03*
Y2850D02*
D03*
X4600Y2450D02*
D03*
X4400Y2050D02*
D03*
X4200Y11250D02*
D03*
X4000Y10850D02*
D03*
Y7650D02*
D03*
Y6850D02*
D03*
X4200Y6450D02*
D03*
Y4050D02*
D03*
Y2450D02*
D03*
X4000Y2050D02*
D03*
X3800Y11250D02*
D03*
X3600Y10850D02*
D03*
Y8450D02*
D03*
X3800Y8050D02*
D03*
X3600Y7650D02*
D03*
X3800Y7250D02*
D03*
X3600Y6850D02*
D03*
X3800Y6450D02*
D03*
X3600Y6050D02*
D03*
X3800Y5650D02*
D03*
X3600Y5250D02*
D03*
X3800Y4850D02*
D03*
X3600Y4450D02*
D03*
X3800Y4050D02*
D03*
X3600Y3650D02*
D03*
X3400Y11250D02*
D03*
X3200Y10850D02*
D03*
X3400Y8050D02*
D03*
Y7250D02*
D03*
Y6450D02*
D03*
Y5650D02*
D03*
Y4850D02*
D03*
Y4050D02*
D03*
X3000Y11250D02*
D03*
X2800Y10850D02*
D03*
X3000Y2450D02*
D03*
X2600Y11250D02*
D03*
X2400Y10850D02*
D03*
X2200Y11250D02*
D03*
Y10450D02*
D03*
X2000Y9250D02*
D03*
X2200Y8850D02*
D03*
Y8050D02*
D03*
X2000Y7650D02*
D03*
X2200Y7250D02*
D03*
X2000Y6850D02*
D03*
X2200Y6450D02*
D03*
X2000Y6050D02*
D03*
X2200Y5650D02*
D03*
X2000Y5250D02*
D03*
X2200Y4850D02*
D03*
X2000Y4450D02*
D03*
X2200Y4050D02*
D03*
X2000Y3650D02*
D03*
X2200Y3250D02*
D03*
X2000Y2850D02*
D03*
X2200Y2450D02*
D03*
X2000Y2050D02*
D03*
X4700Y4950D02*
D03*
X4775Y5025D02*
D03*
X4700Y4850D02*
D03*
X4350Y5050D02*
D03*
X4341Y4971D02*
D03*
X8366Y6066D02*
D03*
D38*
X8375Y4900D02*
D03*
D39*
X4433Y4700D02*
D03*
Y5250D02*
D03*
X4600D02*
D03*
Y4700D02*
D03*
Y4850D02*
D03*
Y5100D02*
D03*
X4433D02*
D03*
Y4850D02*
D03*
Y4900D02*
D03*
Y4950D02*
D03*
Y5000D02*
D03*
Y5050D02*
D03*
X4600D02*
D03*
Y5000D02*
D03*
Y4950D02*
D03*
Y4900D02*
D03*
D40*
X5600Y5568D02*
D03*
Y5732D02*
D03*
X8475Y6068D02*
D03*
Y6233D02*
D03*
D41*
X8505Y4450D02*
D03*
X8375D02*
D03*
X8245D02*
D03*
D42*
X4050Y4695D02*
X4205Y4850D01*
X4050Y4250D02*
Y4695D01*
X4325Y4850D02*
X4390D01*
X4325D02*
X4325D01*
X4205D02*
X4325D01*
M02*
