M48
;Layer_Color=9474304
;FILE_FORMAT=2:5
INCH
;TYPE=PLATED
T01F00S00C0.01181
T02F00S00C0.02756
T03F00S00C0.03189
T04F00S00C0.03937
T05F00S00C0.03976
T06F00S00C0.04016
T07F00S00C0.05197
T08F00S00C0.06260
%
T01
X0078740Y0080709
X0086614Y0096457
X0078740Y0112205
X0086614Y0127953
X0078740Y0143701
X0141732
X0118110Y0096457
X0165354
X0181102
X0196850
X0212598
X0228346
X0244094
X0259842
X0275590
X0291339
X0307087
X0299213Y0080709
X0283465
X0267717
X0251969
X0236221
X0220472
Y0112205
X0236221
X0251969
X0267717
Y0143701
X0283465
X0299213
X0307087Y0127953
X0291339
X0251969Y0143701
X0236221
X0220472
X0204724
X0188976
X0173228
Y0112205
X0188976
X0204724
X0173228Y0080709
X0157480
X0314961
X0330709
X0346457
X0362205
X0377953
X0393701
X0409449
X0425197
X0440945
X0448819Y0096457
X0433071
X0417323
X0401575
X0385827
X0370079
X0354331
X0338583
X0322835
Y0127953
X0338583
X0354331
X0370079
X0385827
X0401575
X0417323
X0433071
X0448819
X0440945Y0143701
X0425197
X0393701
X0377953
X0362205
X0346457
X0330709
X0314961
Y0175197
X0346457
X0338583Y0190945
X0330709Y0206693
X0346457
X0314961
X0329370Y0238819
X0385827Y0190945
X0401575
X0417323
X0448819
X0440945Y0206693
X0448819Y0222441
Y0285433
Y0159449
X0433071
X0417323
X0393701Y0175197
X0377953
X0307087Y0190945
X0291339
X0283465Y0206693
X0299213
X0283465Y0175197
X0259842Y0190945
Y0222441
X0228346
X0212598
X0196850
X0181102
X0188976Y0238189
X0204724
Y0206693
X0187992Y0197835
X0185039Y0194882
Y0190945
X0170898Y0195690
X0171260Y0198819
X0173228Y0175197
X0188976
X0204724
X0220472
X0228346Y0159449
X0212598
X0196850
X0181102
X0165354
X0259842
X0236221Y0206693
X0244094Y0253937
X0236221Y0269685
X0251969
X0275590Y0253937
X0299213Y0269685
Y0301181
X0283465
X0228346Y0285433
X0157480Y0301181
Y0269685
X0165354Y0253937
X0149606
X0133858
X0141732Y0269685
X0149606Y0285433
X0133858
X0141732Y0301181
Y0238189
X0149606Y0222441
X0133858
X0141732Y0206693
X0149606Y0190945
X0133858
X0141732Y0175197
X0149606Y0159449
X0133858
X0086614
X0078740Y0175197
X0086614Y0190945
X0078740Y0206693
X0086614Y0222441
X0078740Y0238189
X0086614Y0253937
X0078740Y0269685
X0086614Y0285433
X0078740Y0301181
X0086614Y0316929
Y0348425
X0078740Y0364173
X0086614Y0411417
X0094488Y0427165
X0110236
X0125984
X0141732
X0149606Y0442913
X0133858
X0118110
X0102362
X0086614
X0141732Y0332677
X0149606Y0316929
X0133858
X0188976Y0332677
X0196850Y0348425
X0181102
X0228346
X0244094
X0236221Y0364173
X0228346Y0379921
X0275590
X0291339
X0307087
X0299213Y0395669
X0283465
X0267717
X0275590Y0411417
X0291339
X0307087
X0299213Y0427165
X0283465
X0267717
X0251969
X0236221
X0220472
X0204724
X0188976
X0173228
X0157480
X0165354Y0442913
X0181102
X0196850
X0212598
X0228346
X0244094
X0259842
X0275590
X0291339
X0307087
X0259842Y0411417
X0283465Y0364173
X0299213
X0307087Y0348425
X0291339
X0275590
X0283465Y0332677
X0299213
X0307087Y0316929
X0291339
X0275590
X0228346
X0212598
X0236221Y0332677
X0314961
X0322835Y0348425
X0314961Y0364173
X0322835Y0379921
X0314961Y0395669
X0330709
X0336893Y0413107
X0322835Y0411417
X0314961Y0427165
X0330709
X0338583Y0442913
X0354331
X0370079
X0385827
X0401575
X0417323
X0433071
X0448819
X0440945Y0427165
X0425197
X0409449
X0393701
X0377953
X0385827Y0411417
X0401575
X0417323
X0433071
X0448819
X0440945Y0395669
X0425197
X0409449
X0393701
X0377953
X0385827Y0379921
X0401575
X0417323
X0433071
X0448819
X0440945Y0364173
X0425197
X0409449
X0393701
X0401575Y0348425
X0417323
X0425197Y0332677
X0440945
X0448819Y0316929
X0417323
X0401575
X0385827
Y0348425
X0354331
Y0379921
X0370079
Y0411417
T02
X0169350Y0186417
X0186280
Y0205315
X0169350
T03
X0319370Y0164409
X0329370
X0339370
Y0224410
X0329370
X0319370
X0433071Y0199055
Y0189055
Y0179055
Y0169055
Y0299055
Y0309055
X0309370Y0224410
X0299370
X0289370
X0279370
X0269370
Y0164409
X0279370
X0289370
X0299370
X0309370
X0218504Y0167323
X0220472Y0208268
X0218504Y0276969
X0217362Y0296260
X0227362
X0237362
X0207362
X0159449Y0276969
Y0167323
X0433071Y0319055
Y0329055
T04
X0382874Y0163386
Y0181102
X0408465
Y0163386
T05
X0178150Y0258662
Y0270473
Y0282283
T06
X0313976Y0280512
Y0290512
X0279528
Y0280512
X0246063Y0232441
Y0222441
X0244094Y0200945
Y0190945
X0370905Y0329724
X0380906
X0398622
X0408622
T07
X0104331Y0083661
X0158583Y0114173
X0442913
X0104331Y0367992
X0072835Y0422244
X0357165
T08
X0178150Y0247638
Y0293307
M30
