G04*
G04 #@! TF.GenerationSoftware,Altium Limited,Altium Designer,26.3.0 (6)*
G04*
G04 Layer_Color=32896*
%FSLAX42Y42*%
%MOMM*%
G71*
G04*
G04 #@! TF.SameCoordinates,0AA099D0-1225-4A31-BAC4-6EAD77824322*
G04*
G04*
G04 #@! TF.FilePolarity,Positive*
G04*
G01*
G75*
%ADD10C,0.20*%
%ADD11C,0.10*%
%ADD12C,0.25*%
D10*
X4235Y6265D02*
X4365D01*
X4235D02*
Y7475D01*
X4365D01*
X4685D02*
X4815D01*
Y6265D02*
Y7475D01*
X4685Y6265D02*
X4815D01*
X8125Y4450D02*
X8175D01*
X8125D02*
Y4900D01*
X8235D01*
X8575Y4450D02*
X8625D01*
Y4900D01*
X8515D02*
X8625D01*
X9820Y4075D02*
X10300D01*
X9750Y4245D02*
Y4505D01*
X9800Y4675D02*
X10300D01*
X10350Y4245D02*
Y4505D01*
D11*
X5600Y5820D02*
G03*
X5600Y5830I0J5D01*
G01*
D02*
G03*
X5600Y5820I0J-5D01*
G01*
X4185Y6570D02*
G03*
X4175Y6570I-5J0D01*
G01*
D02*
G03*
X4185Y6570I5J0D01*
G01*
X8505Y4325D02*
G03*
X8505Y4315I0J-5D01*
G01*
D02*
G03*
X8505Y4325I0J5D01*
G01*
X8475Y6320D02*
G03*
X8475Y6330I0J5D01*
G01*
D02*
G03*
X8475Y6320I0J-5D01*
G01*
X9595Y4150D02*
G03*
X9605Y4150I5J0D01*
G01*
D02*
G03*
X9595Y4150I-5J0D01*
G01*
X4836Y4700D02*
G03*
X4826Y4700I-5J0D01*
G01*
D02*
G03*
X4836Y4700I5J0D01*
G01*
D12*
X8602Y5283D02*
X8628Y5309D01*
X8679D01*
X8704Y5283D01*
Y5258D01*
X8679Y5233D01*
X8628D01*
X8602Y5207D01*
Y5182D01*
X8628Y5156D01*
X8679D01*
X8704Y5182D01*
X8450Y5156D02*
X8552D01*
X8450Y5258D01*
Y5283D01*
X8475Y5309D01*
X8526D01*
X8552Y5283D01*
X4764Y5753D02*
X4815D01*
X4790D01*
Y5626D01*
X4815Y5601D01*
X4840D01*
X4866Y5626D01*
X4713Y5601D02*
X4663D01*
X4688D01*
Y5753D01*
X4713Y5728D01*
M02*
