G04*
G04 #@! TF.GenerationSoftware,Altium Limited,Altium Designer,26.3.0 (6)*
G04*
G04 Layer_Physical_Order=1*
G04 Layer_Color=255*
%FSLAX42Y42*%
%MOMM*%
G71*
G04*
G04 #@! TF.SameCoordinates,0AA099D0-1225-4A31-BAC4-6EAD77824322*
G04*
G04*
G04 #@! TF.FilePolarity,Positive*
G04*
G01*
G75*
%ADD12C,0.25*%
%ADD13C,0.30*%
G04:AMPARAMS|DCode=14|XSize=6mm|YSize=4mm|CornerRadius=1mm|HoleSize=0mm|Usage=FLASHONLY|Rotation=0.000|XOffset=0mm|YOffset=0mm|HoleType=Round|Shape=RoundedRectangle|*
%AMROUNDEDRECTD14*
21,1,6.00,2.00,0,0,0.0*
21,1,4.00,4.00,0,0,0.0*
1,1,2.00,2.00,-1.00*
1,1,2.00,-2.00,-1.00*
1,1,2.00,-2.00,1.00*
1,1,2.00,2.00,1.00*
%
%ADD14ROUNDEDRECTD14*%
%ADD15R,1.00X0.95*%
%ADD16R,0.95X1.00*%
%ADD17R,0.60X1.30*%
%ADD18R,5.50X5.00*%
%ADD19C,2.38*%
%ADD20C,1.50*%
%ADD21C,1.10*%
%ADD22C,1.53*%
%ADD23C,1.31*%
%ADD24R,1.53X1.53*%
%ADD25R,1.52X1.52*%
%ADD26C,1.98*%
%ADD27R,1.53X1.53*%
%ADD28C,1.52*%
%ADD29R,1.50X1.50*%
%ADD30C,0.61*%
%ADD31C,0.35*%
%ADD32C,1.78*%
%ADD33C,1.20*%
%ADD34C,0.60*%
%ADD35C,3.00*%
%ADD36C,1.00*%
%ADD37C,0.60*%
G36*
X11153Y11787D02*
X11178D01*
X11227Y11780D01*
X11275Y11767D01*
X11321Y11748D01*
X11364Y11723D01*
X11404Y11693D01*
X11439Y11658D01*
X11469Y11619D01*
X11494Y11575D01*
X11513Y11529D01*
X11526Y11481D01*
X11532Y11432D01*
X11532Y11407D01*
X11532Y2207D01*
X11532Y2182D01*
X11526Y2133D01*
X11513Y2085D01*
X11494Y2039D01*
X11469Y1996D01*
X11439Y1956D01*
X11404Y1921D01*
X11364Y1891D01*
X11321Y1866D01*
X11275Y1847D01*
X11227Y1834D01*
X11178Y1828D01*
X11153Y1828D01*
X1928D01*
X1879Y1834D01*
X1831Y1847D01*
X1785Y1866D01*
X1741Y1891D01*
X1702Y1921D01*
X1667Y1956D01*
X1637Y1996D01*
X1612Y2039D01*
X1593Y2085D01*
X1580Y2133D01*
X1573Y2182D01*
X1573Y2207D01*
Y11407D01*
Y11432D01*
X1580Y11481D01*
X1593Y11529D01*
X1612Y11575D01*
X1637Y11619D01*
X1667Y11658D01*
X1702Y11693D01*
X1741Y11723D01*
X1785Y11748D01*
X1831Y11767D01*
X1879Y11780D01*
X1928Y11787D01*
X1953Y11787D01*
X11153Y11787D01*
D02*
G37*
%LPC*%
G36*
X8240Y11710D02*
X8202D01*
X8163Y11702D01*
X8127Y11687D01*
X8095Y11665D01*
X8068Y11638D01*
X8046Y11606D01*
X8031Y11570D01*
X8024Y11531D01*
Y11493D01*
X8031Y11454D01*
X8046Y11418D01*
X8068Y11386D01*
X8095Y11359D01*
X8127Y11337D01*
X8163Y11322D01*
X8202Y11315D01*
X8240D01*
X8279Y11322D01*
X8315Y11337D01*
X8347Y11359D01*
X8374Y11386D01*
X8396Y11418D01*
X8411Y11454D01*
X8418Y11493D01*
Y11531D01*
X8411Y11570D01*
X8396Y11606D01*
X8374Y11638D01*
X8347Y11665D01*
X8315Y11687D01*
X8279Y11702D01*
X8240Y11710D01*
D02*
G37*
G36*
X9090Y10077D02*
X9054D01*
X9018Y10068D01*
X8986Y10050D01*
X8960Y10024D01*
X8942Y9992D01*
X8933Y9956D01*
Y9920D01*
X8942Y9884D01*
X8960Y9852D01*
X8986Y9826D01*
X9018Y9808D01*
X9054Y9798D01*
X9090D01*
X9126Y9808D01*
X9158Y9826D01*
X9184Y9852D01*
X9202Y9884D01*
X9212Y9920D01*
Y9956D01*
X9202Y9992D01*
X9184Y10024D01*
X9158Y10050D01*
X9126Y10068D01*
X9090Y10077D01*
D02*
G37*
G36*
X9557Y9484D02*
X9508D01*
X9506Y9484D01*
X9504D01*
X9456Y9474D01*
X9454Y9474D01*
X9452Y9473D01*
X9407Y9454D01*
X9405Y9453D01*
X9403Y9452D01*
X9362Y9425D01*
X9361Y9424D01*
X9359Y9422D01*
X9324Y9388D01*
X9323Y9386D01*
X9322Y9385D01*
X9294Y9344D01*
X9294Y9342D01*
X9292Y9340D01*
X9274Y9295D01*
X9273Y9293D01*
X9272Y9291D01*
X9263Y9242D01*
Y9240D01*
X9262Y9239D01*
Y9189D01*
X9263Y9187D01*
Y9185D01*
X9272Y9137D01*
X9273Y9135D01*
X9274Y9133D01*
X9292Y9088D01*
X9294Y9086D01*
X9294Y9084D01*
X9322Y9043D01*
X9323Y9042D01*
X9324Y9040D01*
X9359Y9005D01*
X9361Y9004D01*
X9362Y9003D01*
X9403Y8975D01*
X9405Y8975D01*
X9407Y8974D01*
X9452Y8955D01*
X9454Y8954D01*
X9456Y8954D01*
X9504Y8944D01*
X9506D01*
X9508Y8944D01*
X9557D01*
X9559Y8944D01*
X9561D01*
X9610Y8954D01*
X9612Y8954D01*
X9614Y8955D01*
X9659Y8974D01*
X9661Y8975D01*
X9663Y8975D01*
X9704Y9003D01*
X9705Y9004D01*
X9707Y9005D01*
X9741Y9040D01*
X9743Y9042D01*
X9744Y9043D01*
X9771Y9084D01*
X9772Y9086D01*
X9773Y9088D01*
X9792Y9133D01*
X9792Y9135D01*
X9793Y9137D01*
X9803Y9185D01*
Y9187D01*
X9803Y9189D01*
Y9239D01*
X9803Y9240D01*
Y9242D01*
X9793Y9291D01*
X9792Y9293D01*
X9792Y9295D01*
X9773Y9340D01*
X9772Y9342D01*
X9771Y9344D01*
X9744Y9385D01*
X9743Y9386D01*
X9741Y9388D01*
X9707Y9422D01*
X9705Y9424D01*
X9704Y9425D01*
X9663Y9452D01*
X9661Y9453D01*
X9659Y9454D01*
X9614Y9473D01*
X9612Y9474D01*
X9610Y9474D01*
X9561Y9484D01*
X9559D01*
X9557Y9484D01*
D02*
G37*
G36*
X11172Y9120D02*
X11128D01*
X11086Y9112D01*
X11046Y9095D01*
X11010Y9071D01*
X10979Y9040D01*
X10955Y9004D01*
X10938Y8964D01*
X10930Y8922D01*
Y8878D01*
X10938Y8836D01*
X10955Y8796D01*
X10979Y8760D01*
X11010Y8729D01*
X11046Y8705D01*
X11086Y8688D01*
X11128Y8680D01*
X11172D01*
X11214Y8688D01*
X11254Y8705D01*
X11290Y8729D01*
X11321Y8760D01*
X11345Y8796D01*
X11362Y8836D01*
X11370Y8878D01*
Y8922D01*
X11362Y8964D01*
X11345Y9004D01*
X11321Y9040D01*
X11290Y9071D01*
X11254Y9095D01*
X11214Y9112D01*
X11172Y9120D01*
D02*
G37*
G36*
X1882Y8693D02*
X1844D01*
X1805Y8686D01*
X1769Y8671D01*
X1737Y8649D01*
X1710Y8622D01*
X1688Y8590D01*
X1673Y8554D01*
X1665Y8515D01*
Y8477D01*
X1673Y8438D01*
X1688Y8402D01*
X1710Y8370D01*
X1737Y8343D01*
X1769Y8321D01*
X1805Y8306D01*
X1844Y8299D01*
X1882D01*
X1921Y8306D01*
X1957Y8321D01*
X1989Y8343D01*
X2016Y8370D01*
X2038Y8402D01*
X2053Y8438D01*
X2060Y8477D01*
Y8515D01*
X2053Y8554D01*
X2038Y8590D01*
X2016Y8622D01*
X1989Y8649D01*
X1957Y8671D01*
X1921Y8686D01*
X1882Y8693D01*
D02*
G37*
G36*
X11013Y8200D02*
X10987D01*
X10963Y8193D01*
X10941Y8180D01*
X10924Y8163D01*
X10911Y8141D01*
X10904Y8117D01*
Y8091D01*
X10911Y8067D01*
X10924Y8045D01*
X10941Y8028D01*
X10963Y8015D01*
X10987Y8008D01*
X11013D01*
X11037Y8015D01*
X11059Y8028D01*
X11076Y8045D01*
X11089Y8067D01*
X11096Y8091D01*
Y8117D01*
X11089Y8141D01*
X11076Y8163D01*
X11059Y8180D01*
X11037Y8193D01*
X11013Y8200D01*
D02*
G37*
G36*
X10060Y7757D02*
X9962D01*
X9961Y7756D01*
X9961Y7757D01*
X9863Y7749D01*
X9862Y7749D01*
X9861Y7749D01*
X9764Y7733D01*
X9763Y7733D01*
X9762Y7733D01*
X9667Y7710D01*
X9666Y7710D01*
X9665Y7710D01*
X9572Y7679D01*
X9571Y7679D01*
X9570Y7679D01*
X9480Y7641D01*
X9479Y7641D01*
X9478Y7640D01*
X9391Y7596D01*
X9390Y7595D01*
X9389Y7595D01*
X9306Y7544D01*
X9305Y7543D01*
X9304Y7543D01*
X9225Y7485D01*
X9224Y7484D01*
X9224Y7484D01*
X9149Y7420D01*
X9148Y7420D01*
X9148Y7419D01*
X9078Y7350D01*
X9078Y7349D01*
X9077Y7349D01*
X9013Y7274D01*
X9013Y7273D01*
X9012Y7273D01*
X8955Y7193D01*
X8954Y7192D01*
X8954Y7192D01*
X8902Y7108D01*
X8902Y7107D01*
X8902Y7107D01*
X8857Y7019D01*
X8857Y7018D01*
X8856Y7018D01*
X8819Y6927D01*
X8819Y6926D01*
X8818Y6925D01*
X8788Y6832D01*
X8788Y6831D01*
X8787Y6831D01*
X8765Y6735D01*
X8764Y6734D01*
X8764Y6733D01*
X8749Y6636D01*
X8749Y6636D01*
X8749Y6635D01*
X8741Y6537D01*
X8741Y6536D01*
X8741Y6535D01*
Y6437D01*
X8741Y6436D01*
X8741Y6435D01*
X8749Y6338D01*
X8749Y6337D01*
X8749Y6336D01*
X8764Y6239D01*
X8764Y6238D01*
X8765Y6237D01*
X8787Y6142D01*
X8788Y6141D01*
X8788Y6140D01*
X8818Y6047D01*
X8819Y6046D01*
X8819Y6045D01*
X8856Y5955D01*
X8857Y5954D01*
X8857Y5953D01*
X8902Y5866D01*
X8902Y5865D01*
X8902Y5864D01*
X8954Y5781D01*
X8954Y5780D01*
X8955Y5779D01*
X9012Y5700D01*
X9013Y5699D01*
X9013Y5698D01*
X9077Y5624D01*
X9078Y5623D01*
X9078Y5623D01*
X9148Y5553D01*
X9148Y5553D01*
X9149Y5552D01*
X9224Y5488D01*
X9224Y5488D01*
X9225Y5487D01*
X9304Y5430D01*
X9305Y5429D01*
X9306Y5429D01*
X9389Y5377D01*
X9390Y5377D01*
X9391Y5377D01*
X9478Y5332D01*
X9479Y5332D01*
X9480Y5331D01*
X9570Y5294D01*
X9571Y5294D01*
X9572Y5293D01*
X9665Y5263D01*
X9666Y5263D01*
X9667Y5262D01*
X9762Y5239D01*
X9763Y5239D01*
X9764Y5239D01*
X9861Y5224D01*
X9862Y5224D01*
X9863Y5224D01*
X9961Y5216D01*
X9961Y5216D01*
X9962Y5216D01*
X10060D01*
X10061Y5216D01*
X10062Y5216D01*
X10160Y5224D01*
X10161Y5224D01*
X10161Y5224D01*
X10259Y5239D01*
X10259Y5239D01*
X10260Y5239D01*
X10356Y5262D01*
X10356Y5263D01*
X10357Y5263D01*
X10451Y5293D01*
X10451Y5294D01*
X10452Y5294D01*
X10543Y5331D01*
X10543Y5332D01*
X10544Y5332D01*
X10632Y5377D01*
X10632Y5377D01*
X10633Y5377D01*
X10717Y5429D01*
X10718Y5429D01*
X10718Y5430D01*
X10798Y5487D01*
X10798Y5488D01*
X10799Y5488D01*
X10874Y5552D01*
X10874Y5553D01*
X10875Y5553D01*
X10944Y5623D01*
X10945Y5623D01*
X10945Y5624D01*
X11009Y5698D01*
X11010Y5699D01*
X11010Y5700D01*
X11068Y5779D01*
X11068Y5780D01*
X11069Y5781D01*
X11120Y5864D01*
X11120Y5865D01*
X11121Y5866D01*
X11165Y5953D01*
X11166Y5954D01*
X11166Y5955D01*
X11204Y6045D01*
X11204Y6046D01*
X11204Y6047D01*
X11235Y6140D01*
X11235Y6141D01*
X11235Y6142D01*
X11258Y6237D01*
X11258Y6238D01*
X11258Y6239D01*
X11274Y6336D01*
X11274Y6337D01*
X11274Y6338D01*
X11282Y6435D01*
X11282Y6436D01*
X11282Y6437D01*
Y6535D01*
X11282Y6536D01*
X11282Y6537D01*
X11274Y6635D01*
X11274Y6636D01*
X11274Y6636D01*
X11258Y6733D01*
X11258Y6734D01*
X11258Y6735D01*
X11235Y6831D01*
X11235Y6831D01*
X11235Y6832D01*
X11204Y6925D01*
X11204Y6926D01*
X11204Y6927D01*
X11166Y7018D01*
X11166Y7018D01*
X11165Y7019D01*
X11121Y7107D01*
X11120Y7107D01*
X11120Y7108D01*
X11069Y7192D01*
X11068Y7192D01*
X11068Y7193D01*
X11010Y7273D01*
X11010Y7273D01*
X11009Y7274D01*
X10945Y7349D01*
X10945Y7349D01*
X10944Y7350D01*
X10875Y7419D01*
X10874Y7420D01*
X10874Y7420D01*
X10799Y7484D01*
X10798Y7484D01*
X10798Y7485D01*
X10718Y7543D01*
X10718Y7543D01*
X10717Y7544D01*
X10633Y7595D01*
X10632Y7595D01*
X10632Y7596D01*
X10544Y7640D01*
X10543Y7641D01*
X10543Y7641D01*
X10452Y7679D01*
X10451Y7679D01*
X10451Y7679D01*
X10357Y7710D01*
X10356Y7710D01*
X10356Y7710D01*
X10260Y7733D01*
X10259Y7733D01*
X10259Y7733D01*
X10161Y7749D01*
X10161Y7749D01*
X10160Y7749D01*
X10062Y7757D01*
X10061Y7756D01*
X10060Y7757D01*
D02*
G37*
G36*
X11013Y7946D02*
X10987D01*
X10963Y7939D01*
X10941Y7926D01*
X10924Y7909D01*
X10911Y7887D01*
X10910Y7883D01*
X9450D01*
X9437Y7881D01*
X9426Y7874D01*
X8596Y7044D01*
X8589Y7033D01*
X8587Y7020D01*
Y5790D01*
X8583Y5789D01*
X8561Y5776D01*
X8544Y5759D01*
X8531Y5737D01*
X8524Y5713D01*
Y5687D01*
X8531Y5663D01*
X8544Y5641D01*
X8561Y5624D01*
X8583Y5611D01*
X8607Y5605D01*
X8633D01*
X8657Y5611D01*
X8679Y5624D01*
X8696Y5641D01*
X8709Y5663D01*
X8715Y5687D01*
Y5713D01*
X8709Y5737D01*
X8696Y5759D01*
X8679Y5776D01*
X8657Y5789D01*
X8653Y5790D01*
Y7006D01*
X9464Y7817D01*
X10910D01*
X10911Y7813D01*
X10924Y7791D01*
X10941Y7774D01*
X10963Y7761D01*
X10987Y7754D01*
X11013D01*
X11037Y7761D01*
X11059Y7774D01*
X11076Y7791D01*
X11089Y7813D01*
X11096Y7837D01*
Y7863D01*
X11089Y7887D01*
X11076Y7909D01*
X11059Y7926D01*
X11037Y7939D01*
X11013Y7946D01*
D02*
G37*
G36*
X5200Y9996D02*
X3506D01*
X3472Y9993D01*
X3440Y9983D01*
X3411Y9967D01*
X3385Y9946D01*
X3027Y9588D01*
X3005Y9562D01*
X2990Y9532D01*
X2980Y9500D01*
X2977Y9467D01*
Y9443D01*
X2529Y8996D01*
X2508Y8970D01*
X2492Y8940D01*
X2482Y8908D01*
X2479Y8875D01*
Y2125D01*
X2482Y2092D01*
X2492Y2060D01*
X2508Y2030D01*
X2529Y2004D01*
X2555Y1983D01*
X2585Y1967D01*
X2617Y1957D01*
X2650Y1954D01*
X3253D01*
X3286Y1957D01*
X3318Y1967D01*
X3348Y1983D01*
X3374Y2004D01*
X4149Y2779D01*
X4170Y2805D01*
X4186Y2835D01*
X4196Y2867D01*
X4199Y2900D01*
X4196Y2933D01*
X4186Y2965D01*
X4170Y2995D01*
X4149Y3021D01*
X4123Y3042D01*
X4093Y3058D01*
X4061Y3068D01*
X4028Y3071D01*
X3995Y3068D01*
X3963Y3058D01*
X3933Y3042D01*
X3907Y3021D01*
X3182Y2296D01*
X2821D01*
Y8804D01*
X3268Y9252D01*
X3290Y9278D01*
X3296Y9289D01*
X3310Y9288D01*
X3325Y9261D01*
X3351Y9235D01*
X3383Y9217D01*
X3390Y9215D01*
X3392Y9202D01*
X3388Y9200D01*
X3362Y9178D01*
X3362Y9178D01*
X2929Y8746D01*
X2908Y8720D01*
X2892Y8690D01*
X2882Y8658D01*
X2879Y8625D01*
Y3501D01*
X2882Y3467D01*
X2892Y3435D01*
X2908Y3406D01*
X2929Y3380D01*
X3105Y3204D01*
X3131Y3183D01*
X3160Y3167D01*
X3192Y3157D01*
X3210Y3156D01*
X3226Y3154D01*
X3226Y3154D01*
X3325D01*
X3329Y3141D01*
X3311Y3129D01*
X3284Y3102D01*
X3262Y3070D01*
X3247Y3034D01*
X3240Y2995D01*
Y2957D01*
X3247Y2918D01*
X3262Y2882D01*
X3284Y2850D01*
X3311Y2823D01*
X3343Y2801D01*
X3379Y2786D01*
X3418Y2779D01*
X3456D01*
X3495Y2786D01*
X3531Y2801D01*
X3563Y2823D01*
X3590Y2850D01*
X3612Y2882D01*
X3627Y2918D01*
X3635Y2957D01*
Y2995D01*
X3627Y3034D01*
X3612Y3070D01*
X3590Y3102D01*
X3563Y3129D01*
X3545Y3141D01*
X3549Y3154D01*
X6741D01*
X7116Y2779D01*
X7142Y2758D01*
X7171Y2742D01*
X7203Y2732D01*
X7237Y2729D01*
X11250D01*
X11283Y2732D01*
X11315Y2742D01*
X11345Y2758D01*
X11371Y2779D01*
X11392Y2805D01*
X11408Y2835D01*
X11418Y2867D01*
X11421Y2900D01*
X11418Y2933D01*
X11408Y2965D01*
X11392Y2995D01*
X11371Y3021D01*
X11345Y3042D01*
X11315Y3058D01*
X11283Y3068D01*
X11250Y3071D01*
X7307D01*
X6933Y3446D01*
X6907Y3467D01*
X6877Y3483D01*
X6845Y3493D01*
X6812Y3496D01*
X3296D01*
X3221Y3571D01*
Y8554D01*
X3553Y8887D01*
X3557D01*
X3590Y8890D01*
X3622Y8900D01*
X3652Y8915D01*
X3678Y8937D01*
X3970Y9229D01*
X4430D01*
Y9130D01*
X5020D01*
Y9654D01*
X5129D01*
X5279Y9504D01*
Y8671D01*
X4778Y8170D01*
X4430D01*
Y7630D01*
X5020D01*
Y7928D01*
X5571Y8479D01*
X5571Y8479D01*
X5592Y8505D01*
X5608Y8535D01*
X5618Y8567D01*
X5621Y8600D01*
Y9575D01*
X5618Y9608D01*
X5608Y9640D01*
X5592Y9670D01*
X5571Y9696D01*
X5321Y9946D01*
X5295Y9967D01*
X5265Y9983D01*
X5233Y9993D01*
X5200Y9996D01*
D02*
G37*
G36*
X11013Y7692D02*
X10987D01*
X10963Y7685D01*
X10941Y7672D01*
X10924Y7655D01*
X10911Y7633D01*
X10904Y7609D01*
Y7583D01*
X10911Y7559D01*
X10924Y7537D01*
X10941Y7520D01*
X10963Y7507D01*
X10987Y7500D01*
X11013D01*
X11037Y7507D01*
X11059Y7520D01*
X11076Y7537D01*
X11089Y7559D01*
X11096Y7583D01*
Y7609D01*
X11089Y7633D01*
X11076Y7655D01*
X11059Y7672D01*
X11037Y7685D01*
X11013Y7692D01*
D02*
G37*
G36*
X9072Y10896D02*
X9039Y10893D01*
X9007Y10883D01*
X8977Y10867D01*
X8951Y10846D01*
X8489Y10384D01*
X8468Y10358D01*
X8452Y10328D01*
X8442Y10296D01*
X8439Y10263D01*
Y8160D01*
X8090D01*
Y7620D01*
X8680D01*
Y7935D01*
X8705Y7948D01*
X8731Y7969D01*
X8752Y7995D01*
X8765Y8019D01*
X8873D01*
X8891Y8022D01*
X8908Y8029D01*
X8923Y8040D01*
X9303Y8420D01*
X9314Y8415D01*
Y8268D01*
X9350D01*
Y8250D01*
X8571Y7471D01*
X8400D01*
X8400Y7471D01*
X8082D01*
Y7486D01*
X7868D01*
Y7471D01*
X7800D01*
X7800Y7471D01*
X7207D01*
Y7486D01*
X6993D01*
Y7471D01*
X6464D01*
X6327Y7608D01*
X6332Y7620D01*
X6850D01*
Y8160D01*
X6701D01*
Y9745D01*
X6698Y9778D01*
X6688Y9810D01*
X6672Y9840D01*
X6651Y9866D01*
X6110Y10406D01*
X6084Y10428D01*
X6055Y10443D01*
X6023Y10453D01*
X5990Y10456D01*
X2557D01*
X2524Y10453D01*
X2492Y10443D01*
X2462Y10428D01*
X2436Y10406D01*
X2157Y10127D01*
X2143Y10109D01*
X2130Y10109D01*
X2021Y10218D01*
Y10725D01*
X2018Y10758D01*
X2008Y10790D01*
X1992Y10820D01*
X1971Y10846D01*
X1945Y10867D01*
X1915Y10883D01*
X1883Y10893D01*
X1850Y10896D01*
X1817Y10893D01*
X1785Y10883D01*
X1755Y10867D01*
X1729Y10846D01*
X1708Y10820D01*
X1692Y10790D01*
X1682Y10758D01*
X1679Y10725D01*
Y10177D01*
X1681Y10162D01*
X1679Y10147D01*
X1682Y10114D01*
X1692Y10082D01*
X1708Y10052D01*
X1729Y10026D01*
X2436Y9319D01*
X2448Y9310D01*
X2457Y9298D01*
X2510Y9245D01*
X2536Y9224D01*
X2566Y9208D01*
X2598Y9198D01*
X2631Y9195D01*
X2665Y9198D01*
X2697Y9208D01*
X2726Y9224D01*
X2752Y9245D01*
X2773Y9271D01*
X2789Y9300D01*
X2799Y9332D01*
X2802Y9366D01*
X2799Y9399D01*
X2789Y9431D01*
X2773Y9461D01*
X2752Y9487D01*
X2699Y9540D01*
X2687Y9549D01*
X2678Y9561D01*
X2449Y9790D01*
Y9936D01*
X2496Y9982D01*
X2507Y9976D01*
X2503Y9957D01*
Y9919D01*
X2511Y9880D01*
X2526Y9844D01*
X2548Y9812D01*
X2575Y9785D01*
X2607Y9763D01*
X2643Y9748D01*
X2682Y9740D01*
X2720D01*
X2759Y9748D01*
X2795Y9763D01*
X2827Y9785D01*
X2854Y9812D01*
X2876Y9844D01*
X2891Y9880D01*
X2899Y9919D01*
Y9957D01*
X2891Y9996D01*
X2876Y10032D01*
X2854Y10064D01*
X2827Y10091D01*
X2811Y10102D01*
X2815Y10115D01*
X5919D01*
X6359Y9674D01*
Y8160D01*
X6260D01*
Y7692D01*
X6248Y7687D01*
X6217Y7718D01*
X6202Y7730D01*
X6185Y7737D01*
X6167Y7739D01*
X5673D01*
X5655Y7737D01*
X5638Y7730D01*
X5623Y7718D01*
X5525Y7621D01*
X5508D01*
X5484Y7614D01*
X5462Y7601D01*
X5445Y7584D01*
X5432Y7562D01*
X5426Y7538D01*
Y7512D01*
X5428Y7503D01*
X4866Y6941D01*
X4604D01*
X4590Y6955D01*
X4566Y6969D01*
X4539Y6976D01*
X4511D01*
X4484Y6969D01*
X4460Y6955D01*
X4440Y6935D01*
X4426Y6911D01*
X4419Y6884D01*
Y6856D01*
X4426Y6829D01*
X4440Y6805D01*
X4460Y6785D01*
X4484Y6771D01*
X4511Y6764D01*
X4539D01*
X4566Y6771D01*
X4590Y6785D01*
X4604Y6799D01*
X4895D01*
X4913Y6802D01*
X4930Y6809D01*
X4945Y6820D01*
X5565Y7440D01*
X5580Y7449D01*
X5597Y7466D01*
X5610Y7488D01*
X5616Y7512D01*
X5702Y7598D01*
X5950D01*
X5955Y7586D01*
X5953Y7584D01*
X5940Y7562D01*
X5933Y7538D01*
Y7512D01*
X5940Y7488D01*
X5953Y7466D01*
X5970Y7449D01*
X5992Y7436D01*
X6016Y7429D01*
X6025D01*
X6604Y6850D01*
Y6375D01*
X6606Y6360D01*
X6257Y6010D01*
X6144D01*
Y5797D01*
X6356D01*
Y5911D01*
X6698Y6252D01*
X7254Y5696D01*
Y5687D01*
X7261Y5663D01*
X7274Y5641D01*
X7291Y5624D01*
X7313Y5611D01*
X7337Y5605D01*
X7363D01*
X7387Y5611D01*
X7389Y5612D01*
X7576Y5425D01*
X7591Y5414D01*
X7608Y5407D01*
X7626Y5404D01*
X8971D01*
X9369Y5006D01*
X9384Y4995D01*
X9401Y4988D01*
X9419Y4985D01*
X10936D01*
X10941Y4980D01*
X10963Y4967D01*
X10987Y4960D01*
X11013D01*
X11037Y4967D01*
X11059Y4980D01*
X11076Y4997D01*
X11089Y5019D01*
X11096Y5043D01*
Y5069D01*
X11089Y5093D01*
X11076Y5115D01*
X11059Y5132D01*
X11037Y5145D01*
X11013Y5151D01*
X10987D01*
X10963Y5145D01*
X10941Y5132D01*
X10936Y5127D01*
X9448D01*
X9050Y5525D01*
X9035Y5536D01*
X9018Y5543D01*
X9000Y5546D01*
X7655D01*
X7608Y5593D01*
X7613Y5605D01*
X7617D01*
X7641Y5611D01*
X7663Y5624D01*
X7680Y5641D01*
X7693Y5663D01*
X7699Y5687D01*
Y5713D01*
X7693Y5737D01*
X7680Y5759D01*
X7663Y5776D01*
X7641Y5789D01*
X7617Y5796D01*
X7591D01*
X7567Y5789D01*
X7564Y5787D01*
X7396Y5956D01*
Y6010D01*
X7395Y6013D01*
Y6112D01*
X7255D01*
Y5977D01*
X7329D01*
Y5942D01*
X7331Y5929D01*
X7339Y5918D01*
X7517Y5740D01*
X7515Y5737D01*
X7508Y5713D01*
Y5709D01*
X7497Y5704D01*
X7457Y5744D01*
X7442Y5755D01*
X7425Y5762D01*
X7422Y5763D01*
X7409Y5776D01*
X7387Y5789D01*
X7363Y5796D01*
X7354D01*
X6746Y6404D01*
Y6879D01*
X6743Y6897D01*
X6736Y6914D01*
X6725Y6929D01*
X6124Y7529D01*
Y7538D01*
X6118Y7562D01*
X6105Y7584D01*
X6103Y7586D01*
X6108Y7598D01*
X6137D01*
X6385Y7350D01*
X6400Y7339D01*
X6417Y7332D01*
X6435Y7329D01*
X6993D01*
Y7272D01*
X7207D01*
Y7329D01*
X7800D01*
X7800Y7329D01*
X7868D01*
Y7272D01*
X8082D01*
Y7329D01*
X8400D01*
X8400Y7329D01*
X8600D01*
X8618Y7332D01*
X8635Y7339D01*
X8650Y7350D01*
X9471Y8171D01*
X9482Y8186D01*
X9489Y8203D01*
X9492Y8221D01*
Y8268D01*
X9528D01*
Y8459D01*
X9592D01*
X9597Y8447D01*
X9590Y8440D01*
X9576Y8416D01*
X9568Y8389D01*
Y8361D01*
X9576Y8334D01*
X9590Y8310D01*
X9610Y8290D01*
X9617Y8286D01*
X9618Y8270D01*
X8189Y6841D01*
X8175D01*
X8170Y6840D01*
X8125D01*
Y6795D01*
X8124Y6790D01*
Y6755D01*
X8125Y6750D01*
Y6670D01*
X8225D01*
Y6742D01*
X8230Y6743D01*
X8246Y6754D01*
X9711Y8219D01*
X9722Y8236D01*
X9726Y8255D01*
Y8281D01*
X9740Y8290D01*
X9760Y8310D01*
X9774Y8334D01*
X9782Y8361D01*
Y8389D01*
X9774Y8416D01*
X9760Y8440D01*
X9753Y8447D01*
X9758Y8459D01*
X9941D01*
X10018Y8382D01*
Y8268D01*
X10232D01*
Y8482D01*
X10118D01*
X10020Y8579D01*
X10006Y8591D01*
X9989Y8598D01*
X9971Y8600D01*
X9312D01*
X9294Y8598D01*
X9277Y8591D01*
X9262Y8579D01*
X8843Y8161D01*
X8781D01*
Y10192D01*
X9193Y10604D01*
X9214Y10630D01*
X9230Y10660D01*
X9240Y10692D01*
X9243Y10725D01*
X9240Y10758D01*
X9230Y10790D01*
X9214Y10820D01*
X9193Y10846D01*
X9167Y10867D01*
X9137Y10883D01*
X9105Y10893D01*
X9072Y10896D01*
D02*
G37*
G36*
X5280Y7621D02*
X5254D01*
X5230Y7614D01*
X5208Y7601D01*
X5191Y7584D01*
X5178Y7562D01*
X5172Y7538D01*
Y7512D01*
X5178Y7488D01*
X5191Y7466D01*
X5208Y7449D01*
X5230Y7436D01*
X5254Y7429D01*
X5280D01*
X5304Y7436D01*
X5326Y7449D01*
X5343Y7466D01*
X5356Y7488D01*
X5362Y7512D01*
Y7538D01*
X5356Y7562D01*
X5343Y7584D01*
X5326Y7601D01*
X5304Y7614D01*
X5280Y7621D01*
D02*
G37*
G36*
X4539Y7276D02*
X4511D01*
X4484Y7269D01*
X4460Y7255D01*
X4440Y7235D01*
X4426Y7211D01*
X4419Y7184D01*
Y7156D01*
X4426Y7129D01*
X4440Y7105D01*
X4460Y7085D01*
X4484Y7071D01*
X4511Y7064D01*
X4539D01*
X4566Y7071D01*
X4590Y7085D01*
X4610Y7105D01*
X4624Y7129D01*
X4631Y7156D01*
Y7184D01*
X4624Y7211D01*
X4610Y7235D01*
X4590Y7255D01*
X4566Y7269D01*
X4539Y7276D01*
D02*
G37*
G36*
X4305Y8611D02*
X3905D01*
X3874Y8607D01*
X3844Y8595D01*
X3819Y8576D01*
X3800Y8551D01*
X3788Y8521D01*
X3784Y8490D01*
Y8290D01*
X3788Y8259D01*
X3800Y8229D01*
X3819Y8204D01*
X3844Y8185D01*
X3874Y8173D01*
X3905Y8169D01*
X4204D01*
Y6707D01*
X4207Y6689D01*
X4214Y6672D01*
X4225Y6657D01*
X4337Y6545D01*
X4351Y6534D01*
X4368Y6527D01*
X4387Y6525D01*
X4419D01*
Y6464D01*
X4631D01*
Y6479D01*
X5064D01*
X5083Y6481D01*
X5100Y6488D01*
X5114Y6499D01*
X5391Y6776D01*
X5402Y6771D01*
Y6680D01*
X5537D01*
Y6820D01*
X5467D01*
X5451Y6836D01*
X5554Y6939D01*
X5563D01*
X5587Y6946D01*
X5609Y6959D01*
X5626Y6976D01*
X5639Y6998D01*
X5646Y7022D01*
Y7048D01*
X5639Y7072D01*
X5626Y7094D01*
X5609Y7111D01*
X5587Y7124D01*
X5563Y7131D01*
X5537D01*
X5513Y7124D01*
X5491Y7111D01*
X5474Y7094D01*
X5461Y7072D01*
X5454Y7048D01*
Y7039D01*
X5333Y6917D01*
X5035Y6620D01*
X4631D01*
Y6676D01*
X4419D01*
Y6676D01*
X4407Y6675D01*
X4346Y6736D01*
Y8177D01*
X4366Y8185D01*
X4391Y8204D01*
X4410Y8229D01*
X4422Y8259D01*
X4426Y8290D01*
Y8490D01*
X4422Y8521D01*
X4410Y8551D01*
X4391Y8576D01*
X4366Y8595D01*
X4336Y8607D01*
X4305Y8611D01*
D02*
G37*
G36*
X7114Y7232D02*
X7086D01*
X7059Y7224D01*
X7035Y7210D01*
X7015Y7190D01*
X7001Y7166D01*
X6993Y7139D01*
Y7111D01*
X7001Y7084D01*
X7015Y7060D01*
X7035Y7040D01*
X7059Y7026D01*
X7086Y7018D01*
X7109D01*
X7354Y6774D01*
Y6760D01*
X7355Y6755D01*
Y6675D01*
X7455D01*
Y6755D01*
X7456Y6760D01*
Y6795D01*
X7455Y6800D01*
Y6845D01*
X7427D01*
X7195Y7077D01*
X7199Y7084D01*
X7207Y7111D01*
Y7139D01*
X7199Y7166D01*
X7185Y7190D01*
X7165Y7210D01*
X7141Y7224D01*
X7114Y7232D01*
D02*
G37*
G36*
X7989D02*
X7961D01*
X7934Y7224D01*
X7910Y7210D01*
X7890Y7190D01*
X7876Y7166D01*
X7868Y7139D01*
Y7111D01*
X7876Y7084D01*
X7880Y7077D01*
X7764Y6961D01*
X7753Y6945D01*
X7749Y6925D01*
Y6755D01*
X7750Y6750D01*
Y6670D01*
X7850D01*
Y6750D01*
X7851Y6755D01*
Y6904D01*
X7966Y7018D01*
X7989D01*
X8016Y7026D01*
X8040Y7040D01*
X8060Y7060D01*
X8074Y7084D01*
X8082Y7111D01*
Y7139D01*
X8074Y7166D01*
X8060Y7190D01*
X8040Y7210D01*
X8016Y7224D01*
X7989Y7232D01*
D02*
G37*
G36*
X5697Y6820D02*
X5562D01*
Y6680D01*
X5597D01*
Y6645D01*
X5562D01*
Y6505D01*
X5697D01*
Y6645D01*
X5663D01*
Y6680D01*
X5697D01*
Y6820D01*
D02*
G37*
G36*
X5537Y6645D02*
X5402D01*
Y6505D01*
X5437D01*
Y6470D01*
X5402D01*
Y6330D01*
X5537D01*
Y6470D01*
X5503D01*
Y6505D01*
X5537D01*
Y6645D01*
D02*
G37*
G36*
X7755Y6630D02*
X7655D01*
Y6460D01*
X7672D01*
Y6420D01*
X7627D01*
Y6284D01*
X7627Y6280D01*
X7627D01*
X7630Y6272D01*
X7630Y6272D01*
Y6137D01*
X7770D01*
Y6272D01*
X7770D01*
X7762Y6280D01*
Y6420D01*
X7738D01*
Y6460D01*
X7755D01*
Y6630D01*
D02*
G37*
G36*
X7360Y6635D02*
X7260D01*
Y6465D01*
X7277D01*
Y6445D01*
X7252D01*
Y6305D01*
X7292D01*
Y6272D01*
X7255D01*
Y6137D01*
X7395D01*
Y6272D01*
X7358D01*
Y6305D01*
X7387D01*
Y6445D01*
X7343D01*
Y6465D01*
X7360D01*
Y6635D01*
D02*
G37*
G36*
X8130Y6630D02*
X8030D01*
Y6460D01*
X8047D01*
Y6420D01*
X8027D01*
Y6280D01*
X8067D01*
Y6247D01*
X8030D01*
Y6112D01*
X8170D01*
Y6247D01*
X8133D01*
Y6280D01*
X8162D01*
Y6420D01*
X8113D01*
Y6460D01*
X8130D01*
Y6630D01*
D02*
G37*
G36*
X8376Y6116D02*
X8356D01*
X8338Y6108D01*
X8324Y6094D01*
X8316Y6076D01*
Y6056D01*
X8324Y6038D01*
X8333Y6029D01*
Y5790D01*
X8329Y5789D01*
X8307Y5776D01*
X8290Y5759D01*
X8277Y5737D01*
X8270Y5713D01*
Y5687D01*
X8277Y5663D01*
X8290Y5641D01*
X8307Y5624D01*
X8329Y5611D01*
X8353Y5605D01*
X8379D01*
X8403Y5611D01*
X8425Y5624D01*
X8442Y5641D01*
X8455Y5663D01*
X8461Y5687D01*
Y5713D01*
X8455Y5737D01*
X8442Y5759D01*
X8425Y5776D01*
X8403Y5789D01*
X8399Y5790D01*
Y6029D01*
X8408Y6038D01*
X8416Y6056D01*
Y6076D01*
X8408Y6094D01*
X8394Y6108D01*
X8376Y6116D01*
D02*
G37*
G36*
X8170Y6087D02*
X8030D01*
Y5952D01*
X8079D01*
Y5790D01*
X8075Y5789D01*
X8053Y5776D01*
X8036Y5759D01*
X8023Y5737D01*
X8016Y5713D01*
Y5687D01*
X8023Y5663D01*
X8036Y5641D01*
X8053Y5624D01*
X8075Y5611D01*
X8099Y5605D01*
X8125D01*
X8149Y5611D01*
X8171Y5624D01*
X8188Y5641D01*
X8201Y5663D01*
X8207Y5687D01*
Y5713D01*
X8201Y5737D01*
X8188Y5759D01*
X8171Y5776D01*
X8149Y5789D01*
X8145Y5790D01*
Y5952D01*
X8170D01*
Y6087D01*
D02*
G37*
G36*
X7770Y6112D02*
X7630D01*
Y5977D01*
X7723D01*
X7825Y5876D01*
Y5790D01*
X7821Y5789D01*
X7799Y5776D01*
X7782Y5759D01*
X7769Y5737D01*
X7762Y5713D01*
Y5687D01*
X7769Y5663D01*
X7782Y5641D01*
X7799Y5624D01*
X7821Y5611D01*
X7845Y5605D01*
X7871D01*
X7895Y5611D01*
X7917Y5624D01*
X7934Y5641D01*
X7947Y5663D01*
X7953Y5687D01*
Y5713D01*
X7947Y5737D01*
X7934Y5759D01*
X7917Y5776D01*
X7895Y5789D01*
X7891Y5790D01*
Y5889D01*
X7889Y5902D01*
X7882Y5913D01*
X7770Y6025D01*
Y6112D01*
D02*
G37*
G36*
X6855Y5796D02*
X6829D01*
X6805Y5789D01*
X6783Y5776D01*
X6766Y5759D01*
X6753Y5737D01*
X6746Y5713D01*
Y5687D01*
X6753Y5663D01*
X6766Y5641D01*
X6783Y5624D01*
X6805Y5611D01*
X6829Y5605D01*
X6855D01*
X6879Y5611D01*
X6901Y5624D01*
X6918Y5641D01*
X6931Y5663D01*
X6937Y5687D01*
Y5713D01*
X6931Y5737D01*
X6918Y5759D01*
X6901Y5776D01*
X6879Y5789D01*
X6855Y5796D01*
D02*
G37*
G36*
X4197Y6020D02*
X4153D01*
X4111Y6012D01*
X4071Y5995D01*
X4035Y5971D01*
X4004Y5940D01*
X3980Y5904D01*
X3963Y5864D01*
X3955Y5822D01*
Y5778D01*
X3963Y5736D01*
X3980Y5696D01*
X4004Y5660D01*
X4035Y5629D01*
X4071Y5605D01*
X4111Y5588D01*
X4153Y5580D01*
X4197D01*
X4239Y5588D01*
X4279Y5605D01*
X4315Y5629D01*
X4346Y5660D01*
X4370Y5696D01*
X4387Y5736D01*
X4395Y5778D01*
Y5822D01*
X4387Y5864D01*
X4370Y5904D01*
X4346Y5940D01*
X4315Y5971D01*
X4279Y5995D01*
X4239Y6012D01*
X4197Y6020D01*
D02*
G37*
G36*
X4527Y5431D02*
X4506D01*
X4485Y5425D01*
X4467Y5415D01*
X4452Y5400D01*
X4441Y5381D01*
X4435Y5361D01*
Y5339D01*
X4441Y5319D01*
X4452Y5300D01*
X4467Y5285D01*
X4485Y5275D01*
X4506Y5269D01*
X4527D01*
X4548Y5275D01*
X4566Y5285D01*
X4581Y5300D01*
X4592Y5319D01*
X4597Y5339D01*
Y5361D01*
X4592Y5381D01*
X4581Y5400D01*
X4566Y5415D01*
X4548Y5425D01*
X4527Y5431D01*
D02*
G37*
G36*
X5613Y5385D02*
X5587D01*
X5563Y5379D01*
X5541Y5366D01*
X5524Y5349D01*
X5511Y5327D01*
X5504Y5303D01*
Y5277D01*
X5511Y5253D01*
X5524Y5231D01*
X5541Y5214D01*
X5563Y5201D01*
X5587Y5194D01*
X5613D01*
X5637Y5201D01*
X5659Y5214D01*
X5676Y5231D01*
X5689Y5253D01*
X5696Y5277D01*
Y5303D01*
X5689Y5327D01*
X5676Y5349D01*
X5659Y5366D01*
X5637Y5379D01*
X5613Y5385D01*
D02*
G37*
G36*
X6214Y5210D02*
X6186D01*
X6159Y5203D01*
X6135Y5189D01*
X6115Y5169D01*
X6101Y5145D01*
X6094Y5118D01*
Y5090D01*
X6097Y5077D01*
X6081Y5061D01*
X4810D01*
X4803Y5067D01*
X4785Y5075D01*
X4765D01*
X4747Y5067D01*
X4733Y5053D01*
X4725Y5035D01*
Y5015D01*
X4729Y5006D01*
X4719Y4996D01*
X4710Y5000D01*
X4690D01*
X4672Y4992D01*
X4665Y4986D01*
X4389D01*
X4383Y4999D01*
X4383Y4999D01*
X4378Y5008D01*
X4392Y5022D01*
X4400Y5040D01*
Y5060D01*
X4392Y5078D01*
X4378Y5092D01*
X4360Y5100D01*
X4340D01*
X4322Y5092D01*
X4315Y5086D01*
X4240D01*
X4230Y5095D01*
X4219Y5103D01*
X4205Y5106D01*
X3945D01*
Y5138D01*
X3805D01*
Y5003D01*
X3945D01*
Y5034D01*
X4190D01*
X4200Y5025D01*
X4211Y5017D01*
X4225Y5014D01*
X4296D01*
X4301Y5002D01*
X4298Y4999D01*
X4291Y4980D01*
Y4961D01*
X4298Y4942D01*
X4312Y4928D01*
X4331Y4921D01*
X4351D01*
X4356Y4917D01*
X4369Y4914D01*
X4665D01*
X4672Y4908D01*
X4673Y4907D01*
Y4893D01*
X4672Y4892D01*
X4658Y4878D01*
X4650Y4860D01*
Y4840D01*
X4658Y4822D01*
X4672Y4808D01*
X4690Y4800D01*
X4710D01*
X4728Y4808D01*
X4735Y4814D01*
X4880D01*
Y4788D01*
X5020D01*
Y4914D01*
X6085D01*
X6094Y4906D01*
Y4744D01*
X6306D01*
Y4956D01*
X6144D01*
X6125Y4975D01*
X6116Y4981D01*
X6114Y4991D01*
X6115Y4996D01*
X6121Y5000D01*
X6138Y5017D01*
X6159Y5005D01*
X6186Y4997D01*
X6214D01*
X6241Y5005D01*
X6265Y5019D01*
X6285Y5039D01*
X6299Y5063D01*
X6306Y5090D01*
Y5118D01*
X6299Y5145D01*
X6285Y5169D01*
X6265Y5189D01*
X6241Y5203D01*
X6214Y5210D01*
D02*
G37*
G36*
X11013Y4897D02*
X10987D01*
X10963Y4891D01*
X10941Y4878D01*
X10924Y4861D01*
X10911Y4839D01*
X10904Y4815D01*
Y4789D01*
X10911Y4765D01*
X10924Y4743D01*
X10941Y4726D01*
X10963Y4713D01*
X10987Y4706D01*
X11013D01*
X11037Y4713D01*
X11059Y4726D01*
X11076Y4743D01*
X11089Y4765D01*
X11096Y4789D01*
Y4815D01*
X11089Y4839D01*
X11076Y4861D01*
X11059Y4878D01*
X11037Y4891D01*
X11013Y4897D01*
D02*
G37*
G36*
X4527Y4655D02*
X4506D01*
X4485Y4647D01*
X4470Y4631D01*
X4462Y4611D01*
Y4589D01*
X4470Y4569D01*
X4485Y4553D01*
X4506Y4545D01*
X4527D01*
X4548Y4553D01*
X4563Y4569D01*
X4572Y4589D01*
Y4611D01*
X4563Y4631D01*
X4548Y4647D01*
X4527Y4655D01*
D02*
G37*
G36*
X9272Y4920D02*
X9228D01*
X9186Y4912D01*
X9146Y4895D01*
X9110Y4871D01*
X9079Y4840D01*
X9055Y4804D01*
X9038Y4764D01*
X9030Y4722D01*
Y4678D01*
X9038Y4636D01*
X9055Y4596D01*
X9079Y4560D01*
X9110Y4529D01*
X9146Y4505D01*
X9186Y4488D01*
X9228Y4480D01*
X9272D01*
X9314Y4488D01*
X9354Y4505D01*
X9390Y4529D01*
X9421Y4560D01*
X9445Y4596D01*
X9462Y4636D01*
X9470Y4678D01*
Y4722D01*
X9462Y4764D01*
X9445Y4804D01*
X9421Y4840D01*
X9390Y4871D01*
X9354Y4895D01*
X9314Y4912D01*
X9272Y4920D01*
D02*
G37*
G36*
X11013Y4644D02*
X10987D01*
X10963Y4637D01*
X10941Y4624D01*
X10924Y4607D01*
X10911Y4585D01*
X10904Y4561D01*
Y4535D01*
X10911Y4511D01*
X10924Y4489D01*
X10941Y4472D01*
X10963Y4459D01*
X10987Y4453D01*
X11013D01*
X11037Y4459D01*
X11059Y4472D01*
X11076Y4489D01*
X11089Y4511D01*
X11096Y4535D01*
Y4561D01*
X11089Y4585D01*
X11076Y4607D01*
X11059Y4624D01*
X11037Y4637D01*
X11013Y4644D01*
D02*
G37*
G36*
Y4390D02*
X10987D01*
X10963Y4383D01*
X10941Y4370D01*
X10924Y4353D01*
X10911Y4331D01*
X10904Y4307D01*
Y4281D01*
X10911Y4257D01*
X10924Y4235D01*
X10941Y4218D01*
X10963Y4205D01*
X10987Y4199D01*
X11013D01*
X11037Y4205D01*
X11059Y4218D01*
X11076Y4235D01*
X11089Y4257D01*
X11096Y4281D01*
Y4307D01*
X11089Y4331D01*
X11076Y4353D01*
X11059Y4370D01*
X11037Y4383D01*
X11013Y4390D01*
D02*
G37*
G36*
X4063Y4346D02*
X4037D01*
X4013Y4339D01*
X3991Y4326D01*
X3974Y4309D01*
X3961Y4287D01*
X3954Y4263D01*
Y4237D01*
X3961Y4213D01*
X3974Y4191D01*
X3991Y4174D01*
X4013Y4161D01*
X4037Y4154D01*
X4063D01*
X4087Y4161D01*
X4109Y4174D01*
X4126Y4191D01*
X4139Y4213D01*
X4146Y4237D01*
Y4263D01*
X4139Y4287D01*
X4126Y4309D01*
X4109Y4326D01*
X4087Y4339D01*
X4063Y4346D01*
D02*
G37*
G36*
X8633Y4272D02*
X8607D01*
X8583Y4265D01*
X8561Y4252D01*
X8544Y4235D01*
X8531Y4213D01*
X8524Y4189D01*
Y4163D01*
X8531Y4139D01*
X8544Y4117D01*
X8561Y4100D01*
X8583Y4087D01*
X8607Y4081D01*
X8633D01*
X8657Y4087D01*
X8679Y4100D01*
X8696Y4117D01*
X8709Y4139D01*
X8715Y4163D01*
Y4189D01*
X8709Y4213D01*
X8696Y4235D01*
X8679Y4252D01*
X8657Y4265D01*
X8633Y4272D01*
D02*
G37*
G36*
X8379D02*
X8353D01*
X8329Y4265D01*
X8307Y4252D01*
X8290Y4235D01*
X8277Y4213D01*
X8270Y4189D01*
Y4163D01*
X8277Y4139D01*
X8290Y4117D01*
X8307Y4100D01*
X8329Y4087D01*
X8353Y4081D01*
X8379D01*
X8403Y4087D01*
X8425Y4100D01*
X8442Y4117D01*
X8455Y4139D01*
X8461Y4163D01*
Y4189D01*
X8455Y4213D01*
X8442Y4235D01*
X8425Y4252D01*
X8403Y4265D01*
X8379Y4272D01*
D02*
G37*
G36*
X8125D02*
X8099D01*
X8075Y4265D01*
X8053Y4252D01*
X8036Y4235D01*
X8023Y4213D01*
X8016Y4189D01*
Y4163D01*
X8023Y4139D01*
X8036Y4117D01*
X8053Y4100D01*
X8075Y4087D01*
X8099Y4081D01*
X8125D01*
X8149Y4087D01*
X8171Y4100D01*
X8188Y4117D01*
X8201Y4139D01*
X8207Y4163D01*
Y4189D01*
X8201Y4213D01*
X8188Y4235D01*
X8171Y4252D01*
X8149Y4265D01*
X8125Y4272D01*
D02*
G37*
G36*
X5697Y6470D02*
X5562D01*
Y6330D01*
X5597D01*
Y6295D01*
X5562D01*
Y6155D01*
X5662D01*
X5665Y6154D01*
X5677D01*
X5917Y5915D01*
Y5775D01*
X5919Y5762D01*
X5926Y5751D01*
X6809Y4869D01*
Y4266D01*
X6805Y4265D01*
X6783Y4252D01*
X6766Y4235D01*
X6753Y4213D01*
X6746Y4189D01*
Y4163D01*
X6753Y4139D01*
X6766Y4117D01*
X6783Y4100D01*
X6805Y4087D01*
X6829Y4081D01*
X6855D01*
X6879Y4087D01*
X6901Y4100D01*
X6918Y4117D01*
X6931Y4139D01*
X6937Y4163D01*
Y4189D01*
X6931Y4213D01*
X6918Y4235D01*
X6901Y4252D01*
X6879Y4265D01*
X6875Y4266D01*
Y4883D01*
X6873Y4896D01*
X6866Y4907D01*
X6241Y5531D01*
X6247Y5544D01*
X6264D01*
X6291Y5551D01*
X6298Y5555D01*
X7553Y4300D01*
Y4257D01*
X7545Y4252D01*
X7528Y4235D01*
X7515Y4213D01*
X7508Y4189D01*
Y4163D01*
X7515Y4139D01*
X7528Y4117D01*
X7545Y4100D01*
X7567Y4087D01*
X7591Y4081D01*
X7617D01*
X7641Y4087D01*
X7663Y4100D01*
X7680Y4117D01*
X7693Y4139D01*
X7699Y4163D01*
Y4189D01*
X7693Y4213D01*
X7680Y4235D01*
X7663Y4252D01*
X7655Y4257D01*
Y4321D01*
X7651Y4341D01*
X7640Y4357D01*
X6356Y5641D01*
Y5664D01*
X6349Y5691D01*
X6335Y5715D01*
X6315Y5735D01*
X6291Y5749D01*
X6264Y5756D01*
X6236D01*
X6209Y5749D01*
X6185Y5735D01*
X6165Y5715D01*
X6151Y5691D01*
X6144Y5664D01*
Y5647D01*
X6131Y5641D01*
X5983Y5789D01*
Y5928D01*
X5981Y5941D01*
X5974Y5952D01*
X5714Y6211D01*
X5703Y6219D01*
X5697Y6220D01*
Y6295D01*
X5663D01*
Y6330D01*
X5697D01*
Y6470D01*
D02*
G37*
G36*
X7363Y4272D02*
X7337D01*
X7313Y4265D01*
X7291Y4252D01*
X7274Y4235D01*
X7261Y4213D01*
X7254Y4189D01*
Y4163D01*
X7261Y4139D01*
X7274Y4117D01*
X7291Y4100D01*
X7313Y4087D01*
X7337Y4081D01*
X7363D01*
X7387Y4087D01*
X7409Y4100D01*
X7426Y4117D01*
X7439Y4139D01*
X7445Y4163D01*
Y4189D01*
X7439Y4213D01*
X7426Y4235D01*
X7409Y4252D01*
X7387Y4265D01*
X7363Y4272D01*
D02*
G37*
G36*
X7109D02*
X7083D01*
X7059Y4265D01*
X7037Y4252D01*
X7020Y4235D01*
X7007Y4213D01*
X7000Y4189D01*
Y4163D01*
X7007Y4139D01*
X7020Y4117D01*
X7037Y4100D01*
X7059Y4087D01*
X7083Y4081D01*
X7109D01*
X7133Y4087D01*
X7155Y4100D01*
X7172Y4117D01*
X7185Y4139D01*
X7191Y4163D01*
Y4189D01*
X7185Y4213D01*
X7172Y4235D01*
X7155Y4252D01*
X7133Y4265D01*
X7109Y4272D01*
D02*
G37*
G36*
X10389Y4255D02*
X10361D01*
X10334Y4248D01*
X10311Y4234D01*
X10291Y4214D01*
X10277Y4191D01*
X10270Y4164D01*
Y4136D01*
X10277Y4109D01*
X10291Y4086D01*
X10311Y4066D01*
X10334Y4052D01*
X10361Y4045D01*
X10389D01*
X10416Y4052D01*
X10439Y4066D01*
X10459Y4086D01*
X10473Y4109D01*
X10480Y4136D01*
Y4164D01*
X10473Y4191D01*
X10459Y4214D01*
X10439Y4234D01*
X10416Y4248D01*
X10389Y4255D01*
D02*
G37*
G36*
X6225Y4545D02*
X6175D01*
X6173Y4545D01*
X6171D01*
X6123Y4535D01*
X6121Y4535D01*
X6119Y4534D01*
X6074Y4515D01*
X6072Y4514D01*
X6070Y4514D01*
X6029Y4486D01*
X6028Y4485D01*
X6026Y4484D01*
X5991Y4449D01*
X5990Y4447D01*
X5989Y4446D01*
X5961Y4405D01*
X5961Y4403D01*
X5960Y4401D01*
X5941Y4356D01*
X5940Y4354D01*
X5940Y4352D01*
X5930Y4304D01*
Y4302D01*
X5930Y4300D01*
Y4250D01*
X5930Y4248D01*
Y4246D01*
X5940Y4198D01*
X5940Y4196D01*
X5941Y4194D01*
X5960Y4149D01*
X5961Y4147D01*
X5961Y4145D01*
X5989Y4104D01*
X5990Y4103D01*
X5991Y4101D01*
X6026Y4066D01*
X6028Y4065D01*
X6029Y4064D01*
X6070Y4036D01*
X6072Y4036D01*
X6074Y4035D01*
X6119Y4016D01*
X6121Y4015D01*
X6123Y4015D01*
X6171Y4005D01*
X6173D01*
X6175Y4005D01*
X6225D01*
X6227Y4005D01*
X6229D01*
X6277Y4015D01*
X6279Y4015D01*
X6281Y4016D01*
X6326Y4035D01*
X6328Y4036D01*
X6330Y4036D01*
X6371Y4064D01*
X6372Y4065D01*
X6374Y4066D01*
X6409Y4101D01*
X6410Y4103D01*
X6411Y4104D01*
X6439Y4145D01*
X6439Y4147D01*
X6440Y4149D01*
X6459Y4194D01*
X6460Y4196D01*
X6460Y4198D01*
X6470Y4246D01*
Y4248D01*
X6470Y4250D01*
Y4300D01*
X6470Y4302D01*
Y4304D01*
X6460Y4352D01*
X6460Y4354D01*
X6459Y4356D01*
X6440Y4401D01*
X6439Y4403D01*
X6439Y4405D01*
X6411Y4446D01*
X6410Y4447D01*
X6409Y4449D01*
X6374Y4484D01*
X6372Y4485D01*
X6371Y4486D01*
X6330Y4514D01*
X6328Y4514D01*
X6326Y4515D01*
X6281Y4534D01*
X6279Y4535D01*
X6277Y4535D01*
X6229Y4545D01*
X6227D01*
X6225Y4545D01*
D02*
G37*
G36*
X7871Y4272D02*
X7845D01*
X7821Y4265D01*
X7799Y4252D01*
X7782Y4235D01*
X7769Y4213D01*
X7762Y4189D01*
Y4163D01*
X7769Y4139D01*
X7782Y4117D01*
X7799Y4100D01*
X7821Y4087D01*
X7845Y4081D01*
X7871D01*
X7895Y4087D01*
X7898Y4089D01*
X8035Y3951D01*
X8046Y3944D01*
X8059Y3942D01*
X9550D01*
X9563Y3944D01*
X9574Y3951D01*
X9667Y4045D01*
X9830D01*
Y4255D01*
X9620D01*
Y4092D01*
X9536Y4008D01*
X8073D01*
X7945Y4136D01*
X7947Y4139D01*
X7953Y4163D01*
Y4189D01*
X7947Y4213D01*
X7934Y4235D01*
X7917Y4252D01*
X7895Y4265D01*
X7871Y4272D01*
D02*
G37*
G36*
X4046Y3826D02*
X4010D01*
X3974Y3817D01*
X3942Y3799D01*
X3916Y3773D01*
X3898Y3741D01*
X3888Y3705D01*
Y3669D01*
X3898Y3633D01*
X3916Y3601D01*
X3942Y3575D01*
X3974Y3557D01*
X4010Y3547D01*
X4046D01*
X4082Y3557D01*
X4114Y3575D01*
X4140Y3601D01*
X4158Y3633D01*
X4167Y3669D01*
Y3705D01*
X4158Y3741D01*
X4140Y3773D01*
X4114Y3799D01*
X4082Y3817D01*
X4046Y3826D01*
D02*
G37*
G36*
X10418Y3884D02*
X10380D01*
X10341Y3877D01*
X10305Y3862D01*
X10273Y3840D01*
X10246Y3813D01*
X10224Y3781D01*
X10209Y3745D01*
X10201Y3706D01*
Y3668D01*
X10209Y3629D01*
X10224Y3593D01*
X10246Y3561D01*
X10273Y3534D01*
X10305Y3512D01*
X10341Y3497D01*
X10380Y3489D01*
X10418D01*
X10457Y3497D01*
X10493Y3512D01*
X10525Y3534D01*
X10552Y3561D01*
X10574Y3593D01*
X10589Y3629D01*
X10596Y3668D01*
Y3706D01*
X10589Y3745D01*
X10574Y3781D01*
X10552Y3813D01*
X10525Y3840D01*
X10493Y3862D01*
X10457Y3877D01*
X10418Y3884D01*
D02*
G37*
G36*
X4898Y2311D02*
X4860D01*
X4821Y2303D01*
X4785Y2288D01*
X4753Y2266D01*
X4726Y2239D01*
X4704Y2207D01*
X4689Y2171D01*
X4681Y2132D01*
Y2094D01*
X4689Y2055D01*
X4704Y2019D01*
X4726Y1987D01*
X4753Y1960D01*
X4785Y1938D01*
X4821Y1923D01*
X4860Y1916D01*
X4898D01*
X4937Y1923D01*
X4973Y1938D01*
X5005Y1960D01*
X5032Y1987D01*
X5054Y2019D01*
X5069Y2055D01*
X5076Y2094D01*
Y2132D01*
X5069Y2171D01*
X5054Y2207D01*
X5032Y2239D01*
X5005Y2266D01*
X4973Y2288D01*
X4937Y2303D01*
X4898Y2311D01*
D02*
G37*
%LPD*%
G36*
X4430Y9571D02*
X3899D01*
X3899Y9571D01*
X3866Y9568D01*
X3834Y9558D01*
X3805Y9542D01*
X3779Y9521D01*
X3779Y9521D01*
X3589Y9331D01*
X3577Y9337D01*
Y9365D01*
X3567Y9401D01*
X3549Y9433D01*
X3523Y9459D01*
X3491Y9477D01*
X3455Y9487D01*
X3427D01*
X3421Y9499D01*
X3576Y9654D01*
X4430D01*
Y9571D01*
D02*
G37*
D12*
X5630Y6575D02*
Y6745D01*
X5470Y6400D02*
Y6570D01*
X5691Y6188D02*
X5950Y5928D01*
X5665Y6188D02*
X5691D01*
X5630Y6222D02*
X5665Y6188D01*
X5630Y6222D02*
Y6225D01*
X5630D02*
Y6395D01*
X5950Y5775D02*
Y5928D01*
Y5775D02*
X6842Y4883D01*
Y4176D02*
Y4883D01*
X5383Y6857D02*
Y6868D01*
Y6857D02*
X5470Y6770D01*
Y6750D02*
Y6770D01*
X8620Y7020D02*
X9450Y7850D01*
X11000D01*
X9550Y3975D02*
X9725Y4150D01*
X8059Y3975D02*
X9550D01*
X7858Y4176D02*
X8059Y3975D01*
X8620Y5700D02*
Y7020D01*
X8366Y5700D02*
Y6066D01*
X8080Y6365D02*
Y6545D01*
Y6365D02*
X8095Y6350D01*
X8100Y6345D01*
Y6180D02*
Y6345D01*
Y6020D02*
X8112Y6008D01*
Y5700D02*
Y6008D01*
X7705Y6360D02*
Y6545D01*
X7695Y6350D02*
X7705Y6360D01*
X7695Y6350D02*
X7700Y6345D01*
Y6205D02*
Y6345D01*
Y6045D02*
X7702D01*
X7858Y5889D01*
Y5700D02*
Y5889D01*
X7310Y6385D02*
Y6550D01*
Y6385D02*
X7320Y6375D01*
X7325Y6370D01*
Y6205D02*
Y6370D01*
Y6045D02*
X7328D01*
X7362Y6010D01*
Y5942D02*
Y6010D01*
Y5942D02*
X7604Y5700D01*
D13*
X4349Y4971D02*
X4369Y4950D01*
X4341Y4971D02*
X4349D01*
X4369Y4950D02*
X6100D01*
X6200Y4850D01*
X6175Y5104D02*
X6200D01*
X6096Y5025D02*
X6175Y5104D01*
X4775Y5025D02*
X6096D01*
X4945Y4850D02*
X4950Y4855D01*
X4700Y4850D02*
X4945D01*
X4205Y5070D02*
X4225Y5050D01*
X3875Y5070D02*
X4205D01*
X4225Y5050D02*
X4350D01*
D14*
X4095Y8910D02*
D03*
X4105Y8390D02*
D03*
D15*
X3875Y5230D02*
D03*
X4950Y4695D02*
D03*
X7700Y6045D02*
D03*
X7325D02*
D03*
X8100Y6020D02*
D03*
X3875Y5070D02*
D03*
X4950Y4855D02*
D03*
X8100Y6180D02*
D03*
X7700Y6205D02*
D03*
X7325D02*
D03*
D16*
X5470Y6225D02*
D03*
X8255Y6350D02*
D03*
X7855D02*
D03*
X7480Y6375D02*
D03*
X5470Y6750D02*
D03*
X5630Y6225D02*
D03*
Y6400D02*
D03*
Y6750D02*
D03*
Y6575D02*
D03*
X5470D02*
D03*
Y6400D02*
D03*
X8095Y6350D02*
D03*
X7695D02*
D03*
X7320Y6375D02*
D03*
D17*
X8270Y6545D02*
D03*
X7895Y6545D02*
D03*
X7500Y6550D02*
D03*
X8175Y6755D02*
D03*
X8080Y6545D02*
D03*
X7800Y6755D02*
D03*
X7705Y6545D02*
D03*
X7405Y6760D02*
D03*
X7310Y6550D02*
D03*
D18*
X4725Y9400D02*
D03*
Y7900D02*
D03*
X6555Y7890D02*
D03*
X8385D02*
D03*
D19*
X4525Y7450D02*
D03*
Y6290D02*
D03*
D20*
X9725Y4600D02*
D03*
X10375D02*
D03*
Y4150D02*
D03*
D21*
X4301Y4735D02*
D03*
Y5215D02*
D03*
X4732D02*
D03*
Y4735D02*
D03*
D22*
X10379Y8375D02*
D03*
X6200Y5104D02*
D03*
X6250Y5650D02*
D03*
X7100Y7125D02*
D03*
X7975D02*
D03*
X9675Y8375D02*
D03*
D23*
X11000Y8358D02*
D03*
X5775Y7525D02*
D03*
X7096Y5700D02*
D03*
X4050Y7035D02*
D03*
X5550Y4250D02*
D03*
X5600Y5290D02*
D03*
X4050Y4250D02*
D03*
X5550Y7035D02*
D03*
X8620Y4176D02*
D03*
X8366D02*
D03*
X8112D02*
D03*
X7858D02*
D03*
X7604D02*
D03*
X7350D02*
D03*
X7096D02*
D03*
X6842D02*
D03*
X8620Y5700D02*
D03*
X8366D02*
D03*
X8112D02*
D03*
X7858D02*
D03*
X7604D02*
D03*
X7350D02*
D03*
X6842D02*
D03*
X6029Y7525D02*
D03*
X5521D02*
D03*
X5267D02*
D03*
X11000Y4294D02*
D03*
Y4548D02*
D03*
Y4802D02*
D03*
Y5056D02*
D03*
Y8104D02*
D03*
Y7850D02*
D03*
Y7596D02*
D03*
D24*
X10125Y8375D02*
D03*
X9421D02*
D03*
D25*
X4525Y6570D02*
D03*
D26*
X9072Y10725D02*
D03*
X11250Y2900D02*
D03*
X2650Y9347D02*
D03*
X1850Y10725D02*
D03*
X4028Y2900D02*
D03*
X2650Y2125D02*
D03*
D27*
X6200Y4850D02*
D03*
X6250Y5904D02*
D03*
X7100Y7379D02*
D03*
X7975D02*
D03*
D28*
X4525Y7170D02*
D03*
Y6870D02*
D03*
D29*
X9725Y4150D02*
D03*
D30*
X4517Y5350D02*
D03*
D31*
Y4600D02*
D03*
D32*
X2701Y9938D02*
D03*
X8221Y11512D02*
D03*
X3437Y2976D02*
D03*
X1863Y8496D02*
D03*
X10399Y3687D02*
D03*
X4879Y2113D02*
D03*
D33*
X9072Y9938D02*
D03*
X3437Y9347D02*
D03*
X4028Y3687D02*
D03*
D34*
X8557Y10493D02*
D03*
X11400Y11250D02*
D03*
X11200Y10850D02*
D03*
X11400Y10450D02*
D03*
X11200Y10050D02*
D03*
X11400Y9650D02*
D03*
X11200Y9250D02*
D03*
Y8450D02*
D03*
X11400Y8050D02*
D03*
Y7250D02*
D03*
Y5650D02*
D03*
X11200Y5250D02*
D03*
X11400Y4850D02*
D03*
Y4050D02*
D03*
X11200Y3650D02*
D03*
X11400Y3250D02*
D03*
Y2450D02*
D03*
X11200Y2050D02*
D03*
X11000Y11250D02*
D03*
X10800Y10850D02*
D03*
X11000Y10450D02*
D03*
X10800Y10050D02*
D03*
X11000Y9650D02*
D03*
X10800Y9250D02*
D03*
Y8450D02*
D03*
X11000Y4050D02*
D03*
X10800Y3650D02*
D03*
X11000Y3250D02*
D03*
Y2450D02*
D03*
X10800Y2050D02*
D03*
X10600Y11250D02*
D03*
X10400Y10850D02*
D03*
X10600Y10450D02*
D03*
X10400Y10050D02*
D03*
X10600Y9650D02*
D03*
X10400Y9250D02*
D03*
X10600Y8850D02*
D03*
Y8050D02*
D03*
Y4850D02*
D03*
Y4050D02*
D03*
Y3250D02*
D03*
Y2450D02*
D03*
X10400Y2050D02*
D03*
X10200Y11250D02*
D03*
X10000Y10850D02*
D03*
X10200Y10450D02*
D03*
X10000Y10050D02*
D03*
X10200Y9650D02*
D03*
X10000Y9250D02*
D03*
X10200Y8850D02*
D03*
Y8050D02*
D03*
Y4850D02*
D03*
X10000Y4450D02*
D03*
Y3650D02*
D03*
X10200Y3250D02*
D03*
Y2450D02*
D03*
X10000Y2050D02*
D03*
X9800Y11250D02*
D03*
X9600Y10850D02*
D03*
X9800Y10450D02*
D03*
X9600Y10050D02*
D03*
X9800Y9650D02*
D03*
Y8850D02*
D03*
Y8050D02*
D03*
Y4850D02*
D03*
X9600Y4450D02*
D03*
Y3650D02*
D03*
X9800Y3250D02*
D03*
Y2450D02*
D03*
X9600Y2050D02*
D03*
X9400Y11250D02*
D03*
Y10450D02*
D03*
Y9650D02*
D03*
X9200Y3650D02*
D03*
X9400Y3250D02*
D03*
Y2450D02*
D03*
X9200Y2050D02*
D03*
X9000Y11250D02*
D03*
Y9650D02*
D03*
Y8850D02*
D03*
X8800Y5250D02*
D03*
Y4450D02*
D03*
Y3650D02*
D03*
X9000Y3250D02*
D03*
Y2450D02*
D03*
X8800Y2050D02*
D03*
X8600Y11250D02*
D03*
X8400Y10850D02*
D03*
Y10050D02*
D03*
Y5250D02*
D03*
X8600Y4850D02*
D03*
X8400Y3650D02*
D03*
X8600Y3250D02*
D03*
Y2450D02*
D03*
X8400Y2050D02*
D03*
X8000Y10850D02*
D03*
X8200Y10450D02*
D03*
X8000Y10050D02*
D03*
X8200Y9650D02*
D03*
X8000Y9250D02*
D03*
X8200Y8850D02*
D03*
X8000Y8450D02*
D03*
Y5250D02*
D03*
Y4450D02*
D03*
Y3650D02*
D03*
X8200Y3250D02*
D03*
Y2450D02*
D03*
X8000Y2050D02*
D03*
X7800Y11250D02*
D03*
X7600Y10850D02*
D03*
X7800Y10450D02*
D03*
X7600Y10050D02*
D03*
X7800Y9650D02*
D03*
X7600Y9250D02*
D03*
X7800Y8850D02*
D03*
X7600Y8450D02*
D03*
X7800Y8050D02*
D03*
X7600Y7650D02*
D03*
Y6850D02*
D03*
Y5250D02*
D03*
X7800Y4850D02*
D03*
X7600Y3650D02*
D03*
X7800Y3250D02*
D03*
Y2450D02*
D03*
X7600Y2050D02*
D03*
X7400Y11250D02*
D03*
X7200Y10850D02*
D03*
X7400Y10450D02*
D03*
X7200Y10050D02*
D03*
X7400Y9650D02*
D03*
X7200Y9250D02*
D03*
X7400Y8850D02*
D03*
X7200Y8450D02*
D03*
X7400Y8050D02*
D03*
X7200Y7650D02*
D03*
Y5250D02*
D03*
X7400Y4850D02*
D03*
X7200Y4450D02*
D03*
Y3650D02*
D03*
X7400Y3250D02*
D03*
Y2450D02*
D03*
X7200Y2050D02*
D03*
X7000Y11250D02*
D03*
X6800Y10850D02*
D03*
X7000Y10450D02*
D03*
X6800Y10050D02*
D03*
X7000Y9650D02*
D03*
Y8850D02*
D03*
Y8050D02*
D03*
Y6450D02*
D03*
X6800Y3650D02*
D03*
Y2850D02*
D03*
X7000Y2450D02*
D03*
X6800Y2050D02*
D03*
X6600Y11250D02*
D03*
X6400Y10850D02*
D03*
X6600Y10450D02*
D03*
X6400Y6850D02*
D03*
X6600Y5650D02*
D03*
Y4850D02*
D03*
Y4050D02*
D03*
X6400Y3650D02*
D03*
Y2850D02*
D03*
X6600Y2450D02*
D03*
X6400Y2050D02*
D03*
X6200Y11250D02*
D03*
X6000Y10850D02*
D03*
Y9250D02*
D03*
X6200Y8850D02*
D03*
X6000Y8450D02*
D03*
Y6850D02*
D03*
X6200Y6450D02*
D03*
X6000Y5250D02*
D03*
Y3650D02*
D03*
Y2850D02*
D03*
X6200Y2450D02*
D03*
X6000Y2050D02*
D03*
X5800Y11250D02*
D03*
X5600Y10850D02*
D03*
X5800Y9650D02*
D03*
Y8850D02*
D03*
Y8050D02*
D03*
Y7250D02*
D03*
Y5650D02*
D03*
X5600Y4450D02*
D03*
X5800Y4050D02*
D03*
X5600Y3650D02*
D03*
Y2850D02*
D03*
X5800Y2450D02*
D03*
X5600Y2050D02*
D03*
X5400Y11250D02*
D03*
X5200Y10850D02*
D03*
X5400Y8050D02*
D03*
X5200Y6050D02*
D03*
X5400Y5650D02*
D03*
X5200Y5250D02*
D03*
Y4450D02*
D03*
X5400Y4050D02*
D03*
X5200Y3650D02*
D03*
Y2850D02*
D03*
X5400Y2450D02*
D03*
X5000Y11250D02*
D03*
X4800Y10850D02*
D03*
X5000Y8850D02*
D03*
X4800Y8450D02*
D03*
Y6050D02*
D03*
X5000Y5650D02*
D03*
X4800Y4450D02*
D03*
X5000Y4050D02*
D03*
X4800Y3650D02*
D03*
Y2850D02*
D03*
X5000Y2450D02*
D03*
X4600Y11250D02*
D03*
X4400Y10850D02*
D03*
X4600Y8850D02*
D03*
Y5650D02*
D03*
X4400Y4450D02*
D03*
X4600Y4050D02*
D03*
X4400Y3650D02*
D03*
Y2850D02*
D03*
X4600Y2450D02*
D03*
X4400Y2050D02*
D03*
X4200Y11250D02*
D03*
X4000Y10850D02*
D03*
Y7650D02*
D03*
Y6850D02*
D03*
X4200Y6450D02*
D03*
Y4050D02*
D03*
Y2450D02*
D03*
X4000Y2050D02*
D03*
X3800Y11250D02*
D03*
X3600Y10850D02*
D03*
Y8450D02*
D03*
X3800Y8050D02*
D03*
X3600Y7650D02*
D03*
X3800Y7250D02*
D03*
X3600Y6850D02*
D03*
X3800Y6450D02*
D03*
X3600Y6050D02*
D03*
X3800Y5650D02*
D03*
X3600Y5250D02*
D03*
X3800Y4850D02*
D03*
X3600Y4450D02*
D03*
X3800Y4050D02*
D03*
X3600Y3650D02*
D03*
X3400Y11250D02*
D03*
X3200Y10850D02*
D03*
X3400Y8050D02*
D03*
Y7250D02*
D03*
Y6450D02*
D03*
Y5650D02*
D03*
Y4850D02*
D03*
Y4050D02*
D03*
X3000Y11250D02*
D03*
X2800Y10850D02*
D03*
X3000Y2450D02*
D03*
X2600Y11250D02*
D03*
X2400Y10850D02*
D03*
X2200Y11250D02*
D03*
Y10450D02*
D03*
X2000Y9250D02*
D03*
X2200Y8850D02*
D03*
Y8050D02*
D03*
X2000Y7650D02*
D03*
X2200Y7250D02*
D03*
X2000Y6850D02*
D03*
X2200Y6450D02*
D03*
X2000Y6050D02*
D03*
X2200Y5650D02*
D03*
X2000Y5250D02*
D03*
X2200Y4850D02*
D03*
X2000Y4450D02*
D03*
X2200Y4050D02*
D03*
X2000Y3650D02*
D03*
X2200Y3250D02*
D03*
X2000Y2850D02*
D03*
X2200Y2450D02*
D03*
X2000Y2050D02*
D03*
X4700Y4950D02*
D03*
X4775Y5025D02*
D03*
X4700Y4850D02*
D03*
X4350Y5050D02*
D03*
X4341Y4971D02*
D03*
X8366Y6066D02*
D03*
D35*
X8610Y10263D02*
X9072Y10725D01*
X8610Y8090D02*
Y10263D01*
X3050Y8625D02*
X3483Y9058D01*
X3050Y3501D02*
Y8625D01*
X3226Y3325D02*
X6812D01*
X3050Y3501D02*
X3226Y3325D01*
X2650Y2125D02*
Y8875D01*
X3148Y9373D01*
X3483Y9058D02*
X3557D01*
X3899Y9400D01*
X4725D01*
X5990Y10285D02*
X6530Y9745D01*
X2557Y10285D02*
X5990D01*
X1850Y10147D02*
X2557Y9440D01*
X1850Y10177D02*
Y10725D01*
X2578Y9419D02*
X2631Y9366D01*
X2278Y9719D02*
Y10007D01*
X2557Y10285D01*
X5200Y9825D02*
X5450Y9575D01*
X3148Y9467D02*
X3506Y9825D01*
X5200D01*
X3148Y9373D02*
Y9467D01*
X5450Y8600D02*
Y9575D01*
X4750Y7900D02*
X5450Y8600D01*
X6530Y7915D02*
Y9745D01*
X7237Y2900D02*
X11250D01*
X6812Y3325D02*
X7237Y2900D01*
X2650Y2125D02*
X3253D01*
X4028Y2900D01*
D36*
X4725Y7900D02*
X4750D01*
X2631Y9366D02*
X2650Y9347D01*
X4275Y6707D02*
Y8244D01*
X4500Y6595D02*
X4525Y6570D01*
X4387Y6595D02*
X4500D01*
X4275Y6707D02*
X4387Y6595D01*
X5064Y6549D02*
X5383Y6868D01*
X4546Y6549D02*
X5064D01*
X4129Y8390D02*
X4275Y8244D01*
X4105Y8390D02*
X4129D01*
X7800Y7400D02*
X8400D01*
X6435Y7400D02*
X7800D01*
X9971Y8529D02*
X10125Y8375D01*
X9312Y8529D02*
X9971D01*
X8873Y8090D02*
X9312Y8529D01*
X8585Y8090D02*
X8873D01*
X9421Y8221D02*
Y8375D01*
X9420Y8376D02*
X9421Y8375D01*
X5383Y6868D02*
X5550Y7035D01*
X6250Y5904D02*
X6698Y6352D01*
X6675Y6375D02*
X6698Y6352D01*
X7356Y5694D01*
X6675Y6375D02*
Y6879D01*
X6225Y5875D02*
X6275Y5925D01*
X7800Y7400D02*
X7800Y7400D01*
X8400Y7400D02*
X8600D01*
X9421Y8221D01*
X6167Y7668D02*
X6435Y7400D01*
X8400Y7400D02*
X8400Y7400D01*
X8410Y7890D02*
X8610Y8090D01*
X5673Y7668D02*
X6167D01*
X5529Y7525D02*
X5673Y7668D01*
X5521Y7525D02*
X5529D01*
X6029D02*
X6675Y6879D01*
X7626Y5475D02*
X9000D01*
X9419Y5056D01*
X7407Y5694D02*
X7626Y5475D01*
X7356Y5694D02*
X7407D01*
X9419Y5056D02*
X11000D01*
X5515Y7490D02*
Y7519D01*
X4895Y6870D02*
X5515Y7490D01*
X4600Y6870D02*
X4895D01*
X5515Y7519D02*
X5521Y7525D01*
D37*
X7975Y7100D02*
Y7125D01*
X7800Y6925D02*
X7975Y7100D01*
X7800Y6755D02*
Y6925D01*
X8175Y6790D02*
X8210D01*
X8175Y6755D02*
Y6790D01*
X8210D02*
X9675Y8255D01*
Y8375D01*
X6293Y5632D02*
X7604Y4321D01*
X6257Y5632D02*
X6293D01*
X7604Y4176D02*
Y4321D01*
X6250Y5625D02*
X6257Y5632D01*
X7100Y7100D02*
Y7125D01*
Y7100D02*
X7405Y6795D01*
Y6760D02*
Y6795D01*
M02*
