G04*
G04 #@! TF.GenerationSoftware,Altium Limited,Altium Designer,26.3.0 (6)*
G04*
G04 Layer_Color=65535*
%FSLAX42Y42*%
%MOMM*%
G71*
G04*
G04 #@! TF.SameCoordinates,0AA099D0-1225-4A31-BAC4-6EAD77824322*
G04*
G04*
G04 #@! TF.FilePolarity,Positive*
G04*
G01*
G75*
%ADD10C,0.20*%
%ADD11C,0.10*%
%ADD12C,0.25*%
%ADD13C,0.30*%
D10*
X4626Y9501D02*
G03*
X3926Y8801I0J-700D01*
G01*
Y8481D02*
G03*
X4626Y7781I700J-0D01*
G01*
X8476D02*
G03*
X9176Y8481I-0J700D01*
G01*
Y8801D02*
G03*
X8476Y9501I-700J0D01*
G01*
X9362Y10735D02*
G03*
X9362Y10715I0J-10D01*
G01*
D02*
G03*
X9362Y10735I0J10D01*
G01*
X2640Y9637D02*
G03*
X2660Y9637I10J0D01*
G01*
D02*
G03*
X2640Y9637I-10J0D01*
G01*
X3738Y2890D02*
G03*
X3738Y2910I0J10D01*
G01*
D02*
G03*
X3738Y2890I0J-10D01*
G01*
X9176Y8481D02*
Y8801D01*
X4626Y7781D02*
X8476D01*
X4626Y9501D02*
X8476D01*
X3926Y8481D02*
Y8801D01*
X10006Y8050D02*
Y8685D01*
Y8050D02*
X10499D01*
Y8685D01*
X10006D02*
X10499D01*
X5890Y4731D02*
X6525D01*
Y5224D01*
X5890D02*
X6525D01*
X5890Y4731D02*
Y5224D01*
X5925Y6024D02*
X6560D01*
X5925Y5531D02*
Y6024D01*
Y5531D02*
X6560D01*
Y6024D01*
X6775Y7499D02*
X7410D01*
X6775Y7006D02*
Y7499D01*
Y7006D02*
X7410D01*
Y7499D01*
X7650D02*
X8285D01*
X7650Y7006D02*
Y7499D01*
Y7006D02*
X8285D01*
Y7499D01*
X9301Y8050D02*
Y8685D01*
Y8050D02*
X9794D01*
Y8685D01*
X9301D02*
X9794D01*
X8025Y6480D02*
Y6610D01*
X8029Y6645D02*
X8321D01*
Y6655D01*
X8029D02*
X8321D01*
X8029Y6645D02*
Y6655D01*
X7650Y6480D02*
Y6610D01*
X7654Y6645D02*
X7946D01*
Y6655D01*
X7654D02*
X7946D01*
X7654Y6645D02*
Y6655D01*
X7255Y6485D02*
Y6615D01*
X7259Y6650D02*
X7551D01*
Y6660D01*
X7259D02*
X7551D01*
X7259Y6650D02*
Y6660D01*
X11170Y7870D02*
Y7770D01*
X11220D01*
X11237Y7787D01*
Y7853D01*
X11220Y7870D01*
X11170D01*
D11*
X9955Y8375D02*
G03*
X9945Y8375I-5J0D01*
G01*
D02*
G03*
X9955Y8375I5J0D01*
G01*
X6200Y4680D02*
G03*
X6200Y4670I0J-5D01*
G01*
D02*
G03*
X6200Y4680I0J5D01*
G01*
X6250Y6074D02*
G03*
X6250Y6084I0J5D01*
G01*
D02*
G03*
X6250Y6074I0J-5D01*
G01*
X7100Y7549D02*
G03*
X7100Y7559I0J5D01*
G01*
D02*
G03*
X7100Y7549I0J-5D01*
G01*
X7975D02*
G03*
X7975Y7559I0J5D01*
G01*
D02*
G03*
X7975Y7549I0J-5D01*
G01*
X9251Y8375D02*
G03*
X9241Y8375I-5J0D01*
G01*
D02*
G03*
X9251Y8375I5J0D01*
G01*
X5473Y5165D02*
X5727D01*
Y5419D01*
X5473Y5165D02*
Y5419D01*
X5727D01*
X3923Y4123D02*
Y4377D01*
Y4123D02*
X4177D01*
Y4377D01*
X3923D02*
X4177D01*
X5423Y4123D02*
Y4377D01*
Y4123D02*
X5677D01*
Y4377D01*
X5423D02*
X5677D01*
X5423Y7162D02*
X5677D01*
Y6908D02*
Y7162D01*
X5423Y6908D02*
X5677D01*
X5423D02*
Y7162D01*
X4177Y6908D02*
Y7162D01*
X3923Y6908D02*
X4177D01*
X3923D02*
Y7162D01*
X4177D01*
X8493Y4303D02*
X8747D01*
Y4049D02*
Y4303D01*
X8493Y4049D02*
X8747D01*
X8239Y4303D02*
X8493D01*
Y4049D02*
Y4303D01*
X8239Y4049D02*
X8493D01*
Y4303D01*
X8239Y4049D02*
Y4303D01*
X7985D02*
X8239D01*
Y4049D02*
Y4303D01*
X7985Y4049D02*
X8239D01*
X7985D02*
Y4303D01*
X7731D02*
X7985D01*
Y4049D02*
Y4303D01*
X7731Y4049D02*
X7985D01*
X7731D02*
Y4303D01*
X7477D02*
X7731D01*
Y4049D02*
Y4303D01*
X7477Y4049D02*
X7731D01*
X7477D02*
Y4303D01*
X7223D02*
X7477D01*
Y4049D02*
Y4303D01*
X7223Y4049D02*
X7477D01*
X7223D02*
Y4303D01*
X6969D02*
X7223D01*
Y4049D02*
Y4303D01*
X6969Y4049D02*
X7223D01*
X6969D02*
Y4303D01*
X6715D02*
X6969D01*
Y4049D02*
Y4303D01*
X6715Y4049D02*
X6969D01*
X6715D02*
Y4303D01*
X8493Y5827D02*
X8747D01*
Y5573D02*
Y5827D01*
X8493Y5573D02*
X8747D01*
X8239Y5827D02*
X8493D01*
Y5573D02*
Y5827D01*
X8239Y5573D02*
X8493D01*
Y5827D01*
X8239Y5573D02*
Y5827D01*
X7985D02*
X8239D01*
Y5573D02*
Y5827D01*
X7985Y5573D02*
X8239D01*
X7985D02*
Y5827D01*
X7731D02*
X7985D01*
Y5573D02*
Y5827D01*
X7731Y5573D02*
X7985D01*
X7731D02*
Y5827D01*
X7477D02*
X7731D01*
Y5573D02*
Y5827D01*
X7477Y5573D02*
X7731D01*
X7477D02*
Y5827D01*
X7223D02*
X7477D01*
Y5573D02*
Y5827D01*
X7223Y5573D02*
X7477D01*
X7223D02*
Y5827D01*
X6969D02*
X7223D01*
Y5573D02*
Y5827D01*
X6969Y5573D02*
X7223D01*
X6969D02*
Y5827D01*
X6715D02*
X6969D01*
Y5573D02*
Y5827D01*
X6715Y5573D02*
X6969D01*
X6715D02*
Y5827D01*
X5902Y7652D02*
X6156D01*
Y7398D02*
Y7652D01*
X5902Y7398D02*
X6156D01*
X5902D02*
Y7652D01*
X5648D02*
X5902D01*
Y7398D02*
Y7652D01*
X5648Y7398D02*
X5902D01*
X5648D02*
Y7652D01*
X5394D02*
X5648D01*
Y7398D02*
Y7652D01*
X5394Y7398D02*
X5648D01*
X5394D02*
Y7652D01*
X5140D02*
X5394D01*
Y7398D02*
Y7652D01*
X5140Y7398D02*
X5394D01*
X5140D02*
Y7652D01*
X10873Y4167D02*
Y4421D01*
X11127D01*
Y4167D02*
Y4421D01*
X10873Y4167D02*
X11127D01*
X10873Y4421D02*
Y4675D01*
X11127D01*
Y4421D02*
Y4675D01*
X10873Y4421D02*
X11127D01*
X10873Y4675D02*
Y4929D01*
X11127D01*
Y4675D02*
Y4929D01*
X10873Y4675D02*
X11127D01*
X10873Y4929D02*
Y5183D01*
X11127D01*
Y4929D02*
Y5183D01*
X10873Y4929D02*
X11127D01*
X10873Y8231D02*
Y8485D01*
X11127D01*
Y8231D02*
Y8485D01*
X10873Y8231D02*
X11127D01*
X10873Y7977D02*
Y8231D01*
X11127D01*
Y7977D02*
Y8231D01*
X10873Y7977D02*
X11127D01*
X10873Y7723D02*
Y7977D01*
X11127D01*
Y7723D02*
Y7977D01*
X10873Y7723D02*
X11127D01*
X10873Y7469D02*
Y7723D01*
X11127D01*
Y7469D02*
Y7723D01*
X10873Y7469D02*
X11127D01*
X9312Y9692D02*
Y11758D01*
Y9692D02*
Y11758D01*
X1608Y9692D02*
Y11758D01*
Y9692D02*
Y11758D01*
X1618Y9587D02*
X3683D01*
X1618D02*
X3683D01*
X1618Y1883D02*
X3683D01*
X1618D02*
X3683D01*
X3788Y1867D02*
Y3932D01*
Y1867D02*
Y3932D01*
X11492Y1867D02*
Y3932D01*
Y1867D02*
Y3932D01*
D12*
X3812Y4042D02*
Y7215D01*
X5790Y4042D02*
Y7215D01*
X3812D02*
X5790D01*
X3812Y4042D02*
X5790D01*
X6670Y4001D02*
X8800D01*
X6670Y5866D02*
X8800D01*
X6670Y4001D02*
Y5866D01*
X8800Y4001D02*
Y5866D01*
X5097Y7335D02*
Y9135D01*
X6197Y7335D02*
Y9135D01*
X5097D02*
X6197D01*
X5097Y7335D02*
X6197D01*
X10746Y4040D02*
X11508D01*
X10746Y8612D02*
X11508D01*
X10746Y4040D02*
Y8612D01*
X11508Y4040D02*
Y8612D01*
X3969Y4657D02*
X3944Y4632D01*
Y4581D01*
X3969Y4555D01*
X4071D01*
X4096Y4581D01*
Y4632D01*
X4071Y4657D01*
X3944Y4708D02*
X4096D01*
X4020D01*
X3995Y4733D01*
Y4784D01*
X4020Y4809D01*
X4096D01*
X3995Y4885D02*
Y4936D01*
X4020Y4962D01*
X4096D01*
Y4885D01*
X4071Y4860D01*
X4046Y4885D01*
Y4962D01*
X3995Y5012D02*
X4096D01*
X4046D01*
X4020Y5038D01*
X3995Y5063D01*
Y5089D01*
X4147Y5216D02*
Y5241D01*
X4122Y5266D01*
X3995D01*
Y5190D01*
X4020Y5165D01*
X4071D01*
X4096Y5190D01*
Y5266D01*
Y5393D02*
Y5343D01*
X4071Y5317D01*
X4020D01*
X3995Y5343D01*
Y5393D01*
X4020Y5419D01*
X4046D01*
Y5317D01*
X5070Y9362D02*
X5096Y9388D01*
X5147D01*
X5172Y9362D01*
Y9337D01*
X5147Y9312D01*
X5121D01*
X5147D01*
X5172Y9286D01*
Y9261D01*
X5147Y9235D01*
X5096D01*
X5070Y9261D01*
X5324Y9362D02*
X5299Y9388D01*
X5248D01*
X5223Y9362D01*
Y9337D01*
X5248Y9312D01*
X5299D01*
X5324Y9286D01*
Y9261D01*
X5299Y9235D01*
X5248D01*
X5223Y9261D01*
X5527Y9388D02*
Y9235D01*
X5604D01*
X5629Y9261D01*
Y9286D01*
X5604Y9312D01*
X5527D01*
X5604D01*
X5629Y9337D01*
Y9362D01*
X5604Y9388D01*
X5527D01*
X5680Y9235D02*
Y9388D01*
X5731Y9337D01*
X5781Y9388D01*
Y9235D01*
X5934Y9362D02*
X5908Y9388D01*
X5858D01*
X5832Y9362D01*
Y9337D01*
X5858Y9312D01*
X5908D01*
X5934Y9286D01*
Y9261D01*
X5908Y9235D01*
X5858D01*
X5832Y9261D01*
X8601Y4423D02*
X8702D01*
Y4576D01*
X8601D01*
X8702Y4499D02*
X8651D01*
X8448Y4449D02*
X8474Y4423D01*
X8524D01*
X8550Y4449D01*
Y4474D01*
X8524Y4499D01*
X8474D01*
X8448Y4525D01*
Y4550D01*
X8474Y4576D01*
X8524D01*
X8550Y4550D01*
X8397Y4576D02*
Y4423D01*
X8321D01*
X8296Y4449D01*
Y4499D01*
X8321Y4525D01*
X8397D01*
X5229Y7770D02*
X5382D01*
Y7847D01*
X5356Y7872D01*
X5331D01*
X5305Y7847D01*
Y7770D01*
Y7847D01*
X5280Y7872D01*
X5255D01*
X5229Y7847D01*
Y7770D01*
X5280Y7923D02*
X5356D01*
X5382Y7948D01*
Y8024D01*
X5280D01*
Y8177D02*
Y8100D01*
X5305Y8075D01*
X5356D01*
X5382Y8100D01*
Y8177D01*
Y8227D02*
X5229D01*
X5331D02*
X5280Y8304D01*
X5331Y8227D02*
X5382Y8304D01*
X11385Y7951D02*
X11232D01*
Y8028D01*
X11258Y8053D01*
X11308D01*
X11334Y8028D01*
Y7951D01*
Y8002D02*
X11385Y8053D01*
X11232Y8104D02*
X11385Y8205D01*
X11232D02*
X11385Y8104D01*
X11232Y8256D02*
X11385D01*
Y8332D01*
X11359Y8358D01*
X11334D01*
X11308Y8332D01*
Y8256D01*
Y8332D01*
X11283Y8358D01*
X11258D01*
X11232Y8332D01*
Y8256D01*
Y8510D02*
X11258Y8459D01*
X11308Y8408D01*
X11359D01*
X11385Y8434D01*
Y8485D01*
X11359Y8510D01*
X11334D01*
X11308Y8485D01*
Y8408D01*
X6150Y4651D02*
X6252D01*
X6201Y4702D02*
Y4600D01*
X6175Y5275D02*
X6277D01*
X6700Y5053D02*
Y4926D01*
X6726Y4900D01*
X6777D01*
X6802Y4926D01*
Y5053D01*
X6954Y5027D02*
X6929Y5053D01*
X6878D01*
X6853Y5027D01*
Y5002D01*
X6878Y4977D01*
X6929D01*
X6954Y4951D01*
Y4926D01*
X6929Y4900D01*
X6878D01*
X6853Y4926D01*
X7005Y5053D02*
Y4900D01*
X7081D01*
X7107Y4926D01*
Y4951D01*
X7081Y4977D01*
X7005D01*
X7081D01*
X7107Y5002D01*
Y5027D01*
X7081Y5053D01*
X7005D01*
D13*
X6138Y6330D02*
X6005D01*
Y6130D01*
X6138D01*
X6005Y6230D02*
X6072D01*
X6205Y6263D02*
X6338Y6130D01*
X6272Y6197D01*
X6338Y6263D01*
X6205Y6130D01*
X6438Y6297D02*
Y6263D01*
X6405D01*
X6472D01*
X6438D01*
Y6163D01*
X6472Y6130D01*
X11205Y5072D02*
X11338D01*
X11272Y5138D02*
Y5005D01*
X10330Y7955D02*
X10463D01*
X10055Y7947D02*
X10188D01*
X10122Y8013D02*
Y7880D01*
X9630Y7955D02*
X9763D01*
X9355Y7947D02*
X9488D01*
X9422Y8013D02*
Y7880D01*
X7930Y6905D02*
X8063D01*
X7905Y7597D02*
X8038D01*
X7972Y7663D02*
Y7530D01*
X7030Y6905D02*
X7163D01*
X7030Y7622D02*
X7163D01*
X7097Y7688D02*
Y7555D01*
X8330Y7355D02*
Y7155D01*
X8463D01*
X8663Y7355D02*
X8530D01*
Y7155D01*
X8663D01*
X8530Y7255D02*
X8597D01*
X8730Y7355D02*
Y7155D01*
X8830D01*
X8863Y7188D01*
Y7322D01*
X8830Y7355D01*
X8730D01*
X8930Y7155D02*
X8996D01*
X8963D01*
Y7355D01*
X8930Y7322D01*
X6005Y7305D02*
Y7105D01*
X6138D01*
X6338Y7305D02*
X6205D01*
Y7105D01*
X6338D01*
X6205Y7205D02*
X6272D01*
X6405Y7305D02*
Y7105D01*
X6505D01*
X6538Y7138D01*
Y7272D01*
X6505Y7305D01*
X6405D01*
X6738Y7105D02*
X6605D01*
X6738Y7238D01*
Y7272D01*
X6705Y7305D01*
X6638D01*
X6605Y7272D01*
X10005Y8930D02*
Y8730D01*
X10105D01*
X10138Y8763D01*
Y8797D01*
X10105Y8830D01*
X10005D01*
X10105D01*
X10138Y8863D01*
Y8897D01*
X10105Y8930D01*
X10005D01*
X10238Y8863D02*
X10305D01*
X10338Y8830D01*
Y8730D01*
X10238D01*
X10205Y8763D01*
X10238Y8797D01*
X10338D01*
X10438Y8897D02*
Y8863D01*
X10405D01*
X10472D01*
X10438D01*
Y8763D01*
X10472Y8730D01*
X9280Y8955D02*
Y8755D01*
X9380D01*
X9413Y8788D01*
Y8822D01*
X9380Y8855D01*
X9280D01*
X9380D01*
X9413Y8888D01*
Y8922D01*
X9380Y8955D01*
X9280D01*
X9480Y8888D02*
Y8788D01*
X9513Y8755D01*
X9613D01*
Y8888D01*
X9680D02*
X9813D01*
X9680Y8755D01*
X9813D01*
X10130Y2855D02*
X10263D01*
X5105Y2872D02*
X5238D01*
X5172Y2938D02*
Y2805D01*
X2580Y3305D02*
X2713D01*
X2580Y8397D02*
X2713D01*
X2647Y8463D02*
Y8330D01*
X7980Y10772D02*
X8113D01*
X8047Y10838D02*
Y10705D01*
X2955D02*
X3088D01*
M02*
