G04*
G04 #@! TF.GenerationSoftware,Altium Limited,Altium Designer,26.3.0 (6)*
G04*
G04 Layer_Physical_Order=2*
G04 Layer_Color=16711680*
%FSLAX42Y42*%
%MOMM*%
G71*
G04*
G04 #@! TF.SameCoordinates,E2D752D8-C529-49F6-9FD5-532CE932737C*
G04*
G04*
G04 #@! TF.FilePolarity,Positive*
G04*
G01*
G75*
%ADD19C,1.31*%
%ADD20R,3.50X3.50*%
%ADD21C,0.60*%
%ADD24C,7.00*%
G36*
X3018Y5680D02*
X3052Y5673D01*
X3085Y5659D01*
X3114Y5640D01*
X3140Y5614D01*
X3159Y5585D01*
X3173Y5552D01*
X3180Y5518D01*
X3180Y5500D01*
Y5500D01*
D01*
X3180Y200D01*
X3180Y182D01*
X3173Y148D01*
X3159Y115D01*
X3140Y86D01*
X3114Y60D01*
X3085Y41D01*
X3052Y27D01*
X3018Y20D01*
X182D01*
X148Y27D01*
X115Y41D01*
X86Y60D01*
X60Y86D01*
X41Y115D01*
X27Y148D01*
X20Y182D01*
Y200D01*
Y5500D01*
Y5518D01*
X27Y5552D01*
X41Y5585D01*
X60Y5614D01*
X86Y5640D01*
X115Y5659D01*
X148Y5673D01*
X182Y5680D01*
X3000D01*
X3018Y5680D01*
D02*
G37*
%LPC*%
G36*
X3033Y5117D02*
X3007D01*
X2983Y5111D01*
X2961Y5098D01*
X2944Y5081D01*
X2931Y5059D01*
X2925Y5035D01*
Y5009D01*
X2931Y4985D01*
X2944Y4963D01*
X2961Y4946D01*
X2983Y4933D01*
X3007Y4926D01*
X3033D01*
X3057Y4933D01*
X3079Y4946D01*
X3096Y4963D01*
X3109Y4985D01*
X3116Y5009D01*
Y5035D01*
X3109Y5059D01*
X3096Y5081D01*
X3079Y5098D01*
X3057Y5111D01*
X3033Y5117D01*
D02*
G37*
G36*
Y4863D02*
X3007D01*
X2983Y4857D01*
X2961Y4844D01*
X2944Y4827D01*
X2931Y4805D01*
X2925Y4781D01*
Y4755D01*
X2931Y4731D01*
X2944Y4709D01*
X2961Y4692D01*
X2983Y4679D01*
X3007Y4672D01*
X3033D01*
X3057Y4679D01*
X3079Y4692D01*
X3096Y4709D01*
X3109Y4731D01*
X3116Y4755D01*
Y4781D01*
X3109Y4805D01*
X3096Y4827D01*
X3079Y4844D01*
X3057Y4857D01*
X3033Y4863D01*
D02*
G37*
G36*
Y4610D02*
X3007D01*
X2983Y4603D01*
X2961Y4590D01*
X2944Y4573D01*
X2931Y4551D01*
X2925Y4527D01*
Y4501D01*
X2931Y4477D01*
X2944Y4455D01*
X2961Y4438D01*
X2983Y4425D01*
X3007Y4419D01*
X3033D01*
X3057Y4425D01*
X3079Y4438D01*
X3096Y4455D01*
X3109Y4477D01*
X3116Y4501D01*
Y4527D01*
X3109Y4551D01*
X3096Y4573D01*
X3079Y4590D01*
X3057Y4603D01*
X3033Y4610D01*
D02*
G37*
G36*
Y4356D02*
X3007D01*
X2983Y4349D01*
X2961Y4336D01*
X2944Y4319D01*
X2931Y4297D01*
X2925Y4273D01*
Y4247D01*
X2931Y4223D01*
X2944Y4201D01*
X2961Y4184D01*
X2983Y4171D01*
X3007Y4165D01*
X3033D01*
X3057Y4171D01*
X3079Y4184D01*
X3096Y4201D01*
X3109Y4223D01*
X3116Y4247D01*
Y4273D01*
X3109Y4297D01*
X3096Y4319D01*
X3079Y4336D01*
X3057Y4349D01*
X3033Y4356D01*
D02*
G37*
G36*
X813Y3649D02*
X787D01*
X763Y3643D01*
X741Y3630D01*
X724Y3613D01*
X711Y3591D01*
X705Y3567D01*
Y3541D01*
X711Y3517D01*
X724Y3495D01*
X741Y3478D01*
X763Y3465D01*
X787Y3458D01*
X813D01*
X837Y3465D01*
X859Y3478D01*
X876Y3495D01*
X889Y3517D01*
X895Y3541D01*
Y3567D01*
X889Y3591D01*
X876Y3613D01*
X859Y3630D01*
X837Y3643D01*
X813Y3649D01*
D02*
G37*
G36*
Y3396D02*
X787D01*
X763Y3389D01*
X741Y3376D01*
X724Y3359D01*
X711Y3337D01*
X705Y3313D01*
Y3287D01*
X711Y3263D01*
X724Y3241D01*
X741Y3224D01*
X763Y3211D01*
X787Y3204D01*
X813D01*
X837Y3211D01*
X859Y3224D01*
X876Y3241D01*
X889Y3263D01*
X895Y3287D01*
Y3313D01*
X889Y3337D01*
X876Y3359D01*
X859Y3376D01*
X837Y3389D01*
X813Y3396D01*
D02*
G37*
G36*
Y2888D02*
X787D01*
X763Y2881D01*
X741Y2868D01*
X724Y2851D01*
X711Y2829D01*
X705Y2805D01*
Y2779D01*
X711Y2755D01*
X724Y2733D01*
X741Y2716D01*
X763Y2703D01*
X787Y2697D01*
X813D01*
X837Y2703D01*
X859Y2716D01*
X876Y2733D01*
X889Y2755D01*
X895Y2779D01*
Y2805D01*
X889Y2829D01*
X876Y2851D01*
X859Y2868D01*
X837Y2881D01*
X813Y2888D01*
D02*
G37*
G36*
X2093Y2319D02*
X2067D01*
X2043Y2313D01*
X2021Y2300D01*
X2004Y2283D01*
X1991Y2261D01*
X1984Y2237D01*
Y2211D01*
X1991Y2187D01*
X2004Y2165D01*
X2021Y2148D01*
X2043Y2135D01*
X2067Y2128D01*
X2093D01*
X2117Y2135D01*
X2139Y2148D01*
X2156Y2165D01*
X2169Y2187D01*
X2175Y2211D01*
Y2237D01*
X2169Y2261D01*
X2156Y2283D01*
X2139Y2300D01*
X2117Y2313D01*
X2093Y2319D01*
D02*
G37*
G36*
X1839D02*
X1813D01*
X1789Y2313D01*
X1767Y2300D01*
X1750Y2283D01*
X1737Y2261D01*
X1731Y2237D01*
Y2211D01*
X1737Y2187D01*
X1750Y2165D01*
X1767Y2148D01*
X1789Y2135D01*
X1813Y2128D01*
X1839D01*
X1863Y2135D01*
X1885Y2148D01*
X1902Y2165D01*
X1915Y2187D01*
X1922Y2211D01*
Y2237D01*
X1915Y2261D01*
X1902Y2283D01*
X1885Y2300D01*
X1863Y2313D01*
X1839Y2319D01*
D02*
G37*
G36*
X1585D02*
X1559D01*
X1535Y2313D01*
X1513Y2300D01*
X1496Y2283D01*
X1483Y2261D01*
X1477Y2237D01*
Y2211D01*
X1483Y2187D01*
X1496Y2165D01*
X1513Y2148D01*
X1535Y2135D01*
X1559Y2128D01*
X1585D01*
X1609Y2135D01*
X1631Y2148D01*
X1648Y2165D01*
X1661Y2187D01*
X1667Y2211D01*
Y2237D01*
X1661Y2261D01*
X1648Y2283D01*
X1631Y2300D01*
X1609Y2313D01*
X1585Y2319D01*
D02*
G37*
G36*
X1331D02*
X1305D01*
X1281Y2313D01*
X1259Y2300D01*
X1242Y2283D01*
X1229Y2261D01*
X1223Y2237D01*
Y2211D01*
X1229Y2187D01*
X1242Y2165D01*
X1259Y2148D01*
X1281Y2135D01*
X1305Y2128D01*
X1331D01*
X1355Y2135D01*
X1377Y2148D01*
X1394Y2165D01*
X1407Y2187D01*
X1414Y2211D01*
Y2237D01*
X1407Y2261D01*
X1394Y2283D01*
X1377Y2300D01*
X1355Y2313D01*
X1331Y2319D01*
D02*
G37*
G36*
X1077D02*
X1051D01*
X1027Y2313D01*
X1005Y2300D01*
X988Y2283D01*
X975Y2261D01*
X969Y2237D01*
Y2211D01*
X975Y2187D01*
X988Y2165D01*
X1005Y2148D01*
X1027Y2135D01*
X1051Y2128D01*
X1077D01*
X1101Y2135D01*
X1123Y2148D01*
X1140Y2165D01*
X1153Y2187D01*
X1160Y2211D01*
Y2237D01*
X1153Y2261D01*
X1140Y2283D01*
X1123Y2300D01*
X1101Y2313D01*
X1077Y2319D01*
D02*
G37*
G36*
X823D02*
X797D01*
X773Y2313D01*
X751Y2300D01*
X734Y2283D01*
X721Y2261D01*
X714Y2237D01*
Y2211D01*
X721Y2187D01*
X734Y2165D01*
X751Y2148D01*
X773Y2135D01*
X797Y2128D01*
X823D01*
X847Y2135D01*
X869Y2148D01*
X886Y2165D01*
X899Y2187D01*
X906Y2211D01*
Y2237D01*
X899Y2261D01*
X886Y2283D01*
X869Y2300D01*
X847Y2313D01*
X823Y2319D01*
D02*
G37*
G36*
X315D02*
X289D01*
X265Y2313D01*
X243Y2300D01*
X226Y2283D01*
X213Y2261D01*
X207Y2237D01*
Y2211D01*
X213Y2187D01*
X226Y2165D01*
X243Y2148D01*
X265Y2135D01*
X289Y2128D01*
X315D01*
X339Y2135D01*
X361Y2148D01*
X378Y2165D01*
X391Y2187D01*
X397Y2211D01*
Y2237D01*
X391Y2261D01*
X378Y2283D01*
X361Y2300D01*
X339Y2313D01*
X315Y2319D01*
D02*
G37*
G36*
X3033Y1816D02*
X3007D01*
X2983Y1809D01*
X2961Y1796D01*
X2944Y1779D01*
X2931Y1757D01*
X2925Y1733D01*
Y1707D01*
X2931Y1683D01*
X2944Y1661D01*
X2961Y1644D01*
X2983Y1631D01*
X3007Y1625D01*
X3033D01*
X3057Y1631D01*
X3079Y1644D01*
X3096Y1661D01*
X3109Y1683D01*
X3116Y1707D01*
Y1733D01*
X3109Y1757D01*
X3096Y1779D01*
X3079Y1796D01*
X3057Y1809D01*
X3033Y1816D01*
D02*
G37*
G36*
Y1561D02*
X3007D01*
X2983Y1555D01*
X2961Y1542D01*
X2944Y1525D01*
X2931Y1503D01*
X2925Y1479D01*
Y1453D01*
X2931Y1429D01*
X2944Y1407D01*
X2961Y1390D01*
X2983Y1377D01*
X3007Y1370D01*
X3033D01*
X3057Y1377D01*
X3079Y1390D01*
X3096Y1407D01*
X3109Y1429D01*
X3116Y1453D01*
Y1479D01*
X3109Y1503D01*
X3096Y1525D01*
X3079Y1542D01*
X3057Y1555D01*
X3033Y1561D01*
D02*
G37*
G36*
Y1307D02*
X3007D01*
X2983Y1301D01*
X2961Y1288D01*
X2944Y1271D01*
X2931Y1249D01*
X2925Y1225D01*
Y1199D01*
X2931Y1175D01*
X2944Y1153D01*
X2961Y1136D01*
X2983Y1123D01*
X3007Y1116D01*
X3033D01*
X3057Y1123D01*
X3079Y1136D01*
X3096Y1153D01*
X3109Y1175D01*
X3116Y1199D01*
Y1225D01*
X3109Y1249D01*
X3096Y1271D01*
X3079Y1288D01*
X3057Y1301D01*
X3033Y1307D01*
D02*
G37*
G36*
X2093Y795D02*
X2067D01*
X2043Y789D01*
X2021Y776D01*
X2004Y759D01*
X1991Y737D01*
X1984Y713D01*
Y687D01*
X1991Y663D01*
X2004Y641D01*
X2021Y624D01*
X2043Y611D01*
X2067Y605D01*
X2093D01*
X2117Y611D01*
X2139Y624D01*
X2156Y641D01*
X2169Y663D01*
X2175Y687D01*
Y713D01*
X2169Y737D01*
X2156Y759D01*
X2139Y776D01*
X2117Y789D01*
X2093Y795D01*
D02*
G37*
G36*
X1839D02*
X1813D01*
X1789Y789D01*
X1767Y776D01*
X1750Y759D01*
X1737Y737D01*
X1731Y713D01*
Y687D01*
X1737Y663D01*
X1750Y641D01*
X1767Y624D01*
X1789Y611D01*
X1813Y605D01*
X1839D01*
X1863Y611D01*
X1885Y624D01*
X1902Y641D01*
X1915Y663D01*
X1922Y687D01*
Y713D01*
X1915Y737D01*
X1902Y759D01*
X1885Y776D01*
X1863Y789D01*
X1839Y795D01*
D02*
G37*
G36*
X1585D02*
X1559D01*
X1535Y789D01*
X1513Y776D01*
X1496Y759D01*
X1483Y737D01*
X1477Y713D01*
Y687D01*
X1483Y663D01*
X1496Y641D01*
X1513Y624D01*
X1535Y611D01*
X1559Y605D01*
X1585D01*
X1609Y611D01*
X1631Y624D01*
X1648Y641D01*
X1661Y663D01*
X1667Y687D01*
Y713D01*
X1661Y737D01*
X1648Y759D01*
X1631Y776D01*
X1609Y789D01*
X1585Y795D01*
D02*
G37*
G36*
X1331D02*
X1305D01*
X1281Y789D01*
X1259Y776D01*
X1242Y759D01*
X1229Y737D01*
X1223Y713D01*
Y687D01*
X1229Y663D01*
X1242Y641D01*
X1259Y624D01*
X1281Y611D01*
X1305Y605D01*
X1331D01*
X1355Y611D01*
X1377Y624D01*
X1394Y641D01*
X1407Y663D01*
X1414Y687D01*
Y713D01*
X1407Y737D01*
X1394Y759D01*
X1377Y776D01*
X1355Y789D01*
X1331Y795D01*
D02*
G37*
G36*
X1077D02*
X1051D01*
X1027Y789D01*
X1005Y776D01*
X988Y759D01*
X975Y737D01*
X969Y713D01*
Y687D01*
X975Y663D01*
X988Y641D01*
X1005Y624D01*
X1027Y611D01*
X1051Y605D01*
X1077D01*
X1101Y611D01*
X1123Y624D01*
X1140Y641D01*
X1153Y663D01*
X1160Y687D01*
Y713D01*
X1153Y737D01*
X1140Y759D01*
X1123Y776D01*
X1101Y789D01*
X1077Y795D01*
D02*
G37*
G36*
X823D02*
X797D01*
X773Y789D01*
X751Y776D01*
X734Y759D01*
X721Y737D01*
X714Y713D01*
Y687D01*
X721Y663D01*
X734Y641D01*
X751Y624D01*
X773Y611D01*
X797Y605D01*
X823D01*
X847Y611D01*
X869Y624D01*
X886Y641D01*
X899Y663D01*
X906Y687D01*
Y713D01*
X899Y737D01*
X886Y759D01*
X869Y776D01*
X847Y789D01*
X823Y795D01*
D02*
G37*
G36*
X569D02*
X543D01*
X519Y789D01*
X497Y776D01*
X480Y759D01*
X467Y737D01*
X461Y713D01*
Y687D01*
X467Y663D01*
X480Y641D01*
X497Y624D01*
X519Y611D01*
X543Y605D01*
X569D01*
X593Y611D01*
X615Y624D01*
X632Y641D01*
X645Y663D01*
X651Y687D01*
Y713D01*
X645Y737D01*
X632Y759D01*
X615Y776D01*
X593Y789D01*
X569Y795D01*
D02*
G37*
G36*
X315D02*
X289D01*
X265Y789D01*
X243Y776D01*
X226Y759D01*
X213Y737D01*
X207Y713D01*
Y687D01*
X213Y663D01*
X226Y641D01*
X243Y624D01*
X265Y611D01*
X289Y605D01*
X315D01*
X339Y611D01*
X361Y624D01*
X378Y641D01*
X391Y663D01*
X397Y687D01*
Y713D01*
X391Y737D01*
X378Y759D01*
X361Y776D01*
X339Y789D01*
X315Y795D01*
D02*
G37*
%LPD*%
D19*
X800Y3554D02*
D03*
Y3300D02*
D03*
Y3046D02*
D03*
Y2792D02*
D03*
X3020Y1720D02*
D03*
Y1466D02*
D03*
Y1212D02*
D03*
Y958D02*
D03*
Y4260D02*
D03*
Y4514D02*
D03*
Y4768D02*
D03*
Y5022D02*
D03*
X302Y2224D02*
D03*
X556D02*
D03*
X810D02*
D03*
X1064D02*
D03*
X1318D02*
D03*
X1572D02*
D03*
X1826D02*
D03*
X2080D02*
D03*
X302Y700D02*
D03*
X556D02*
D03*
X810D02*
D03*
X1064D02*
D03*
X1318D02*
D03*
X1572D02*
D03*
X1826D02*
D03*
X2080D02*
D03*
D20*
X2105Y5349D02*
D03*
X755D02*
D03*
D21*
X1640Y3160D02*
D03*
X2623Y3977D02*
D03*
X980Y4000D02*
D03*
X1019Y3386D02*
D03*
X1000Y3200D02*
D03*
X1200Y3300D02*
D03*
X1910Y4653D02*
D03*
X580Y2430D02*
D03*
X2800Y5200D02*
D03*
Y2800D02*
D03*
Y2000D02*
D03*
Y400D02*
D03*
X2400Y5200D02*
D03*
Y4400D02*
D03*
Y2800D02*
D03*
X2600Y2400D02*
D03*
Y1600D02*
D03*
X2400Y1200D02*
D03*
X2600Y800D02*
D03*
X2400Y400D02*
D03*
X2000Y4400D02*
D03*
X2200Y4000D02*
D03*
X2000Y3600D02*
D03*
Y2800D02*
D03*
X2200Y1600D02*
D03*
X2000Y1200D02*
D03*
Y400D02*
D03*
X1600Y5200D02*
D03*
X1800Y4000D02*
D03*
Y3200D02*
D03*
Y1600D02*
D03*
X1600Y1200D02*
D03*
Y400D02*
D03*
X1200Y5200D02*
D03*
Y400D02*
D03*
X800Y4400D02*
D03*
Y400D02*
D03*
X400Y5200D02*
D03*
X600Y4800D02*
D03*
X400Y4400D02*
D03*
X600Y3200D02*
D03*
X400Y2800D02*
D03*
X600Y1600D02*
D03*
X400Y1200D02*
D03*
Y400D02*
D03*
X1630Y3310D02*
D03*
X1430Y3600D02*
D03*
X1440Y4320D02*
D03*
Y4000D02*
D03*
X1910Y4490D02*
D03*
X1780Y4320D02*
D03*
X1700D02*
D03*
X2870Y790D02*
D03*
X2860Y950D02*
D03*
X3030Y780D02*
D03*
X590Y2040D02*
D03*
X460D02*
D03*
D24*
X2540Y3430D02*
D03*
X400Y4000D02*
D03*
X1140Y1430D02*
D03*
M02*
