G04*
G04 #@! TF.GenerationSoftware,Altium Limited,Altium Designer,26.3.0 (6)*
G04*
G04 Layer_Color=16711935*
%FSLAX42Y42*%
%MOMM*%
G71*
G04*
G04 #@! TF.SameCoordinates,E2D752D8-C529-49F6-9FD5-532CE932737C*
G04*
G04*
G04 #@! TF.FilePolarity,Negative*
G04*
G01*
G75*
%ADD18C,3.50*%
%ADD19C,1.31*%
%ADD20R,3.50X3.50*%
%ADD21C,0.60*%
D18*
X2715Y3430D02*
G03*
X2715Y3430I-175J0D01*
G01*
X575Y4000D02*
G03*
X575Y4000I-175J0D01*
G01*
X1315Y1430D02*
G03*
X1315Y1430I-175J0D01*
G01*
D19*
X800Y3554D02*
D03*
Y3300D02*
D03*
Y3046D02*
D03*
Y2792D02*
D03*
X3020Y1720D02*
D03*
Y1466D02*
D03*
Y1212D02*
D03*
Y958D02*
D03*
Y4260D02*
D03*
Y4514D02*
D03*
Y4768D02*
D03*
Y5022D02*
D03*
X302Y2224D02*
D03*
X556D02*
D03*
X810D02*
D03*
X1064D02*
D03*
X1318D02*
D03*
X1572D02*
D03*
X1826D02*
D03*
X2080D02*
D03*
X302Y700D02*
D03*
X556D02*
D03*
X810D02*
D03*
X1064D02*
D03*
X1318D02*
D03*
X1572D02*
D03*
X1826D02*
D03*
X2080D02*
D03*
D20*
X2105Y5349D02*
D03*
X755D02*
D03*
D21*
X1640Y3160D02*
D03*
X2623Y3977D02*
D03*
X980Y4000D02*
D03*
X1019Y3386D02*
D03*
X1000Y3200D02*
D03*
X1200Y3300D02*
D03*
X1910Y4653D02*
D03*
X580Y2430D02*
D03*
X2800Y5200D02*
D03*
Y2800D02*
D03*
Y2000D02*
D03*
Y400D02*
D03*
X2400Y5200D02*
D03*
Y4400D02*
D03*
Y2800D02*
D03*
X2600Y2400D02*
D03*
Y1600D02*
D03*
X2400Y1200D02*
D03*
X2600Y800D02*
D03*
X2400Y400D02*
D03*
X2000Y4400D02*
D03*
X2200Y4000D02*
D03*
X2000Y3600D02*
D03*
Y2800D02*
D03*
X2200Y1600D02*
D03*
X2000Y1200D02*
D03*
Y400D02*
D03*
X1600Y5200D02*
D03*
X1800Y4000D02*
D03*
Y3200D02*
D03*
Y1600D02*
D03*
X1600Y1200D02*
D03*
Y400D02*
D03*
X1200Y5200D02*
D03*
Y400D02*
D03*
X800Y4400D02*
D03*
Y400D02*
D03*
X400Y5200D02*
D03*
X600Y4800D02*
D03*
X400Y4400D02*
D03*
X600Y3200D02*
D03*
X400Y2800D02*
D03*
X600Y1600D02*
D03*
X400Y1200D02*
D03*
Y400D02*
D03*
X1630Y3310D02*
D03*
X1430Y3600D02*
D03*
X1440Y4320D02*
D03*
Y4000D02*
D03*
X1910Y4490D02*
D03*
X1780Y4320D02*
D03*
X1700D02*
D03*
X2870Y790D02*
D03*
X2860Y950D02*
D03*
X3030Y780D02*
D03*
X590Y2040D02*
D03*
X460D02*
D03*
M02*
