M48
;Layer_Color=9474304
;FILE_FORMAT=2:5
INCH
;TYPE=PLATED
T01F00S00C0.01181
T02F00S00C0.03189
T03F00S00C0.05197
%
T01
X0015748Y0015748
X0031496
X0047244
X0062992
X0078740
X0094488
X0110236
X0112992Y0031102
X0112598Y0037402
X0119291Y0030709
X0102362Y0031496
X0094488Y0047244
X0078740
X0062992
X0070866Y0062992
X0086614
X0102362
X0110236Y0078740
X0102362Y0094488
X0094488Y0110236
X0110236
X0078740
X0070866Y0125984
X0064567Y0124409
X0064173Y0130315
X0047244Y0129921
X0040120Y0133315
X0039370Y0125984
X0023622Y0125984
X0015748Y0110236
X0022835Y0095669
X0023228Y0080315
X0018110
X0023622Y0062992
X0015748Y0047244
X0056299Y0141732
X0078740Y0141732
X0086614Y0157480
X0070866
X0070079Y0170079
X0066929
X0056693
Y0157480
X0038583Y0157480
X0031496Y0173228
X0015748
X0023622Y0188976
X0015748Y0204724
X0047244
X0062992
X0094488
X0110236
X0094488Y0173228
X0078740
X0075197Y0176772
Y0183177
X0103270Y0156572
T02
X0011890Y0027559
X0021890
X0031890
X0041890
X0051890
X0061890
X0071890
X0081890
X0118898Y0037716
Y0047717
Y0057717
Y0067716
X0081890Y0087559
X0071890
X0061890
X0051890
X0041890
X0031890
X0021890
X0011890
X0031496Y0109921
Y0119921
Y0129921
Y0139921
X0118898Y0167717
Y0177717
Y0187716
Y0197716
T03
X0029724Y0210571
X0082874
M30
